<?xml version="1.0" encoding="utf-8"?>
<!-- Generator: Adobe Illustrator 22.1.0, SVG Export Plug-In . SVG Version: 6.00 Build 0)  -->
<svg version="1.1" xmlns="http://www.w3.org/2000/svg" xmlns:xlink="http://www.w3.org/1999/xlink" x="0px" y="0px"
	 viewBox="0 0 2000 1350" style="enable-background:new 0 0 2000 1350;" xml:space="preserve">
<style type="text/css">
	.st0{fill:#1B2638;}
	.st1{fill:#FFFFFF;}
	.st2{fill:none;stroke:#FFFFFF;stroke-width:1.0722;stroke-miterlimit:10;}
	.st3{fill:none;}
</style>
<g id="Layer_2">
	<rect class="st0" width="2000" height="1350"/>
</g>
<g id="Layer_3">
</g>
<g id="Layer_1">
	<g>
		<path class="st1" d="M223.7,791.2c32.4,0,58.6,26.2,58.6,58.6c0,32.4-26.2,58.6-58.6,58.6c-32.3,0-58.6-26.2-58.6-58.6
			C165.2,817.4,191.4,791.2,223.7,791.2 M223.7,787.2c-34.5,0-62.6,28.1-62.6,62.6c0,34.5,28.1,62.6,62.6,62.6
			c34.5,0,62.6-28.1,62.6-62.6C286.3,815.2,258.2,787.2,223.7,787.2L223.7,787.2z"/>
	</g>
	<g>
		<g>
			<path class="st1" d="M250.4,180.4v81h-126v-81H250.4 M250.4,176.4h-126c-2.2,0-4,1.8-4,4v81c0,2.2,1.8,4,4,4h126c2.2,0,4-1.8,4-4
				v-81C254.4,178.2,252.6,176.4,250.4,176.4L250.4,176.4z"/>
		</g>
		<g>
			<path class="st1" d="M200.4,204c1.2,0,2.1,0.3,2.6,1c0.5,0.7,0.8,1.8,0.8,3.4v2.4c0,1.6-0.3,2.8-1,3.5c-0.7,0.7-1.7,1-3,1h-2.6
				V204H200.4 M200.4,200h-3.3c-2.2,0-4,1.8-4,4v11.4c0,2.2,1.8,4,4,4h2.6c3.1,0,4.9-1.2,5.9-2.3c1.4-1.5,2.2-3.6,2.2-6.3v-2.4
				c0-2.5-0.6-4.4-1.7-5.9C205.2,201.4,203.5,200,200.4,200L200.4,200z"/>
		</g>
		<g>
			<path class="st1" d="M200.1,221.5c1.6,0,2.7,0.4,3.3,1.1c0.7,0.8,1,2.1,1,4.1v3.8c0,1.5-0.3,2.6-0.9,3.3c-0.6,0.6-1.5,1-2.7,1
				h-3.9v-13.2H200.1 M200.1,217.5h-3c-2.2,0-4,1.8-4,4v13.2c0,2.2,1.8,4,4,4h3.9c2.9,0,4.7-1.2,5.6-2.2c0,0,0,0,0.1-0.1
				c1.2-1.4,1.9-3.4,1.9-5.9v-3.8c0-3-0.7-5.2-2-6.7C205,218.3,202.9,217.5,200.1,217.5L200.1,217.5z"/>
		</g>
		<path class="st1" d="M206.2,218v-0.1c1.5-0.6,2.6-1.6,3.3-3c0.7-1.4,1.1-3.2,1.1-5.4v-1.7c0-3.4-0.8-5.8-2.4-7.5
			c-1.6-1.6-4.1-2.4-7.6-2.4h-10.2v43H201c3.4,0,5.9-0.9,7.7-2.6c1.7-1.7,2.6-4.3,2.6-7.6V227C211.3,222.1,209.6,219.1,206.2,218z
			 M197.1,204h3.3c1.2,0,2.1,0.3,2.6,1c0.5,0.7,0.8,1.8,0.8,3.4v2.4c0,1.6-0.3,2.8-1,3.5c-0.7,0.7-1.7,1-3,1h-2.6V204z M204.5,230.5
			c0,1.5-0.3,2.6-0.9,3.3c-0.6,0.6-1.5,1-2.7,1h-3.9v-13.2h3c1.6,0,2.7,0.4,3.3,1.1c0.7,0.8,1,2.1,1,4.1V230.5z"/>
		<polygon class="st1" points="182.5,234.7 182.5,240.9 164.6,240.9 164.6,197.8 171.4,197.8 171.4,234.7 		"/>
	</g>
	<g>
		<path class="st1" d="M381.6,204c1.2,0,2.1,0.3,2.6,1c0.5,0.7,0.8,1.8,0.8,3.4v2.4c0,1.6-0.3,2.8-1,3.5c-0.7,0.7-1.7,1-3,1h-2.7
			V204H381.6 M381.6,200h-3.3c-2.2,0-4,1.8-4,4v11.4c0,2.2,1.8,4,4,4h2.7c3.1,0,4.9-1.2,5.9-2.3c1.4-1.5,2.1-3.6,2.1-6.3v-2.4
			c0-2.5-0.5-4.4-1.7-5.8c0,0,0,0,0-0.1C386.4,201.4,384.7,200,381.6,200L381.6,200z"/>
	</g>
	<g>
		<g>
			<path class="st1" d="M429.8,180.4v81h-126v-81H429.8 M429.8,176.4h-126c-2.2,0-4,1.8-4,4v81c0,2.2,1.8,4,4,4h126c2.2,0,4-1.8,4-4
				v-81C433.8,178.2,432,176.4,429.8,176.4L429.8,176.4z"/>
		</g>
		<g>
			<path class="st1" d="M381.4,221.5c1.6,0,2.7,0.4,3.4,1.1c0.7,0.8,1,2.1,1,4.1v3.8c0,1.5-0.3,2.6-0.9,3.3c-0.6,0.6-1.5,1-2.7,1
				h-3.9v-13.2H381.4 M381.4,217.5h-3c-2.2,0-4,1.8-4,4v13.2c0,2.2,1.8,4,4,4h3.9c2.9,0,4.7-1.2,5.6-2.2c0,0,0,0,0.1-0.1
				c1.2-1.4,1.9-3.4,1.9-5.9v-3.8c0-3-0.7-5.2-2-6.7C386.2,218.3,384.1,217.5,381.4,217.5L381.4,217.5z"/>
		</g>
		<path class="st1" d="M387.5,218v-0.1c1.5-0.6,2.6-1.6,3.3-3c0.7-1.4,1.1-3.2,1.1-5.4v-1.7c0-3.4-0.8-5.8-2.4-7.5
			c-1.6-1.6-4.1-2.4-7.6-2.4h-10.2v43h10.6c3.4,0,5.9-0.9,7.7-2.6c1.7-1.7,2.6-4.3,2.6-7.6V227C392.5,222.1,390.8,219.1,387.5,218z
			 M378.3,204h3.3c1.2,0,2.1,0.3,2.6,1c0.5,0.7,0.8,1.8,0.8,3.4v2.4c0,1.6-0.3,2.8-1,3.5c-0.7,0.7-1.7,1-3,1h-2.7V204z M385.7,230.5
			c0,1.5-0.3,2.6-0.9,3.3c-0.6,0.6-1.5,1-2.7,1h-3.9v-13.2h3c1.6,0,2.7,0.4,3.4,1.1c0.7,0.8,1,2.1,1,4.1V230.5z"/>
		<path class="st1" d="M362.4,238.6c-0.1-0.8-0.1-1.8-0.1-3v-7.6c0-2.5-0.3-4.6-1-6.1c-0.7-1.5-1.8-2.5-3.5-3v-0.1
			c3-1.2,4.4-4,4.4-8.5v-2.6c0-3.4-0.8-5.8-2.4-7.5c-1.6-1.6-4.1-2.4-7.6-2.4h-10v43h6.8v-18.5h2.3c1.5,0,2.7,0.4,3.3,1.2
			c0.6,0.8,0.9,2.2,0.9,4.1v7.9c0,1.6,0.1,2.7,0.1,3.3c0.1,0.6,0.3,1.3,0.5,2h6.9C362.7,240.1,362.5,239.4,362.4,238.6z
			 M355.5,211.7c0,1.6-0.3,2.8-1,3.5c-0.7,0.7-1.7,1-3,1H349V204h3.1c1.2,0,2.1,0.3,2.6,1c0.6,0.7,0.8,1.8,0.8,3.4V211.7z"/>
	</g>
	<g>
		<g>
			<path class="st1" d="M250.4,286.6v81c-21,9.4-42,14.1-63,14.1s-42-4.7-63-14.1v-81H250.4 M250.4,282.6h-126c-2.2,0-4,1.8-4,4v81
				c0,1.6,0.9,3,2.4,3.7c21.4,9.6,43.2,14.5,64.6,14.5s43.2-4.9,64.6-14.5c1.4-0.6,2.4-2.1,2.4-3.7v-81
				C254.4,284.4,252.6,282.6,250.4,282.6L250.4,282.6z"/>
		</g>
		<polygon class="st1" points="208.3,309.3 208.3,315.5 201.2,315.5 201.2,352.4 194.5,352.4 194.5,315.5 187.4,315.5 187.4,309.3 
					"/>
		<polygon class="st1" points="186.1,346.2 186.1,352.4 168.2,352.4 168.2,309.3 175,309.3 175,346.2 		"/>
	</g>
	<g>
		<g>
			<path class="st1" d="M429.8,286.6v81c-21,9.4-42,14.1-63,14.1s-42-4.7-63-14.1v-81H429.8 M429.8,282.6h-126c-2.2,0-4,1.8-4,4v81
				c0,1.6,0.9,3,2.4,3.7c21.4,9.6,43.2,14.5,64.6,14.5c21.5,0,43.2-4.9,64.6-14.5c1.4-0.6,2.4-2.1,2.4-3.7v-81
				C433.8,284.4,432,282.6,429.8,282.6L429.8,282.6z"/>
		</g>
		<g>
			<path class="st1" d="M353.3,315.5c1.2,0,2,0.3,2.6,1c0.6,0.7,0.8,1.8,0.8,3.4v3.3c0,1.7-0.4,2.8-1,3.5c-0.7,0.7-1.7,1-3,1h-2.5
				v-12.3H353.3 M353.3,311.5h-3.1c-2.2,0-4,1.8-4,4v12.3c0,2.2,1.8,4,4,4h2.5c3.1,0,4.9-1.2,5.9-2.3c1.4-1.5,2.2-3.6,2.2-6.3v-3.3
				c0-2.5-0.6-4.4-1.7-5.9C358.1,312.9,356.4,311.5,353.3,311.5L353.3,311.5z"/>
		</g>
		<polygon class="st1" points="391.9,309.3 391.9,315.5 384.8,315.5 384.8,352.4 378,352.4 378,315.5 371,315.5 371,309.3 		"/>
		<path class="st1" d="M363.7,350.1c-0.1-0.8-0.1-1.8-0.1-3v-7.6c0-2.5-0.3-4.6-1-6.1c-0.7-1.5-1.8-2.5-3.5-3v-0.1
			c3-1.2,4.4-4,4.4-8.5v-2.6c0-3.4-0.8-5.9-2.4-7.5c-1.6-1.6-4.1-2.4-7.6-2.4h-10v43h6.8v-18.4h2.3c1.6,0,2.6,0.4,3.3,1.2
			c0.6,0.8,0.9,2.2,0.9,4.1v7.9c0,1.6,0,2.7,0.1,3.3c0.1,0.6,0.3,1.3,0.5,2h6.9C364,351.6,363.8,350.9,363.7,350.1z M356.8,323.2
			c0,1.7-0.4,2.8-1,3.5c-0.7,0.7-1.7,1-3,1h-2.5v-12.3h3.1c1.2,0,2,0.3,2.6,1c0.6,0.7,0.8,1.8,0.8,3.4V323.2z"/>
	</g>
	<g>
		<g>
			<path class="st1" d="M250.4,451.5v81h-126v-81H250.4 M250.4,447.5h-126c-2.2,0-4,1.8-4,4v81c0,2.2,1.8,4,4,4h126c2.2,0,4-1.8,4-4
				v-81C254.4,449.3,252.6,447.5,250.4,447.5L250.4,447.5z"/>
		</g>
		<path class="st1" d="M206.7,469v43H200v-32.8h-7.1v-4.8c1.9,0,3.5-0.2,4.6-0.5c1.2-0.3,2.1-0.9,2.8-1.6c0.7-0.8,1.3-1.8,1.8-3.3
			H206.7z"/>
		<polygon class="st1" points="182.6,505.9 182.6,512 164.7,512 164.7,469 171.5,469 171.5,505.9 		"/>
	</g>
	<g>
		<g>
			<path class="st1" d="M352.2,475.1c1.2,0,2,0.3,2.6,1c0.5,0.7,0.8,1.8,0.8,3.4v3.3c0,1.6-0.3,2.8-1,3.5c-0.7,0.7-1.7,1-3,1h-2.5
				v-12.3H352.2 M352.2,471.1h-3.1c-2.2,0-4,1.8-4,4v12.3c0,2.2,1.8,4,4,4h2.5c3.1,0,4.9-1.2,5.9-2.3c1.4-1.4,2.2-3.6,2.2-6.3v-3.3
				c0-2.5-0.6-4.4-1.7-5.9C357,472.5,355.2,471.1,352.2,471.1L352.2,471.1z"/>
		</g>
		<g>
			<path class="st1" d="M429.8,451.5v81h-126v-81H429.8 M429.8,447.5h-126c-2.2,0-4,1.8-4,4v81c0,2.2,1.8,4,4,4h126c2.2,0,4-1.8,4-4
				v-81C433.8,449.3,432,447.5,429.8,447.5L429.8,447.5z"/>
		</g>
		<path class="st1" d="M388,469v43h-6.8v-32.8h-7.1v-4.8c1.9,0,3.5-0.2,4.7-0.5c1.2-0.3,2.1-0.9,2.8-1.6c0.7-0.8,1.3-1.8,1.8-3.3
			H388z"/>
		<path class="st1" d="M362.6,509.8c-0.1-0.8-0.1-1.8-0.1-3v-7.6c0-2.5-0.3-4.6-1-6.1c-0.7-1.5-1.8-2.5-3.5-3V490
			c2.9-1.2,4.4-4,4.4-8.5v-2.6c0-3.4-0.8-5.9-2.4-7.5c-1.6-1.6-4.1-2.4-7.6-2.4h-10v43h6.8v-18.4h2.3c1.5,0,2.6,0.4,3.3,1.2
			c0.6,0.8,1,2.2,1,4.1v7.9c0,1.6,0,2.7,0.1,3.3c0.1,0.6,0.3,1.3,0.5,2h6.9C362.8,511.3,362.6,510.5,362.6,509.8z M355.6,482.9
			c0,1.6-0.3,2.8-1,3.5c-0.7,0.7-1.7,1-3,1h-2.5v-12.3h3.1c1.2,0,2,0.3,2.6,1c0.5,0.7,0.8,1.8,0.8,3.4V482.9z"/>
	</g>
	<g>
		<g>
			<path class="st1" d="M250.4,557.7v80.9c-21,9.4-42,14.1-63,14.1s-42-4.7-63-14.1v-80.9H250.4 M250.4,553.7h-126c-2.2,0-4,1.8-4,4
				v80.9c0,1.6,0.9,3,2.4,3.7c21.4,9.6,43.2,14.5,64.6,14.5s43.2-4.9,64.6-14.5c1.4-0.6,2.4-2.1,2.4-3.7v-80.9
				C254.4,555.5,252.6,553.7,250.4,553.7L250.4,553.7z"/>
		</g>
		<path class="st1" d="M197.1,617.4h12.8v6.1h-19.5v-4.7c0-3.1,0.5-5.7,1.5-7.9c1-2.2,2.7-4.6,5.3-7.3c2.5-2.7,4.2-4.9,5.2-6.8
			c1-1.9,1.5-3.8,1.5-5.9c0-1.9-0.3-3.1-0.9-3.8c-0.6-0.7-1.5-1.1-2.6-1.1c-2.3,0-3.5,1.4-3.5,4.2v4.6h-6.4v-4.2
			c0-3.5,0.9-6.2,2.6-8c1.7-1.9,4.2-2.8,7.5-2.8c3.3,0,5.8,0.9,7.5,2.8c1.7,1.9,2.6,4.5,2.6,8c0,2.6-0.6,5.2-1.9,7.7
			c-1.3,2.5-3.4,5.4-6.5,8.6c-2,2.1-3.4,3.9-4.1,5.2c-0.7,1.3-1,2.8-1,4.3V617.4z"/>
		<polygon class="st1" points="182.6,617.4 182.6,623.5 164.7,623.5 164.7,580.5 171.5,580.5 171.5,617.4 		"/>
	</g>
	<g>
		<g>
			<path class="st1" d="M352.2,586.6c1.2,0,2,0.3,2.6,1c0.5,0.7,0.8,1.8,0.8,3.4v3.3c0,1.6-0.3,2.8-1,3.5c-0.7,0.7-1.7,1-3,1h-2.5
				v-12.3H352.2 M352.2,582.6h-3.1c-2.2,0-4,1.8-4,4v12.3c0,2.2,1.8,4,4,4h2.5c3,0,4.9-1.2,5.9-2.2c1.4-1.5,2.2-3.6,2.2-6.3v-3.3
				c0-2.5-0.6-4.4-1.7-5.9C357,584,355.2,582.6,352.2,582.6L352.2,582.6z"/>
		</g>
		<g>
			<path class="st1" d="M429.8,557.7v80.9c-21,9.4-42,14.1-63,14.1s-42-4.7-63-14.1v-80.9H429.8 M429.8,553.7h-126c-2.2,0-4,1.8-4,4
				v80.9c0,1.6,0.9,3,2.4,3.7c21.4,9.6,43.2,14.5,64.6,14.5c21.5,0,43.2-4.9,64.6-14.5c1.4-0.6,2.4-2.1,2.4-3.7v-80.9
				C433.8,555.5,432,553.7,429.8,553.7L429.8,553.7z"/>
		</g>
		<path class="st1" d="M378.3,617.4h12.9v6.1h-19.5v-4.7c0-3.1,0.5-5.7,1.5-7.9c1-2.2,2.8-4.6,5.3-7.3c2.5-2.7,4.2-4.9,5.2-6.8
			c1-1.9,1.4-3.8,1.4-5.9c0-1.9-0.3-3.1-0.9-3.8c-0.6-0.7-1.5-1.1-2.6-1.1c-2.3,0-3.5,1.4-3.5,4.2v4.6h-6.4v-4.2
			c0-3.5,0.9-6.2,2.6-8c1.7-1.9,4.2-2.8,7.5-2.8c3.3,0,5.8,0.9,7.5,2.8c1.7,1.9,2.6,4.5,2.6,8c0,2.6-0.6,5.2-1.9,7.7
			s-3.4,5.4-6.5,8.6c-2,2.1-3.4,3.9-4,5.2c-0.7,1.3-1.1,2.8-1.1,4.3V617.4z"/>
		<path class="st1" d="M362.6,621.3c-0.1-0.8-0.1-1.8-0.1-3v-7.6c0-2.5-0.3-4.6-1-6.1c-0.7-1.5-1.8-2.5-3.5-3v-0.1
			c2.9-1.2,4.4-4,4.4-8.5v-2.6c0-3.4-0.8-5.9-2.4-7.5c-1.6-1.6-4.1-2.4-7.6-2.4h-10v43h6.8v-18.4h2.3c1.5,0,2.6,0.4,3.3,1.2
			c0.6,0.8,1,2.2,1,4.1v7.9c0,1.6,0,2.7,0.1,3.3c0.1,0.6,0.3,1.3,0.5,2h6.9C362.8,622.8,362.6,622,362.6,621.3z M355.6,594.4
			c0,1.6-0.3,2.8-1,3.5c-0.7,0.7-1.7,1-3,1h-2.5v-12.3h3.1c1.2,0,2,0.3,2.6,1c0.5,0.7,0.8,1.8,0.8,3.4V594.4z"/>
	</g>
	<g>
		<g>
			<path class="st1" d="M637.1,161.8c33.2,0,60,26.9,60,60c0,33.2-26.9,60-60,60c-33.2,0-60-26.9-60-60
				C577,188.6,603.9,161.8,637.1,161.8 M637.1,157.8c-35.3,0-64,28.7-64,64c0,35.3,28.7,64,64,64c35.3,0,64-28.7,64-64
				C701.1,186.5,672.4,157.8,637.1,157.8L637.1,157.8z"/>
		</g>
		<path class="st1" d="M637.1,168.5c-29.4,0-53.3,23.8-53.3,53.2c0,29.4,23.8,53.3,53.3,53.3c29.4,0,53.3-23.8,53.3-53.3
			C690.3,192.4,666.5,168.5,637.1,168.5z M637.1,271.5c-27.4,0-49.7-22.3-49.7-49.7s22.2-49.7,49.7-49.7s49.7,22.2,49.7,49.7
			S664.5,271.5,637.1,271.5z"/>
		<polygon class="st1" points="646.9,234.5 646.9,240.6 629,240.6 629,197.6 635.8,197.6 635.8,234.5 		"/>
	</g>
	<g>
		<g>
			<path class="st1" d="M819.2,161.8c33.2,0,60,26.9,60,60c0,33.2-26.9,60-60,60s-60-26.9-60-60C759.2,188.6,786,161.8,819.2,161.8
				 M819.2,157.8c-35.3,0-64,28.7-64,64c0,35.3,28.7,64,64,64c35.3,0,64-28.7,64-64C883.2,186.5,854.5,157.8,819.2,157.8
				L819.2,157.8z"/>
		</g>
		<path class="st1" d="M819.2,168.5c-29.4,0-53.3,23.8-53.3,53.2c0,29.4,23.9,53.3,53.3,53.3s53.3-23.8,53.3-53.3
			C872.5,192.4,848.6,168.5,819.2,168.5z M819.2,271.5c-27.4,0-49.7-22.3-49.7-49.7s22.2-49.7,49.7-49.7s49.7,22.2,49.7,49.7
			S846.6,271.5,819.2,271.5z"/>
		<g>
			<path class="st1" d="M819.2,203.7c1.2,0,2.1,0.3,2.6,1c0.6,0.7,0.8,1.8,0.8,3.4v3.3c0,1.6-0.3,2.8-1,3.5c-0.7,0.7-1.7,1-3,1h-2.5
				v-12.3H819.2 M819.2,199.7h-3.1c-2.2,0-4,1.8-4,4V216c0,2.2,1.8,4,4,4h2.5c3.1,0,4.9-1.2,5.9-2.3c1.4-1.5,2.2-3.6,2.2-6.3v-3.3
				c0-2.5-0.6-4.4-1.7-5.9C824,201.1,822.2,199.7,819.2,199.7L819.2,199.7z"/>
		</g>
		<path class="st1" d="M829.6,238.4c-0.1-0.8-0.1-1.8-0.1-3v-7.6c0-2.5-0.3-4.6-1-6.1c-0.7-1.5-1.8-2.5-3.5-3v-0.1
			c3-1.2,4.4-4,4.4-8.5v-2.6c0-3.4-0.8-5.9-2.4-7.5c-1.6-1.6-4.1-2.4-7.6-2.4h-10v43h6.8v-18.4h2.3c1.5,0,2.7,0.4,3.3,1.2
			c0.6,0.8,0.9,2.1,0.9,4.1v7.9c0,1.6,0.1,2.7,0.1,3.3c0.1,0.6,0.3,1.3,0.5,2h6.9C829.8,239.9,829.6,239.1,829.6,238.4z
			 M822.6,211.5c0,1.6-0.3,2.8-1,3.5c-0.7,0.7-1.7,1-3,1h-2.5v-12.3h3.1c1.2,0,2.1,0.3,2.6,1c0.6,0.7,0.8,1.8,0.8,3.4V211.5z"/>
	</g>
	<g>
		<g>
			<path class="st1" d="M637.1,311.4c33.2,0,60,26.9,60,60c0,33.2-26.9,60-60,60c-33.2,0-60-26.9-60-60
				C577,338.3,603.9,311.4,637.1,311.4 M637.1,307.4c-35.3,0-64,28.7-64,64c0,35.3,28.7,64,64,64c35.3,0,64-28.7,64-64
				C701.1,336.1,672.4,307.4,637.1,307.4L637.1,307.4z"/>
		</g>
		<path class="st1" d="M637.1,318.2c-29.4,0-53.3,23.8-53.3,53.2s23.8,53.3,53.3,53.3c29.4,0,53.3-23.9,53.3-53.3
			S666.5,318.2,637.1,318.2z M637.1,421.1c-27.4,0-49.7-22.3-49.7-49.7s22.2-49.7,49.7-49.7s49.7,22.2,49.7,49.7
			S664.5,421.1,637.1,421.1z"/>
		<path class="st1" d="M659.8,376.4v3.8c0,3.4-0.8,6.1-2.6,7.9c-1.7,1.8-4.2,2.7-7.5,2.7c-3.3,0-5.8-0.9-7.5-2.8
			c-1.7-1.8-2.5-4.5-2.5-7.9v-3.5h6.4v3.8c0,2.8,1.2,4.2,3.5,4.2c1.1,0,2-0.4,2.6-1.1c0.6-0.7,0.9-2,0.9-3.8v-3.5c0-2-0.3-3.4-1-4.2
			c-0.7-0.9-1.8-1.3-3.4-1.3h-2.3v-6.2h2.5c1.4,0,2.4-0.3,3-1c0.7-0.7,1-1.9,1-3.5V357c0-1.5-0.3-2.6-0.9-3.3c-0.6-0.7-1.4-1-2.5-1
			c-2.2,0-3.3,1.3-3.3,4v2.8h-6.4v-2.3c0-3.4,0.8-6.1,2.5-7.9c1.7-1.8,4.2-2.8,7.4-2.8c3.2,0,5.7,0.9,7.4,2.7
			c1.7,1.8,2.5,4.5,2.5,7.9v1.5c0,2.3-0.4,4.2-1.2,5.6c-0.8,1.4-2,2.4-3.6,3v0.1c1.8,0.7,3,1.7,3.8,3.2
			C659.5,372.2,659.8,374.1,659.8,376.4z"/>
		<polygon class="st1" points="632.3,384.1 632.3,390.2 614.4,390.2 614.4,347.2 621.2,347.2 621.2,384.1 		"/>
	</g>
	<g>
		<g>
			<path class="st1" d="M819.2,311.4c33.2,0,60,26.9,60,60c0,33.2-26.9,60-60,60s-60-26.9-60-60C759.2,338.3,786,311.4,819.2,311.4
				 M819.2,307.4c-35.3,0-64,28.7-64,64c0,35.3,28.7,64,64,64c35.3,0,64-28.7,64-64C883.2,336.1,854.5,307.4,819.2,307.4
				L819.2,307.4z"/>
		</g>
		<path class="st1" d="M819.2,318.2c-29.4,0-53.3,23.8-53.3,53.2s23.9,53.3,53.3,53.3s53.3-23.9,53.3-53.3S848.6,318.2,819.2,318.2z
			 M819.2,421.1c-27.4,0-49.7-22.3-49.7-49.7s22.2-49.7,49.7-49.7s49.7,22.2,49.7,49.7S846.6,421.1,819.2,421.1z"/>
		<g>
			<path class="st1" d="M804.6,353.4c1.2,0,2,0.3,2.6,1c0.5,0.7,0.8,1.8,0.8,3.4v3.3c0,1.6-0.4,2.8-1,3.5c-0.7,0.7-1.7,1-3,1h-2.5
				v-12.3H804.6 M804.6,349.4h-3.1c-2.2,0-4,1.8-4,4v12.3c0,2.2,1.8,4,4,4h2.5c3.1,0,4.9-1.2,5.9-2.3c1.4-1.5,2.2-3.6,2.2-6.3v-3.3
				c0-2.5-0.6-4.4-1.7-5.9C809.4,350.7,807.6,349.4,804.6,349.4L804.6,349.4z"/>
		</g>
		<path class="st1" d="M843.8,376.4v3.8c0,3.4-0.9,6.1-2.5,7.9c-1.7,1.8-4.2,2.7-7.5,2.7s-5.8-0.9-7.5-2.8c-1.7-1.8-2.5-4.5-2.5-7.9
			v-3.5h6.4v3.8c0,2.8,1.2,4.2,3.5,4.2c1.1,0,2-0.4,2.6-1.1c0.6-0.7,0.9-2,0.9-3.8v-3.5c0-2-0.3-3.4-1-4.2c-0.7-0.9-1.8-1.3-3.4-1.3
			h-2.3v-6.2h2.5c1.4,0,2.4-0.3,3-1c0.7-0.7,1-1.9,1-3.5V357c0-1.5-0.3-2.6-0.9-3.3c-0.6-0.7-1.4-1-2.5-1c-2.2,0-3.3,1.3-3.3,4v2.8
			h-6.4v-2.3c0-3.4,0.9-6.1,2.5-7.9c1.7-1.8,4.2-2.8,7.4-2.8c3.2,0,5.7,0.9,7.4,2.7c1.7,1.8,2.5,4.5,2.5,7.9v1.5
			c0,2.3-0.4,4.2-1.2,5.6c-0.8,1.4-2,2.4-3.6,3v0.1c1.8,0.7,3,1.7,3.8,3.2C843.4,372.2,843.8,374.1,843.8,376.4z"/>
		<path class="st1" d="M815,388c-0.1-0.8-0.1-1.8-0.1-3v-7.6c0-2.5-0.3-4.6-1-6.1c-0.7-1.5-1.8-2.5-3.5-3v-0.1
			c2.9-1.2,4.4-4,4.4-8.5v-2.6c0-3.4-0.8-5.9-2.4-7.5c-1.6-1.6-4.1-2.4-7.6-2.4h-10v43h6.8v-18.4h2.3c1.5,0,2.6,0.4,3.3,1.2
			c0.6,0.8,1,2.2,1,4.1v7.9c0,1.6,0,2.7,0.1,3.3c0.1,0.6,0.3,1.3,0.5,2h6.9C815.2,389.5,815,388.8,815,388z M808,361.1
			c0,1.6-0.4,2.8-1,3.5c-0.7,0.7-1.7,1-3,1h-2.5v-12.3h3.1c1.2,0,2,0.3,2.6,1c0.5,0.7,0.8,1.8,0.8,3.4V361.1z"/>
	</g>
	<g>
		<path class="st1" d="M1055.3,233l-33,58.4l-33-58.4H1055.3 M1055.3,229h-65.9c-1.4,0-2.7,0.8-3.5,2c-0.7,1.2-0.7,2.7,0,4l33,58.4
			c0.7,1.3,2,2,3.5,2s2.8-0.8,3.5-2l33-58.4c0.7-1.2,0.7-2.8,0-4C1058,229.8,1056.7,229,1055.3,229L1055.3,229z M1055.3,237
			L1055.3,237L1055.3,237L1055.3,237z"/>
	</g>
	<g>
		<path class="st1" d="M993.1,320.4l58.4,33l-58.4,33V320.4 M993.1,316.4c-0.7,0-1.4,0.2-2,0.5c-1.2,0.7-2,2-2,3.5v65.9
			c0,1.4,0.8,2.7,2,3.5c0.6,0.4,1.3,0.5,2,0.5c0.7,0,1.4-0.2,2-0.5l58.4-33c1.3-0.7,2-2,2-3.5s-0.8-2.8-2-3.5l-58.4-33
			C994.4,316.5,993.8,316.4,993.1,316.4L993.1,316.4z"/>
	</g>
	<g>
		<path class="st1" d="M1051.5,379.4v65.9l-58.4-33L1051.5,379.4 M1051.5,375.4c-0.7,0-1.4,0.2-2,0.5l-58.4,33c-1.3,0.7-2,2-2,3.5
			s0.8,2.8,2,3.5l58.4,33c0.6,0.3,1.3,0.5,2,0.5c0.7,0,1.4-0.2,2-0.5c1.2-0.7,2-2,2-3.5v-65.9c0-1.4-0.8-2.7-2-3.5
			C1052.9,375.6,1052.2,375.4,1051.5,375.4L1051.5,375.4z"/>
	</g>
	<g>
		<path class="st1" d="M1022.3,149.5l33,58.4h-65.9L1022.3,149.5 M1022.3,145.5c-1.4,0-2.8,0.8-3.5,2l-33,58.4c-0.7,1.2-0.7,2.8,0,4
			c0.7,1.2,2,2,3.5,2h65.9c1.4,0,2.7-0.8,3.5-2c0.7-1.2,0.7-2.7,0-4l-33-58.4C1025.1,146.3,1023.8,145.5,1022.3,145.5L1022.3,145.5z
			"/>
	</g>
	<g>
		<g>
			<path class="st1" d="M1245.9,139.5c32.3,0,58.4,26.2,58.4,58.5c0,32.3-26.2,58.5-58.4,58.5c-32.3,0-58.5-26.2-58.5-58.5
				C1187.4,165.6,1213.6,139.5,1245.9,139.5 M1245.9,135.5c-34.4,0-62.5,28-62.5,62.5s28,62.5,62.5,62.5c34.4,0,62.4-28,62.4-62.5
				S1280.3,135.5,1245.9,135.5L1245.9,135.5z"/>
		</g>
		<polygon class="st1" points="1254.7,198 1283.7,227 1274.9,235.8 1245.9,206.8 1216.9,235.8 1208.2,227 1237.1,198 1208.2,169.1 
			1216.9,160.3 1245.9,189.3 1274.9,160.3 1283.7,169.1 		"/>
	</g>
	<g>
		<g>
			<path class="st1" d="M1405.3,139.5c0.6,0,1.3,0,1.9,0c30.6,1,55.5,25.9,56.5,56.5c1,33.1-25.5,60.3-58.4,60.3c-0.6,0-1.3,0-1.9,0
				c-30.6-1-55.5-25.9-56.5-56.5C1345.8,166.7,1372.4,139.5,1405.3,139.5 M1405.3,135.5v4V135.5
				C1405.3,135.5,1405.3,135.5,1405.3,135.5c-17.1,0-33,6.8-44.9,19c-11.9,12.3-18.1,28.4-17.6,45.5c1,32.8,27.6,59.3,60.4,60.4
				c0.7,0,1.4,0,2.1,0c17.1,0,33-6.7,44.9-19c11.9-12.2,18.1-28.4,17.6-45.5c-1-32.8-27.6-59.4-60.4-60.4
				C1406.7,135.5,1406,135.5,1405.3,135.5L1405.3,135.5z"/>
		</g>
		<path class="st1" d="M1433.5,164.5h-56.4c-2.9,0-5.2,2.3-5.2,5.2v56.4c0,2.9,2.3,5.2,5.2,5.2h56.4c2.9,0,5.2-2.3,5.2-5.2v-56.4
			C1438.7,166.8,1436.4,164.5,1433.5,164.5z M1426.5,213.8c0,2.9-2.4,5.3-5.3,5.3h-31.9c-2.9,0-5.3-2.3-5.3-5.3V182
			c0-2.9,2.3-5.3,5.3-5.3h31.9c2.9,0,5.3,2.3,5.3,5.3V213.8z"/>
		<g>
			<path class="st1" d="M1421.3,176.7c2.9,0,5.3,2.3,5.3,5.3v31.9c0,2.9-2.4,5.3-5.3,5.3h-31.9c-2.9,0-5.3-2.3-5.3-5.3V182
				c0-2.9,2.3-5.3,5.3-5.3H1421.3 M1421.3,172.7h-31.9c-5.1,0-9.3,4.1-9.3,9.3v31.9c0,5.1,4.1,9.3,9.3,9.3h31.9
				c5.1,0,9.3-4.1,9.3-9.3V182C1430.5,176.9,1426.4,172.7,1421.3,172.7L1421.3,172.7z"/>
		</g>
	</g>
	<g>
		<g>
			<path class="st1" d="M1245.9,299.6c0.6,0,1.3,0,1.9,0c30.6,1,55.5,25.9,56.5,56.5c1.1,33.2-25.5,60.4-58.4,60.4
				c-0.6,0-1.3,0-1.9,0c-30.6-1-55.6-25.9-56.5-56.5C1186.4,326.8,1213,299.6,1245.9,299.6 M1245.9,295.6
				C1245.9,295.6,1245.9,295.6,1245.9,295.6c-17.1,0-33,6.8-44.9,19c-11.9,12.3-18.1,28.4-17.5,45.5c0.5,15.8,7,30.8,18.3,42.1
				c11.3,11.3,26.3,17.8,42.1,18.3c0.7,0,1.4,0,2,0c17.1,0,33-6.8,44.9-19c11.9-12.3,18.1-28.4,17.6-45.5
				c-1.1-32.8-27.6-59.3-60.4-60.4C1247.3,295.6,1246.6,295.6,1245.9,295.6L1245.9,295.6z"/>
		</g>
		<path class="st1" d="M1283.2,377.6l-34.9-60.5c-1-1.7-3.5-1.7-4.5,0l-34.9,60.5c-1,1.7,0.3,3.9,2.3,3.9h69.9
			C1282.9,381.5,1284.2,379.3,1283.2,377.6z M1261.6,370.4h-31.4c-1.5,0-2.4-1.6-1.7-2.9l15.7-28.1c0.8-1.3,2.7-1.3,3.4,0l15.7,28.2
			C1264.1,368.8,1263.1,370.4,1261.6,370.4z"/>
		<g>
			<path class="st1" d="M1245.9,338.3c0.7,0,1.3,0.3,1.7,1l15.7,28.2c0.7,1.3-0.2,2.9-1.7,2.9h-31.4c-1.5,0-2.4-1.6-1.7-2.9
				l15.7-28.1C1244.6,338.7,1245.3,338.3,1245.9,338.3 M1245.9,334.3C1245.9,334.3,1245.9,334.3,1245.9,334.3
				c-2.2,0-4.2,1.2-5.2,3.1l-15.7,28.1c-1,1.9-1,4.1,0.1,5.9c1.1,1.8,3,3,5.1,3h31.4c2.1,0,4.1-1.1,5.1-3c1.1-1.8,1.1-4.1,0.1-5.9
				l-15.7-28.1C1250.1,335.5,1248.1,334.3,1245.9,334.3L1245.9,334.3z"/>
		</g>
	</g>
	<g>
		<g>
			<path class="st1" d="M1405.3,299.6c32.3,0,58.4,26.2,58.4,58.5c0,32.3-26.2,58.5-58.4,58.5c-32.3,0-58.5-26.2-58.5-58.5
				C1346.9,325.8,1373,299.6,1405.3,299.6 M1405.3,295.6c-34.4,0-62.5,28-62.5,62.5s28,62.5,62.5,62.5c34.4,0,62.4-28,62.4-62.5
				S1439.8,295.6,1405.3,295.6L1405.3,295.6z"/>
		</g>
		<path class="st1" d="M1405.3,314.1c-24.3,0-44,19.7-44,44c0,24.3,19.7,44,44,44c24.3,0,44-19.7,44-44
			C1449.3,333.7,1429.6,314.1,1405.3,314.1z M1405.3,390.2c-17.8,0-32.2-14.4-32.2-32.2c0-17.8,14.4-32.2,32.2-32.2
			c17.8,0,32.2,14.4,32.2,32.2C1437.5,375.8,1423.1,390.2,1405.3,390.2z"/>
		<g>
			<path class="st1" d="M1405.3,325.9c17.8,0,32.2,14.4,32.2,32.2c0,17.8-14.4,32.2-32.2,32.2c-17.8,0-32.2-14.4-32.2-32.2
				C1373.2,340.3,1387.6,325.9,1405.3,325.9 M1405.3,321.9c-19.9,0-36.2,16.2-36.2,36.2s16.2,36.2,36.2,36.2
				c19.9,0,36.2-16.2,36.2-36.2S1425.3,321.9,1405.3,321.9L1405.3,321.9z"/>
		</g>
	</g>
	<g>
		<path class="st1" d="M1454.5,546.3c1.6,0,3.1,0.7,4.1,2l10.1,12.9c1.5,1.9,1.5,4.5,0,6.4l-10.1,12.9c-1,1.3-2.5,2-4.1,2H1426
			c-2.9,0-5.2-2.3-5.2-5.2v-25.9c0-2.9,2.3-5.2,5.2-5.2H1454.5 M1454.5,542.3H1426c-5.1,0-9.2,4.1-9.2,9.2v25.9
			c0,5.1,4.1,9.2,9.2,9.2h28.5c2.9,0,5.5-1.3,7.3-3.5l10.1-12.9c2.6-3.3,2.6-8,0-11.3l-10.1-12.9
			C1460,543.6,1457.4,542.3,1454.5,542.3L1454.5,542.3z"/>
	</g>
	<g>
		<path class="st1" d="M1528.6,546.3c2.9,0,5.2,2.3,5.2,5.2v25.9c0,2.9-2.3,5.2-5.2,5.2H1500c-1.6,0-3.1-0.7-4.1-2l-10.1-12.9
			c-1.5-1.9-1.5-4.5,0-6.4l10.1-12.9c1-1.3,2.5-2,4.1-2H1528.6 M1528.6,542.3H1500c-2.9,0-5.5,1.3-7.3,3.5l-10.1,12.9
			c-2.6,3.3-2.6,8,0,11.3l10.1,12.9c1.8,2.3,4.4,3.5,7.3,3.5h28.5c5.1,0,9.2-4.1,9.2-9.2v-25.9
			C1537.7,546.4,1533.6,542.3,1528.6,542.3L1528.6,542.3z"/>
	</g>
	<g>
		<path class="st1" d="M1490.8,507.2c2.9,0,5.2,2.3,5.2,5.2V541c0,1.6-0.7,3.1-2,4.1l-12.9,10.1c-0.9,0.7-2.1,1.1-3.2,1.1
			c-1.1,0-2.3-0.4-3.2-1.1l-12.9-10.1c-1.3-1-2-2.5-2-4.1v-28.5c0-2.9,2.3-5.2,5.2-5.2H1490.8 M1490.8,503.2h-25.9
			c-5.1,0-9.2,4.1-9.2,9.2V541c0,2.9,1.3,5.5,3.5,7.3l12.9,10.1c1.6,1.3,3.6,1.9,5.6,1.9c2,0,4-0.7,5.6-1.9l12.9-10.1
			c2.3-1.8,3.5-4.4,3.5-7.3v-28.5C1500,507.4,1495.8,503.2,1490.8,503.2L1490.8,503.2z"/>
	</g>
	<g>
		<path class="st1" d="M1477.8,573.7c1.1,0,2.3,0.4,3.2,1.1l12.9,10.1c1.3,1,2,2.5,2,4.1v28.5c0,2.9-2.3,5.2-5.2,5.2h-25.9
			c-2.9,0-5.2-2.3-5.2-5.2v-28.5c0-1.6,0.7-3.1,2-4.1l12.9-10.1C1475.6,574,1476.7,573.7,1477.8,573.7 M1477.8,569.7
			c-2,0-4,0.7-5.6,1.9l-12.9,10.1c-2.3,1.8-3.5,4.4-3.5,7.3v28.5c0,5.1,4.1,9.2,9.2,9.2h25.9c5.1,0,9.2-4.1,9.2-9.2v-28.5
			c0-2.9-1.3-5.5-3.5-7.3l-12.9-10.1C1481.9,570.4,1479.8,569.7,1477.8,569.7L1477.8,569.7z"/>
	</g>
	<g>
		<g>
			<path class="st1" d="M1611.7,521.8c1.6,0,3.1,0.7,4.1,2l10.1,12.9c1.5,1.9,1.5,4.5,0,6.4l-10.1,12.9c-1,1.3-2.5,2-4.1,2h-28.5
				c-2.9,0-5.2-2.3-5.2-5.2V527c0-2.9,2.3-5.2,5.2-5.2H1611.7 M1611.7,517.8h-28.5c-5.1,0-9.2,4.1-9.2,9.2v25.9
				c0,5.1,4.1,9.2,9.2,9.2h28.5c2.9,0,5.5-1.3,7.3-3.5l10.1-12.9c2.6-3.3,2.6-8,0-11.3l-10.1-12.9
				C1617.2,519.1,1614.5,517.8,1611.7,517.8L1611.7,517.8z"/>
		</g>
		<g>
			<path class="st1" d="M1685.7,521.8c2.9,0,5.2,2.3,5.2,5.2v25.9c0,2.9-2.3,5.2-5.2,5.2h-28.5c-1.6,0-3.1-0.7-4.1-2l-10.1-12.9
				c-1.5-1.9-1.5-4.5,0-6.4l10.1-12.9c1-1.3,2.5-2,4.1-2H1685.7 M1685.7,517.8h-28.5c-2.9,0-5.5,1.3-7.3,3.5l-10.1,12.9
				c-2.6,3.3-2.6,8,0,11.3l10.1,12.9c1.8,2.3,4.4,3.5,7.3,3.5h28.5c5.1,0,9.2-4.1,9.2-9.2V527
				C1694.9,521.9,1690.7,517.8,1685.7,517.8L1685.7,517.8z"/>
		</g>
		<g>
			<path class="st1" d="M1647.9,482.7c2.9,0,5.2,2.3,5.2,5.2v28.5c0,1.6-0.7,3.1-2,4.1l-12.9,10.1c-0.9,0.7-2.1,1.1-3.2,1.1
				s-2.3-0.4-3.2-1.1l-12.9-10.1c-1.3-1-2-2.5-2-4.1v-28.5c0-2.9,2.3-5.2,5.2-5.2H1647.9 M1647.9,478.7H1622c-5.1,0-9.2,4.1-9.2,9.2
				v28.5c0,2.8,1.3,5.5,3.5,7.2l13,10.1c1.6,1.3,3.6,1.9,5.6,1.9c2,0,4-0.7,5.7-2l12.9-10.1c2.3-1.8,3.6-4.4,3.6-7.3v-28.5
				C1657.1,482.9,1653,478.7,1647.9,478.7L1647.9,478.7z"/>
		</g>
		<path class="st1" d="M1649.9,487.9v28.5c0,0.6-0.3,1.2-0.8,1.6l-12.9,10.1c-0.4,0.3-0.9,0.4-1.2,0.4c-0.3,0-0.8-0.1-1.2-0.4
			l-12.9-10.1c-0.5-0.4-0.8-1-0.8-1.6v-28.5c0-1.1,0.9-2,2-2h25.9C1649,486,1649.9,486.8,1649.9,487.9z"/>
		<g>
			<path class="st1" d="M1634.9,549.2c1.1,0,2.3,0.4,3.2,1.1l12.9,10.1c1.3,1,2,2.5,2,4.1V593c0,2.9-2.3,5.2-5.2,5.2H1622
				c-2.9,0-5.2-2.3-5.2-5.2v-28.5c0-1.6,0.7-3.1,2-4.1l12.9-10.1C1632.7,549.5,1633.8,549.2,1634.9,549.2 M1634.9,545.2
				c-2,0-4,0.7-5.6,1.9l-12.9,10.1c-2.3,1.8-3.5,4.4-3.5,7.3V593c0,5.1,4.1,9.2,9.2,9.2h25.9c5.1,0,9.2-4.1,9.2-9.2v-28.5
				c0-2.9-1.3-5.5-3.5-7.3l-12.9-10.1C1639,545.9,1637,545.2,1634.9,545.2L1634.9,545.2z"/>
		</g>
	</g>
	<g>
		<g>
			<path class="st1" d="M1848.6,522.9c2.9,0,5.2,2.3,5.2,5.2v25.9c0,2.9-2.3,5.2-5.2,5.2H1820c-1.6,0-3.1-0.7-4.1-2l-10.1-12.9
				c-1.5-1.9-1.5-4.5,0-6.4l10.1-12.9c1-1.3,2.5-2,4.1-2H1848.6 M1848.6,518.9H1820c-2.9,0-5.5,1.3-7.3,3.5l-10.1,12.9
				c-2.6,3.3-2.6,8,0,11.3l10.1,12.9c1.8,2.3,4.4,3.5,7.3,3.5h28.5c5.1,0,9.2-4.1,9.2-9.2V528C1857.7,523,1853.6,518.9,1848.6,518.9
				L1848.6,518.9z"/>
		</g>
		<g>
			<path class="st1" d="M1774.5,522.9c1.6,0,3.1,0.7,4.1,2l10.1,12.9c1.5,1.9,1.5,4.5,0,6.4l-10.1,12.9c-1,1.3-2.5,2-4.1,2H1746
				c-2.9,0-5.2-2.3-5.2-5.2V528c0-2.9,2.3-5.2,5.2-5.2H1774.5 M1774.5,518.9H1746c-5.1,0-9.2,4.1-9.2,9.2v25.9
				c0,5.1,4.1,9.2,9.2,9.2h28.5c2.9,0,5.5-1.3,7.3-3.5l10.1-12.9c2.6-3.3,2.6-8,0-11.3l-10.1-12.9
				C1780,520.1,1777.4,518.9,1774.5,518.9L1774.5,518.9z"/>
		</g>
		<g>
			<path class="st1" d="M1796.7,549.2c1.1,0,2.3,0.4,3.2,1.1l13,10.1c1.3,1,2,2.5,2,4.1V593c0,2.9-2.3,5.2-5.2,5.2h-25.9
				c-2.9,0-5.2-2.3-5.2-5.2v-28.6c0-1.6,0.7-3.1,2-4.1l12.9-10.1C1794.5,549.5,1795.6,549.2,1796.7,549.2 M1796.7,545.2
				c-2,0-4,0.7-5.7,2l-12.9,10.1c-2.2,1.7-3.6,4.4-3.6,7.2V593c0,5.1,4.1,9.2,9.2,9.2h25.9c5.1,0,9.2-4.1,9.2-9.2v-28.6
				c0-2.8-1.3-5.5-3.5-7.2l-13-10.1C1800.8,545.9,1798.8,545.2,1796.7,545.2L1796.7,545.2z"/>
		</g>
		<path class="st1" d="M1811.7,564.4V593c0,1.1-0.9,2-2,2h-25.9c-1.1,0-2-0.9-2-2v-28.6c0-0.6,0.3-1.2,0.8-1.5l12.9-10.1
			c0.4-0.3,0.9-0.4,1.2-0.4c0.3,0,0.8,0.1,1.2,0.4l12.9,10.1C1811.4,563.3,1811.7,563.8,1811.7,564.4z"/>
		<g>
			<path class="st1" d="M1809.7,482.7c2.9,0,5.2,2.3,5.2,5.2v28.5c0,1.6-0.7,3.1-2,4.1l-12.9,10.1c-0.9,0.7-2.1,1.1-3.2,1.1
				s-2.3-0.4-3.2-1.1l-12.9-10.1c-1.3-1-2-2.5-2-4.1v-28.5c0-2.9,2.3-5.2,5.2-5.2H1809.7 M1809.7,478.7h-25.9
				c-5.1,0-9.2,4.1-9.2,9.2v28.5c0,2.9,1.3,5.5,3.5,7.3l12.9,10.1c1.6,1.3,3.6,1.9,5.6,1.9s4-0.7,5.6-1.9l12.9-10.1
				c2.3-1.8,3.5-4.4,3.5-7.3v-28.5C1818.9,482.9,1814.8,478.7,1809.7,478.7L1809.7,478.7z"/>
		</g>
	</g>
	<g>
		<g>
			<path class="st1" d="M1647.9,624.8c2.9,0,5.2,2.3,5.2,5.2v28.5c0,1.6-0.7,3.1-2,4.1l-12.9,10.1c-0.9,0.7-2.1,1.1-3.2,1.1
				c-1.1,0-2.3-0.4-3.2-1.1l-12.9-10.1c-1.3-1-2-2.5-2-4.1V630c0-2.9,2.3-5.2,5.2-5.2H1647.9 M1647.9,620.8H1622
				c-5.1,0-9.2,4.1-9.2,9.2v28.5c0,2.9,1.3,5.5,3.5,7.3l12.9,10.1c1.6,1.2,3.6,1.9,5.6,1.9c2,0,4-0.7,5.6-1.9l12.9-10.1
				c2.3-1.7,3.6-4.4,3.6-7.3V630C1657.1,624.9,1653,620.8,1647.9,620.8L1647.9,620.8z"/>
		</g>
		<g>
			<path class="st1" d="M1634.9,688.7c1.1,0,2.3,0.4,3.2,1.1l12.9,10.1c1.3,1,2,2.5,2,4.1v28.5c0,2.9-2.3,5.2-5.2,5.2H1622
				c-2.9,0-5.2-2.3-5.2-5.2V704c0-1.6,0.7-3.1,2-4.1l12.9-10.1C1632.7,689.1,1633.8,688.7,1634.9,688.7 M1634.9,684.7
				c-2,0-4,0.7-5.6,1.9l-12.9,10.1c-2.3,1.8-3.5,4.4-3.5,7.3v28.5c0,5.1,4.1,9.2,9.2,9.2h25.9c5.1,0,9.2-4.1,9.2-9.2V704
				c0-2.9-1.3-5.5-3.6-7.3l-12.9-10.1C1639,685.4,1637,684.7,1634.9,684.7L1634.9,684.7z"/>
		</g>
		<g>
			<path class="st1" d="M1686.9,663.6c2.9,0,5.2,2.3,5.2,5.2v25.9c0,2.9-2.3,5.2-5.2,5.2h-28.6c-1.6,0-3.1-0.7-4.1-2l-10.1-12.9
				c-1.5-1.9-1.5-4.5,0-6.4l10.1-12.9c1-1.3,2.5-2,4.1-2H1686.9 M1686.9,659.6h-28.6c-2.8,0-5.5,1.3-7.2,3.5l-10.1,13
				c-2.6,3.3-2.6,8,0,11.3l10.1,12.9c1.7,2.2,4.4,3.6,7.2,3.6h28.6c5.1,0,9.2-4.1,9.2-9.2v-25.9
				C1696.1,663.8,1692,659.6,1686.9,659.6L1686.9,659.6z"/>
		</g>
		<path class="st1" d="M1688.9,668.8v25.9c0,1.1-0.9,2-2,2h-28.6c-0.6,0-1.2-0.3-1.5-0.8l-10.1-12.9c-0.3-0.5-0.4-0.9-0.4-1.2
			s0.1-0.8,0.4-1.2l10.1-13c0.4-0.5,0.9-0.8,1.5-0.8h28.6C1688,666.8,1688.9,667.7,1688.9,668.8z"/>
		<g>
			<path class="st1" d="M1610.4,663.6c1.6,0,3.1,0.7,4.1,2l10.1,12.9c1.5,1.9,1.5,4.5,0,6.4l-10.1,13c-1,1.3-2.5,2-4.1,2h-28.5
				c-2.9,0-5.2-2.3-5.2-5.2v-25.9c0-2.9,2.3-5.2,5.2-5.2H1610.4 M1610.4,659.6h-28.5c-5.1,0-9.2,4.1-9.2,9.2v25.9
				c0,5.1,4.1,9.2,9.2,9.2h28.5c2.8,0,5.5-1.3,7.2-3.5l10.1-13c2.6-3.3,2.6-8,0-11.3l-10.1-12.9
				C1615.9,660.9,1613.3,659.6,1610.4,659.6L1610.4,659.6z"/>
		</g>
	</g>
	<g>
		<g>
			<path class="st1" d="M1796.7,688.7c1.1,0,2.3,0.4,3.2,1.1l12.9,10.1c1.3,1,2,2.5,2,4.1v28.5c0,2.9-2.3,5.2-5.2,5.2h-25.9
				c-2.9,0-5.2-2.3-5.2-5.2V704c0-1.6,0.7-3.1,2-4.1l12.9-10.1C1794.5,689.1,1795.6,688.7,1796.7,688.7 M1796.7,684.7
				c-2,0-4,0.7-5.6,1.9l-12.9,10.1c-2.3,1.8-3.5,4.4-3.5,7.3v28.5c0,5.1,4.1,9.2,9.2,9.2h25.9c5.1,0,9.2-4.1,9.2-9.2V704
				c0-2.9-1.3-5.5-3.5-7.3l-12.9-10.1C1800.8,685.4,1798.8,684.7,1796.7,684.7L1796.7,684.7z"/>
		</g>
		<g>
			<path class="st1" d="M1809.7,624.8c2.9,0,5.2,2.3,5.2,5.2v28.5c0,1.6-0.7,3.1-2,4.1l-12.9,10.1c-0.9,0.7-2.1,1.1-3.2,1.1
				s-2.3-0.4-3.2-1.1l-12.9-10.1c-1.3-1-2-2.5-2-4.1V630c0-2.9,2.3-5.2,5.2-5.2H1809.7 M1809.7,620.8h-25.9c-5.1,0-9.2,4.1-9.2,9.2
				v28.5c0,2.9,1.3,5.5,3.5,7.3l12.9,10.1c1.6,1.3,3.6,1.9,5.6,1.9s4-0.7,5.6-1.9l12.9-10.1c2.3-1.8,3.5-4.4,3.5-7.3V630
				C1818.9,624.9,1814.8,620.8,1809.7,620.8L1809.7,620.8z"/>
		</g>
		<g>
			<path class="st1" d="M1773.3,662.6c1.6,0,3.1,0.7,4.1,2l10.1,12.9c1.5,1.9,1.5,4.5,0,6.4l-10.1,12.9c-1,1.3-2.5,2-4.1,2h-28.6
				c-2.9,0-5.2-2.3-5.2-5.2v-25.9c0-2.9,2.3-5.2,5.2-5.2H1773.3 M1773.3,658.6h-28.6c-5.1,0-9.2,4.1-9.2,9.2v25.9
				c0,5.1,4.1,9.2,9.2,9.2h28.6c2.8,0,5.5-1.3,7.2-3.5l10.1-13c2.6-3.3,2.6-8,0-11.3l-10.1-12.9
				C1778.8,659.9,1776.1,658.6,1773.3,658.6L1773.3,658.6z"/>
		</g>
		<path class="st1" d="M1785.3,680.7c0,0.3-0.1,0.8-0.4,1.2l-10.1,12.9c-0.4,0.5-1,0.8-1.6,0.8h-28.6c-1.1,0-2-0.9-2-2v-25.9
			c0-1.1,0.9-2,2-2h28.6c0.6,0,1.2,0.3,1.6,0.8l10.1,12.9C1785.3,679.9,1785.3,680.4,1785.3,680.7z"/>
		<g>
			<path class="st1" d="M1849.8,662.6c2.9,0,5.2,2.3,5.2,5.2v25.9c0,2.9-2.3,5.2-5.2,5.2h-28.5c-1.6,0-3.1-0.7-4.1-2l-10.1-12.9
				c-1.5-1.9-1.5-4.5,0-6.4l10.1-12.9c1-1.3,2.5-2,4.1-2H1849.8 M1849.8,658.6h-28.5c-2.9,0-5.5,1.3-7.3,3.5l-10.1,12.9
				c-2.6,3.3-2.6,8,0,11.3l10.1,12.9c1.8,2.3,4.4,3.5,7.3,3.5h28.5c5.1,0,9.2-4.1,9.2-9.2v-25.9
				C1859,662.7,1854.9,658.6,1849.8,658.6L1849.8,658.6z"/>
		</g>
	</g>
	<g>
		<g>
			<path class="st1" d="M780.2,573.6c4.2,0,7.7,3.4,7.7,7.7v26.8h26.8c4.2,0,7.7,3.4,7.7,7.7v27c0,4.2-3.4,7.7-7.7,7.7h-26.8v26.8
				c0,4.2-3.4,7.7-7.7,7.7h-27c-4.2,0-7.7-3.4-7.7-7.7v-26.8h-26.8c-4.2,0-7.7-3.4-7.7-7.7v-27c0-4.2,3.4-7.7,7.7-7.7h26.8v-26.8
				c0-4.2,3.4-7.7,7.7-7.7H780.2 M780.2,569.6h-27c-6.4,0-11.7,5.2-11.7,11.7v22.8h-22.8c-6.4,0-11.7,5.2-11.7,11.7v27
				c0,6.4,5.2,11.7,11.7,11.7h22.8v22.8c0,6.4,5.2,11.7,11.7,11.7h27c6.4,0,11.7-5.2,11.7-11.7v-22.8h22.8c6.4,0,11.7-5.2,11.7-11.7
				v-27c0-6.4-5.2-11.7-11.7-11.7h-22.8v-22.8C791.9,574.8,786.6,569.6,780.2,569.6L780.2,569.6z"/>
		</g>
		<path class="st1" d="M776.7,601.3h-20c-1.3,0-2-1.4-1.4-2.4l10-16.3c0.6-1,2.1-1,2.7,0l10,16.3
			C778.7,599.9,777.9,601.3,776.7,601.3z"/>
	</g>
	<g>
		<g>
			<path class="st1" d="M919.6,573.6c4.2,0,7.7,3.4,7.7,7.7v26.8h26.8c4.2,0,7.7,3.4,7.7,7.7v27c0,4.2-3.4,7.7-7.7,7.7h-26.8v26.8
				c0,4.2-3.4,7.7-7.7,7.7h-27c-4.2,0-7.7-3.4-7.7-7.7v-26.8h-26.8c-4.2,0-7.7-3.4-7.7-7.7v-27c0-4.2,3.4-7.7,7.7-7.7h26.8v-26.8
				c0-4.2,3.4-7.7,7.7-7.7H919.6 M919.6,569.6h-27c-6.4,0-11.7,5.2-11.7,11.7v22.8h-22.8c-6.4,0-11.7,5.2-11.7,11.7v27
				c0,6.4,5.2,11.7,11.7,11.7h22.8v22.8c0,6.4,5.2,11.7,11.7,11.7h27c6.4,0,11.7-5.2,11.7-11.7v-22.8h22.8c6.4,0,11.7-5.2,11.7-11.7
				v-27c0-6.4-5.2-11.7-11.7-11.7h-22.8v-22.8C931.3,574.8,926.1,569.6,919.6,569.6L919.6,569.6z"/>
		</g>
		<path class="st1" d="M952.8,630.6l-16.3,10c-1.1,0.7-2.4-0.1-2.4-1.4v-20c0-1.3,1.4-2,2.4-1.4l16.3,10
			C953.8,628.5,953.8,630,952.8,630.6z"/>
	</g>
	<g>
		<g>
			<path class="st1" d="M1059,573.6c4.2,0,7.7,3.4,7.7,7.7v26.8h26.8c4.2,0,7.7,3.4,7.7,7.7v27c0,4.2-3.4,7.7-7.7,7.7h-26.8v26.8
				c0,4.2-3.4,7.7-7.7,7.7h-27c-4.2,0-7.7-3.4-7.7-7.7v-26.8h-26.8c-4.2,0-7.7-3.4-7.7-7.7v-27c0-4.2,3.4-7.7,7.7-7.7h26.8v-26.8
				c0-4.2,3.4-7.7,7.7-7.7H1059 M1059,569.6h-27c-6.4,0-11.7,5.2-11.7,11.7v22.8h-22.8c-6.4,0-11.7,5.2-11.7,11.7v27
				c0,6.4,5.2,11.7,11.7,11.7h22.8v22.8c0,6.4,5.2,11.7,11.7,11.7h27c6.4,0,11.7-5.2,11.7-11.7v-22.8h22.8c6.4,0,11.7-5.2,11.7-11.7
				v-27c0-6.4-5.2-11.7-11.7-11.7h-22.8v-22.8C1070.7,574.8,1065.5,569.6,1059,569.6L1059,569.6z"/>
		</g>
		<path class="st1" d="M1056.9,659.6l-10,16.3c-0.6,1-2.1,1-2.7,0l-10-16.3c-0.7-1.1,0.1-2.4,1.4-2.4h20
			C1056.8,657.2,1057.6,658.6,1056.9,659.6z"/>
	</g>
	<g>
		<g>
			<path class="st1" d="M1198.5,573.6c4.2,0,7.7,3.4,7.7,7.7v26.8h26.8c4.2,0,7.7,3.4,7.7,7.7v27c0,4.2-3.4,7.7-7.7,7.7h-26.8v26.8
				c0,4.2-3.4,7.7-7.7,7.7h-27c-4.2,0-7.7-3.4-7.7-7.7v-26.8H1137c-4.2,0-7.7-3.4-7.7-7.7v-27c0-4.2,3.4-7.7,7.7-7.7h26.8v-26.8
				c0-4.2,3.4-7.7,7.7-7.7H1198.5 M1198.5,569.6h-27c-6.4,0-11.7,5.2-11.7,11.7v22.8H1137c-6.4,0-11.7,5.2-11.7,11.7v27
				c0,6.4,5.2,11.7,11.7,11.7h22.8v22.8c0,6.4,5.2,11.7,11.7,11.7h27c6.4,0,11.7-5.2,11.7-11.7v-22.8h22.8c6.4,0,11.7-5.2,11.7-11.7
				v-27c0-6.4-5.2-11.7-11.7-11.7h-22.8v-22.8C1210.1,574.8,1204.9,569.6,1198.5,569.6L1198.5,569.6z"/>
		</g>
		<path class="st1" d="M1157,619.2v20c0,1.3-1.4,2-2.4,1.4l-16.3-10c-1-0.6-1-2.1,0-2.7l16.3-10C1155.6,617.2,1157,618,1157,619.2z"
			/>
	</g>
	<g>
		<polygon class="st1" points="1579.5,151 1590.9,171.2 1568.1,171.2 		"/>
		<g>
			<path class="st2" d="M1523.9,214.1v-27c0-4.2,3.4-7.7,7.7-7.7h95.9c4.2,0,7.7,3.4,7.7,7.7v27c0,4.2-3.4,7.7-7.7,7.7h-95.9
				C1527.3,221.7,1523.9,218.3,1523.9,214.1z"/>
			<path class="st2" d="M1566,144.9h27c4.2,0,7.7,3.4,7.7,7.7v95.9c0,4.2-3.4,7.7-7.7,7.7h-27c-4.2,0-7.7-3.4-7.7-7.7v-95.9
				C1558.3,148.4,1561.8,144.9,1566,144.9z"/>
		</g>
		<polygon class="st1" points="1751.8,250.1 1740.4,229.9 1763.2,229.9 		"/>
		<g>
			<path class="st2" d="M1807.4,187.1v27c0,4.2-3.4,7.7-7.7,7.7h-95.9c-4.2,0-7.7-3.4-7.7-7.7v-27c0-4.2,3.4-7.7,7.7-7.7h95.9
				C1804,179.4,1807.4,182.8,1807.4,187.1z"/>
			<path class="st2" d="M1765.3,256.2h-27c-4.2,0-7.7-3.4-7.7-7.7v-95.9c0-4.2,3.4-7.7,7.7-7.7h27c4.2,0,7.7,3.4,7.7,7.7v95.9
				C1773,252.8,1769.5,256.2,1765.3,256.2z"/>
		</g>
		<polygon class="st1" points="1623.4,323.9 1603.2,335.3 1603.2,312.5 		"/>
		<g>
			<path class="st2" d="M1560.3,268.3h27c4.2,0,7.7,3.4,7.7,7.7v95.9c0,4.2-3.4,7.7-7.7,7.7h-27c-4.2,0-7.7-3.4-7.7-7.7v-95.9
				C1552.7,271.7,1556.1,268.3,1560.3,268.3z"/>
			<path class="st2" d="M1629.5,310.4v27c0,4.2-3.4,7.7-7.7,7.7h-95.9c-4.2,0-7.7-3.4-7.7-7.7v-27c0-4.2,3.4-7.7,7.7-7.7h95.9
				C1626,302.7,1629.5,306.1,1629.5,310.4z"/>
		</g>
		<polygon class="st1" points="1704.8,323.9 1725,312.5 1725,335.3 		"/>
		<g>
			<path class="st2" d="M1767.8,379.5h-27c-4.2,0-7.7-3.4-7.7-7.7v-95.9c0-4.2,3.4-7.7,7.7-7.7h27c4.2,0,7.7,3.4,7.7,7.7v95.9
				C1775.5,376.1,1772.1,379.5,1767.8,379.5z"/>
			<path class="st2" d="M1698.7,337.4v-27c0-4.2,3.4-7.7,7.7-7.7h95.9c4.2,0,7.7,3.4,7.7,7.7v27c0,4.2-3.4,7.7-7.7,7.7h-95.9
				C1702.1,345.1,1698.7,341.6,1698.7,337.4z"/>
		</g>
	</g>
	<g>
		<path class="st1" d="M221.2,993.4c12.4,0,22.5,10.1,22.5,22.5v40.7c0,12.4-10.1,22.5-22.5,22.5h0c-12.4,0-22.5-10.1-22.5-22.5
			v-40.7C198.7,1003.5,208.8,993.4,221.2,993.4L221.2,993.4 M221.2,989.4c-14.6,0-26.5,11.9-26.5,26.5v40.7
			c0,14.6,11.9,26.5,26.5,26.5c14.6,0,26.5-11.9,26.5-26.5v-40.7C247.7,1001.3,235.8,989.4,221.2,989.4L221.2,989.4z"/>
	</g>
	<g>
		<path class="st1" d="M189.1,983.2c-0.9-0.9-1.3-2.2-1.3-3.9v-11c0-1.7,0.4-3,1.3-3.9c0.9-0.9,2.1-1.4,3.7-1.4s2.9,0.5,3.7,1.4
			c0.9,0.9,1.3,2.2,1.3,3.9v11c0,1.7-0.4,3-1.3,3.9c-0.9,0.9-2.1,1.4-3.7,1.4S189.9,984.1,189.1,983.2z M194.5,979.5v-11.4
			c0-1.4-0.6-2.1-1.7-2.1s-1.7,0.7-1.7,2.1v11.4c0,1.4,0.6,2.1,1.7,2.1S194.5,980.9,194.5,979.5z"/>
		<path class="st1" d="M200.8,963.3h4.9c1.6,0,2.9,0.4,3.7,1.3c0.8,0.9,1.2,2.2,1.2,3.9v2.1c0,1.7-0.4,3-1.2,3.9
			c-0.8,0.9-2,1.3-3.7,1.3h-1.6v8.5h-3.3V963.3z M205.6,972.7c0.5,0,0.9-0.1,1.2-0.4c0.3-0.3,0.4-0.8,0.4-1.5v-2.5
			c0-0.7-0.1-1.2-0.4-1.5c-0.3-0.3-0.7-0.4-1.2-0.4h-1.6v6.4H205.6z"/>
		<path class="st1" d="M215.7,966.3h-3.4v-3h10.2v3H219v18h-3.3V966.3z"/>
		<path class="st1" d="M224.8,963.3h3.3v21h-3.3V963.3z"/>
		<path class="st1" d="M232.3,983.2c-0.9-0.9-1.3-2.2-1.3-3.9v-11c0-1.7,0.4-3,1.3-3.9c0.9-0.9,2.1-1.4,3.7-1.4s2.9,0.5,3.7,1.4
			c0.9,0.9,1.3,2.2,1.3,3.9v11c0,1.7-0.4,3-1.3,3.9c-0.9,0.9-2.1,1.4-3.7,1.4S233.2,984.1,232.3,983.2z M237.8,979.5v-11.4
			c0-1.4-0.6-2.1-1.7-2.1s-1.7,0.7-1.7,2.1v11.4c0,1.4,0.6,2.1,1.7,2.1S237.8,980.9,237.8,979.5z"/>
		<path class="st1" d="M244,963.3h4.1l3.2,12.6h0.1v-12.6h2.9v21H251l-4-15.3H247v15.3H244V963.3z"/>
	</g>
	<g>
		<path class="st1" d="M342.8,993.4c12.4,0,22.5,10.1,22.5,22.5v40.7c0,12.4-10.1,22.5-22.5,22.5h0c-12.4,0-22.5-10.1-22.5-22.5
			v-40.7C320.3,1003.5,330.4,993.4,342.8,993.4L342.8,993.4 M342.8,989.4c-14.6,0-26.5,11.9-26.5,26.5v40.7
			c0,14.6,11.9,26.5,26.5,26.5c14.6,0,26.5-11.9,26.5-26.5v-40.7C369.3,1001.3,357.4,989.4,342.8,989.4L342.8,989.4z"/>
	</g>
	<g>
		<path class="st1" d="M313.9,983.2c-0.8-0.9-1.2-2.2-1.2-3.9v-1.2h3.1v1.4c0,1.4,0.6,2,1.7,2c0.6,0,1-0.2,1.3-0.5
			c0.3-0.3,0.4-0.9,0.4-1.6c0-0.9-0.2-1.7-0.6-2.3c-0.4-0.7-1.1-1.5-2.2-2.4c-1.4-1.2-2.3-2.3-2.8-3.3c-0.5-1-0.8-2.1-0.8-3.3
			c0-1.7,0.4-2.9,1.3-3.9c0.8-0.9,2.1-1.4,3.7-1.4c1.6,0,2.8,0.5,3.6,1.4c0.8,0.9,1.2,2.2,1.2,3.9v0.9h-3.1v-1.1
			c0-0.7-0.1-1.2-0.4-1.6c-0.3-0.3-0.7-0.5-1.2-0.5c-1.1,0-1.6,0.7-1.6,2c0,0.8,0.2,1.5,0.6,2.1c0.4,0.7,1.2,1.5,2.2,2.4
			c1.4,1.2,2.3,2.3,2.8,3.3s0.8,2.1,0.8,3.4c0,1.7-0.4,3-1.3,4c-0.8,0.9-2.1,1.4-3.7,1.4C315.9,984.6,314.7,984.1,313.9,983.2z"/>
		<path class="st1" d="M325.1,963.3h3.3v8.5h3.5v-8.5h3.3v21h-3.3v-9.4h-3.5v9.4h-3.3V963.3z"/>
		<path class="st1" d="M341,963.3h4.5l3.4,21h-3.3l-0.6-4.2v0.1h-3.7l-0.6,4.1h-3.1L341,963.3z M344.6,977.3l-1.5-10.4H343
			l-1.4,10.4H344.6z"/>
		<path class="st1" d="M351.2,963.3h4.9c1.7,0,2.9,0.4,3.7,1.2s1.2,2,1.2,3.6v1.3c0,2.2-0.7,3.6-2.2,4.1v0.1
			c0.8,0.2,1.4,0.7,1.7,1.5c0.3,0.7,0.5,1.7,0.5,3v3.7c0,0.6,0,1.1,0.1,1.5c0,0.4,0.1,0.7,0.3,1.1H358c-0.1-0.3-0.2-0.7-0.2-1
			c0-0.3-0.1-0.8-0.1-1.6v-3.8c0-1-0.2-1.6-0.5-2c-0.3-0.4-0.8-0.6-1.6-0.6h-1.1v9h-3.3V963.3z M355.7,972.3c0.7,0,1.2-0.2,1.5-0.5
			c0.3-0.3,0.5-0.9,0.5-1.7v-1.6c0-0.8-0.1-1.3-0.4-1.6s-0.7-0.5-1.3-0.5h-1.5v6H355.7z"/>
		<path class="st1" d="M364,963.3h9v3h-5.7v5.5h4.5v3h-4.5v6.4h5.7v3h-9V963.3z"/>
	</g>
	<rect x="191.8" y="863.1" class="st1" width="63.8" height="11.3"/>
	<rect x="191.8" y="844.1" class="st1" width="63.8" height="11.3"/>
	<rect x="191.8" y="825.1" class="st1" width="63.8" height="11.3"/>
	<g>
		<g>
			<path class="st1" d="M381.7,791.2c0.6,0,1.3,0,1.9,0c30.7,1,55.6,26,56.6,56.6c1,33.2-25.6,60.5-58.6,60.5c-0.6,0-1.3,0-1.9,0
				c-30.7-1-55.6-26-56.6-56.6C322.1,818.4,348.7,791.2,381.7,791.2 M381.7,787.2c-17.1,0-33.1,6.8-44.9,19
				c-11.9,12.3-18.1,28.5-17.6,45.6c0.5,15.8,7,30.8,18.3,42.1c11.3,11.3,26.3,17.8,42.1,18.4c0.7,0,1.4,0,2,0
				c17.1,0,33.1-6.8,45-19c11.9-12.3,18.1-28.5,17.6-45.6c-1.1-32.9-27.6-59.4-60.5-60.5C383.1,787.2,382.4,787.2,381.7,787.2
				L381.7,787.2z"/>
		</g>
		<polygon class="st1" points="402.1,823 402.1,835.5 394.3,835.5 394.3,831.6 353.2,831.6 353.2,854.1 357.5,854.1 357.5,862.5 
			344.9,862.5 344.9,823 		"/>
		<path class="st1" d="M361.8,838.7v38.9h57.9v-38.9H361.8z M411.4,869.6h-41.3v-22.8h41.3V869.6z"/>
	</g>
	<g>
		<polygon class="st3" points="635.8,865.2 629,865.2 629,908.3 646.9,908.3 646.9,902.1 635.8,902.1 		"/>
		<g>
			<path class="st1" d="M636.7,835.9c28.9,0,52.3,23.4,52.3,52.4c0,28.9-23.4,52.3-52.3,52.3c-28.9,0-52.4-23.4-52.4-52.3
				C584.3,859.4,607.8,835.9,636.7,835.9 M629,908.3h17.9v-6.1h-11.1v-36.9H629V908.3 M636.7,831.9c-31.1,0-56.4,25.3-56.4,56.4
				c0,31.1,25.3,56.3,56.4,56.3c31.1,0,56.3-25.3,56.3-56.3C693,857.2,667.8,831.9,636.7,831.9L636.7,831.9z"/>
		</g>
		<g>
			<path class="st1" d="M661.8,797.8L661.8,797.8 M661.8,797.8l-25.1,32l-25.1-32H661.8 M661.8,793.8L661.8,793.8h-50.2
				c-1.5,0-2.9,0.9-3.6,2.2c-0.7,1.4-0.5,3,0.4,4.2l25.1,32c0.8,1,1.9,1.5,3.1,1.5c1.2,0,2.4-0.6,3.1-1.5l25-31.9
				c0.6-0.7,0.9-1.6,0.9-2.5C665.8,795.6,664,793.8,661.8,793.8L661.8,793.8z M661.8,801.8L661.8,801.8L661.8,801.8L661.8,801.8z"/>
		</g>
		<polygon class="st1" points="646.9,902.1 646.9,908.3 629,908.3 629,865.2 635.8,865.2 635.8,902.1 		"/>
	</g>
	<g>
		<polygon class="st3" points="843.3,827.1 836.6,827.1 836.6,870.2 854.5,870.2 854.5,864 843.3,864 		"/>
		<g>
			<path class="st1" d="M844.6,797.8c28.9,0,52.4,23.4,52.4,52.3c0,28.9-23.4,52.4-52.4,52.4c-28.9,0-52.3-23.4-52.3-52.4
				C792.3,821.3,815.7,797.8,844.6,797.8 M836.6,870.2h17.9V864h-11.1v-36.9h-6.8V870.2 M844.6,793.8c-31.1,0-56.3,25.3-56.3,56.3
				c0,31.1,25.3,56.4,56.3,56.4c31.1,0,56.4-25.3,56.4-56.4C901,819.1,875.7,793.8,844.6,793.8L844.6,793.8z"/>
		</g>
		<g>
			<path class="st1" d="M844.6,908.6l25.1,32h-50.2L844.6,908.6 M844.6,904.6c-1.2,0-2.4,0.6-3.1,1.5l-25.1,32
				c-0.9,1.2-1.1,2.8-0.4,4.2s2.1,2.2,3.6,2.2h50.2c1.5,0,2.9-0.9,3.6-2.2c0.7-1.4,0.5-3-0.4-4.2l-25.1-32
				C847,905.2,845.9,904.6,844.6,904.6L844.6,904.6z"/>
		</g>
		<polygon class="st1" points="854.5,864 854.5,870.2 836.6,870.2 836.6,827.1 843.3,827.1 843.3,864 		"/>
	</g>
	<g>
		<polygon class="st3" points="1072.5,842.6 1065.8,842.6 1065.8,885.6 1083.7,885.6 1083.7,879.4 1072.5,879.4 		"/>
		<g>
			<path class="st1" d="M1073.8,813.3c28.9,0,52.3,23.4,52.3,52.3c0,28.9-23.4,52.4-52.3,52.4c-28.9,0-52.4-23.4-52.4-52.4
				C1021.5,836.7,1044.9,813.3,1073.8,813.3 M1065.8,885.6h17.9v-6.2h-11.1v-36.9h-6.8V885.6 M1073.8,809.3
				c-31.1,0-56.4,25.3-56.4,56.3c0,31.1,25.3,56.4,56.4,56.4c31.1,0,56.3-25.3,56.3-56.4C1130.2,834.5,1104.9,809.3,1073.8,809.3
				L1073.8,809.3z"/>
		</g>
		<g>
			<path class="st1" d="M983.4,840.5l32,25.1l-32,25.1V840.5 M983.4,836.5c-0.6,0-1.2,0.1-1.7,0.4c-1.4,0.7-2.2,2.1-2.2,3.6v50.2
				c0,1.5,0.9,2.9,2.2,3.6c0.6,0.3,1.2,0.4,1.7,0.4c0.9,0,1.8-0.3,2.5-0.9l32-25.1c1-0.8,1.5-1.9,1.5-3.1s-0.6-2.4-1.5-3.1l-32-25.1
				C985.1,836.8,984.3,836.5,983.4,836.5L983.4,836.5z"/>
		</g>
		<polygon class="st1" points="1083.7,879.4 1083.7,885.6 1065.8,885.6 1065.8,842.6 1072.5,842.6 1072.5,879.4 		"/>
	</g>
	<g>
		<polygon class="st3" points="1231.5,842.6 1224.7,842.6 1224.7,885.6 1242.6,885.6 1242.6,879.4 1231.5,879.4 		"/>
		<g>
			<path class="st1" d="M1232.8,813.3c28.9,0,52.4,23.4,52.4,52.3c0,28.9-23.4,52.4-52.4,52.4c-28.9,0-52.3-23.4-52.3-52.4
				C1180.4,836.7,1203.9,813.3,1232.8,813.3 M1224.7,885.6h17.9v-6.2h-11.1v-36.9h-6.8V885.6 M1232.8,809.3
				c-31.1,0-56.3,25.3-56.3,56.3c0,31.1,25.3,56.4,56.3,56.4c31.1,0,56.4-25.3,56.4-56.4C1289.1,834.5,1263.8,809.3,1232.8,809.3
				L1232.8,809.3z"/>
		</g>
		<g>
			<path class="st1" d="M1323.2,840.5v50.2l-32-25.1L1323.2,840.5 M1323.2,836.5c-0.9,0-1.8,0.3-2.5,0.9l-32,25.1
				c-1,0.8-1.5,1.9-1.5,3.1s0.6,2.4,1.5,3.1l32,25.1c0.7,0.6,1.6,0.9,2.5,0.9c0.6,0,1.2-0.1,1.7-0.4c1.4-0.7,2.2-2.1,2.2-3.6v-50.2
				c0-1.5-0.9-2.9-2.2-3.6C1324.4,836.6,1323.8,836.5,1323.2,836.5L1323.2,836.5z"/>
		</g>
		<polygon class="st1" points="1242.6,879.4 1242.6,885.6 1224.7,885.6 1224.7,842.6 1231.5,842.6 1231.5,879.4 		"/>
	</g>
	<g>
		<g>
			<path class="st1" d="M636.7,1066.3c28.9,0,52.3,23.4,52.3,52.3c0,28.9-23.4,52.4-52.3,52.4c-28.9,0-52.4-23.4-52.4-52.4
				C584.3,1089.8,607.8,1066.3,636.7,1066.3 M636.7,1062.3c-31.1,0-56.4,25.3-56.4,56.3c0,31.1,25.3,56.4,56.4,56.4
				c31.1,0,56.3-25.3,56.3-56.4C693,1087.6,667.8,1062.3,636.7,1062.3L636.7,1062.3z"/>
		</g>
		<g>
			<path class="st1" d="M661.8,1028.2L661.8,1028.2 M661.8,1028.2l-25.1,32l-25.1-32H661.8 M661.8,1024.2L661.8,1024.2h-50.2
				c-1.5,0-2.9,0.9-3.6,2.2c-0.7,1.4-0.5,3,0.4,4.2l25.1,32c0.8,1,1.9,1.5,3.1,1.5c1.2,0,2.4-0.6,3.1-1.5l25-31.9
				c0.6-0.7,0.9-1.6,0.9-2.5C665.8,1026,664,1024.2,661.8,1024.2L661.8,1024.2z M661.8,1032.2L661.8,1032.2L661.8,1032.2
				L661.8,1032.2z"/>
		</g>
		<path class="st1" d="M647.4,1136.4c-0.1-0.8-0.1-1.8-0.1-3v-7.6c0-2.5-0.3-4.6-1-6.1c-0.7-1.5-1.8-2.5-3.5-3v-0.1
			c3-1.2,4.4-4,4.4-8.5v-2.6c0-3.4-0.8-5.8-2.4-7.5c-1.6-1.6-4.1-2.4-7.6-2.4h-10v43h6.8v-18.4h2.3c1.5,0,2.7,0.4,3.3,1.2
			c0.6,0.8,1,2.2,1,4.1v7.9c0,1.6,0,2.7,0.1,3.3c0.1,0.6,0.3,1.3,0.5,2h6.9C647.7,1137.9,647.5,1137.2,647.4,1136.4z M640.5,1109.5
			c0,1.6-0.3,2.8-1,3.5c-0.7,0.7-1.7,1-3,1H634v-12.3h3.1c1.2,0,2.1,0.3,2.6,1c0.5,0.7,0.8,1.8,0.8,3.4V1109.5z"/>
	</g>
	<g>
		<g>
			<path class="st1" d="M844.6,1028.2c28.9,0,52.4,23.4,52.4,52.3s-23.4,52.3-52.4,52.3c-28.9,0-52.3-23.4-52.3-52.3
				S815.7,1028.2,844.6,1028.2 M844.6,1024.2c-31.1,0-56.3,25.3-56.3,56.3s25.3,56.3,56.3,56.3c31.1,0,56.4-25.3,56.4-56.3
				S875.7,1024.2,844.6,1024.2L844.6,1024.2z"/>
		</g>
		<g>
			<path class="st1" d="M844.6,1139l25.1,32h-50.2L844.6,1139 M844.6,1135c-1.2,0-2.4,0.6-3.1,1.5l-25.1,32
				c-0.9,1.2-1.1,2.8-0.4,4.2s2.1,2.2,3.6,2.2h50.2c1.5,0,2.9-0.9,3.6-2.2c0.7-1.4,0.5-3-0.4-4.2l-25.1-32
				C847,1135.6,845.9,1135,844.6,1135L844.6,1135z"/>
		</g>
		<path class="st1" d="M855,1098.3c-0.1-0.8-0.1-1.8-0.1-3v-7.6c0-2.5-0.3-4.6-1-6.1c-0.7-1.5-1.8-2.5-3.5-3v-0.1
			c3-1.2,4.4-4,4.4-8.5v-2.6c0-3.4-0.8-5.9-2.4-7.5c-1.6-1.6-4.1-2.4-7.6-2.4h-10v43h6.8v-18.4h2.3c1.6,0,2.7,0.4,3.3,1.2
			c0.6,0.8,1,2.1,1,4.1v7.9c0,1.6,0,2.7,0.1,3.3c0.1,0.6,0.2,1.3,0.5,2h6.9C855.3,1099.8,855.1,1099.1,855,1098.3z M848,1071.4
			c0,1.6-0.3,2.8-1,3.5c-0.7,0.7-1.7,1.1-3,1.1h-2.5v-12.3h3.1c1.2,0,2.1,0.4,2.6,1c0.6,0.7,0.8,1.8,0.8,3.4V1071.4z"/>
	</g>
	<g>
		<g>
			<path class="st1" d="M1073.8,1043.6c28.9,0,52.3,23.4,52.3,52.4c0,28.9-23.4,52.3-52.3,52.3c-28.9,0-52.4-23.4-52.4-52.3
				C1021.5,1067.1,1044.9,1043.6,1073.8,1043.6 M1073.8,1039.6c-31.1,0-56.4,25.3-56.4,56.4s25.3,56.3,56.4,56.3
				c31.1,0,56.3-25.3,56.3-56.3S1104.9,1039.6,1073.8,1039.6L1073.8,1039.6z"/>
		</g>
		<g>
			<path class="st1" d="M983.4,1070.9l32,25.1l-32,25.1V1070.9 M983.4,1066.9c-0.6,0-1.2,0.1-1.7,0.4c-1.4,0.7-2.2,2.1-2.2,3.6v50.2
				c0,1.5,0.9,2.9,2.2,3.6c0.6,0.3,1.2,0.4,1.7,0.4c0.9,0,1.8-0.3,2.5-0.9l32-25.1c1-0.8,1.5-1.9,1.5-3.1s-0.6-2.4-1.5-3.1l-32-25.1
				C985.1,1067.2,984.3,1066.9,983.4,1066.9L983.4,1066.9z"/>
		</g>
		<path class="st1" d="M1081.9,1113.7c-0.1-0.8-0.1-1.8-0.1-3v-7.6c0-2.5-0.3-4.6-1-6.1c-0.7-1.5-1.8-2.5-3.5-3v-0.1
			c2.9-1.2,4.4-4,4.4-8.5v-2.6c0-3.4-0.8-5.9-2.4-7.5c-1.6-1.6-4.1-2.4-7.6-2.4h-10v43h6.8v-18.4h2.3c1.6,0,2.6,0.4,3.3,1.2
			c0.6,0.8,0.9,2.2,0.9,4.1v7.9c0,1.6,0,2.7,0.1,3.3s0.3,1.3,0.5,2h6.9C1082.1,1115.2,1081.9,1114.5,1081.9,1113.7z M1074.9,1086.8
			c0,1.6-0.3,2.8-1,3.5c-0.7,0.7-1.7,1-3.1,1h-2.4v-12.3h3.1c1.2,0,2.1,0.3,2.6,1c0.6,0.7,0.8,1.8,0.8,3.4V1086.8z"/>
	</g>
	<g>
		<g>
			<path class="st1" d="M1232.8,1043.6c28.9,0,52.4,23.4,52.4,52.4c0,28.9-23.4,52.3-52.4,52.3c-28.9,0-52.3-23.4-52.3-52.3
				C1180.4,1067.1,1203.9,1043.6,1232.8,1043.6 M1232.8,1039.6c-31.1,0-56.3,25.3-56.3,56.4s25.3,56.3,56.3,56.3
				c31.1,0,56.4-25.3,56.4-56.3S1263.8,1039.6,1232.8,1039.6L1232.8,1039.6z"/>
		</g>
		<g>
			<path class="st1" d="M1323.2,1070.9v50.2l-32-25.1L1323.2,1070.9 M1323.2,1066.9c-0.9,0-1.8,0.3-2.5,0.9l-32,25.1
				c-1,0.8-1.5,1.9-1.5,3.1s0.6,2.4,1.5,3.1l32,25.1c0.7,0.6,1.6,0.9,2.5,0.9c0.6,0,1.2-0.1,1.7-0.4c1.4-0.7,2.2-2.1,2.2-3.6v-50.2
				c0-1.5-0.9-2.9-2.2-3.6C1324.4,1067,1323.8,1066.9,1323.2,1066.9L1323.2,1066.9z"/>
		</g>
		<path class="st1" d="M1243.1,1116.4c-0.1-0.8-0.1-1.8-0.1-3v-7.6c0-2.5-0.3-4.6-1-6.1c-0.7-1.5-1.8-2.5-3.5-3v-0.1
			c2.9-1.2,4.4-4,4.4-8.5v-2.6c0-3.4-0.8-5.9-2.4-7.5c-1.6-1.6-4.1-2.4-7.6-2.4h-10v43h6.8v-18.4h2.3c1.6,0,2.7,0.4,3.3,1.2
			c0.6,0.8,1,2.2,1,4.1v7.9c0,1.6,0,2.7,0.1,3.3c0.1,0.6,0.3,1.3,0.5,2h6.9C1243.4,1117.9,1243.2,1117.2,1243.1,1116.4z
			 M1236.2,1089.5c0,1.6-0.3,2.8-1,3.5c-0.7,0.7-1.7,1-3,1h-2.5v-12.3h3.1c1.2,0,2.1,0.4,2.6,1.1c0.5,0.7,0.8,1.8,0.8,3.4V1089.5z"
			/>
	</g>
	<g>
		<g>
			<path class="st1" d="M1625.1,813.3c32.3,0,58.5,26.2,58.5,58.4c0,32.3-26.2,58.5-58.5,58.5c-32.3,0-58.5-26.2-58.5-58.5
				C1566.6,839.4,1592.8,813.3,1625.1,813.3 M1625.1,809.3c-34.4,0-62.5,28-62.5,62.4c0,34.4,28,62.5,62.5,62.5
				c34.4,0,62.5-28,62.5-62.5C1687.5,837.3,1659.5,809.3,1625.1,809.3L1625.1,809.3z"/>
		</g>
		<g>
			<path class="st1" d="M1624.8,853.6l3.9,27.5h-7.9l3.8-27.5H1624.8 M1624.8,849.6h-0.2c-2,0-3.7,1.5-4,3.5l-3.8,27.5
				c-0.2,1.1,0.2,2.3,0.9,3.2c0.8,0.9,1.9,1.4,3,1.4h7.9c1.2,0,2.3-0.5,3-1.4c0.8-0.9,1.1-2,0.9-3.2l-3.9-27.5
				C1628.5,851,1626.8,849.6,1624.8,849.6L1624.8,849.6z"/>
		</g>
		<path class="st1" d="M1631,843.9h-11.8l-9.1,55.7h8.1l1.6-10.9h9.9v-0.2l1.6,11.1h8.8L1631,843.9z M1620.8,881.1l3.8-27.5h0.2
			l3.9,27.5H1620.8z"/>
	</g>
	<g>
		<g>
			<path class="st1" d="M1784.5,813.3c32.3,0,58.5,26.2,58.5,58.4c0,32.3-26.2,58.4-58.5,58.4c-32.3,0-58.5-26.2-58.5-58.4
				C1726,839.4,1752.2,813.3,1784.5,813.3 M1784.5,809.3c-34.4,0-62.5,28-62.5,62.4s28,62.4,62.5,62.4s62.5-28,62.5-62.4
				S1818.9,809.3,1784.5,809.3L1784.5,809.3z"/>
		</g>
		<g>
			<path class="st1" d="M1783.9,851.8c1.5,0,2.7,0.5,3.4,1.3c0.7,0.9,1.1,2.4,1.1,4.4v3.1c0,2.1-0.4,3.6-1.3,4.5
				c-0.9,0.9-2.2,1.4-3.9,1.4h-3.4v-14.7H1783.9 M1783.9,847.8h-4.2c-2.2,0-4,1.8-4,4v14.7c0,2.2,1.8,4,4,4h3.4
				c3.6,0,5.7-1.4,6.8-2.6c1.6-1.7,2.4-4.1,2.4-7.3v-3.1c0-3-0.6-5.2-1.9-6.9C1789.4,849.4,1787.4,847.8,1783.9,847.8L1783.9,847.8z
				"/>
		</g>
		<g>
			<path class="st1" d="M1783.6,874.5c2,0,3.5,0.5,4.3,1.5c0.9,1,1.3,2.7,1.3,5.3v4.8c0,2-0.4,3.4-1.1,4.3s-1.9,1.2-3.4,1.2h-5
				v-17.1H1783.6 M1783.6,870.5h-3.9c-2.2,0-4,1.8-4,4v17.1c0,2.2,1.8,4,4,4h5c3.4,0,5.3-1.4,6.4-2.6c1.4-1.6,2.2-3.9,2.2-6.9v-4.8
				c0-3.6-0.8-6.2-2.3-7.9C1789.2,871.4,1786.8,870.5,1783.6,870.5L1783.6,870.5z"/>
		</g>
		<path class="st1" d="M1791.5,869.9v-0.1c1.9-0.8,3.3-2.1,4.3-3.9c0.9-1.8,1.4-4.1,1.4-7v-2.2c0-4.3-1-7.6-3.1-9.7
			c-2.1-2.1-5.4-3.2-9.9-3.2H1771v55.7h13.8c4.4,0,7.7-1.1,9.9-3.4s3.4-5.5,3.4-9.8v-4.8C1798,875.3,1795.8,871.4,1791.5,869.9z
			 M1779.7,851.8h4.2c1.5,0,2.7,0.5,3.4,1.3c0.7,0.9,1.1,2.4,1.1,4.4v3.1c0,2.1-0.4,3.6-1.3,4.5c-0.9,0.9-2.2,1.4-3.9,1.4h-3.4
			V851.8z M1789.3,886.1c0,2-0.4,3.4-1.1,4.3s-1.9,1.2-3.4,1.2h-5v-17.1h3.9c2,0,3.5,0.5,4.3,1.5c0.9,1,1.3,2.7,1.3,5.3V886.1z"/>
	</g>
	<g>
		<g>
			<path class="st1" d="M1625.1,973.4c32.3,0,58.4,26.2,58.4,58.5c0,32.3-26.2,58.5-58.4,58.5c-32.3,0-58.5-26.2-58.5-58.5
				C1566.6,999.5,1592.8,973.4,1625.1,973.4 M1625.1,969.4c-34.4,0-62.5,28-62.5,62.5s28,62.5,62.5,62.5c34.4,0,62.4-28,62.4-62.5
				S1659.5,969.4,1625.1,969.4L1625.1,969.4z"/>
		</g>
		<polygon class="st1" points="1640,1004 1629.4,1036 1629.4,1059.7 1620.7,1059.7 1620.7,1036 1610.1,1004 1619.4,1004 
			1625.4,1024.4 1625.5,1024.4 1631.5,1004 		"/>
	</g>
	<g>
		<g>
			<path class="st1" d="M1784.5,973.4c32.3,0,58.5,26.2,58.5,58.5c0,32.3-26.2,58.5-58.5,58.5c-32.3,0-58.5-26.2-58.5-58.5
				C1726,999.5,1752.2,973.4,1784.5,973.4 M1784.5,969.4c-34.4,0-62.5,28-62.5,62.5s28,62.5,62.5,62.5s62.5-28,62.5-62.5
				S1818.9,969.4,1784.5,969.4L1784.5,969.4z"/>
		</g>
		<polygon class="st1" points="1799.8,1059.7 1790.5,1059.7 1784.2,1040.3 1784,1040.3 1777.5,1059.7 1769.2,1059.7 1779.3,1031.2 
			1769.7,1004 1778.9,1004 1784.8,1022 1784.9,1022 1791,1004 1799.3,1004 1789.7,1031.2 		"/>
	</g>
</g>
</svg>
