<?xml version="1.0" encoding="utf-8"?>
<!-- Generator: Adobe Illustrator 22.1.0, SVG Export Plug-In . SVG Version: 6.00 Build 0)  -->
<svg version="1.1" id="Layer_1" xmlns="http://www.w3.org/2000/svg" xmlns:xlink="http://www.w3.org/1999/xlink" x="0px" y="0px"
	 viewBox="0 0 2000 1350" style="enable-background:new 0 0 2000 1350;" xml:space="preserve">
<style type="text/css">
	.st0{fill:none;stroke:#000000;stroke-width:1.0722;stroke-miterlimit:10;}
	.st1{font-family:'BebasNeue-Regular';}
	.st2{font-size:29.964px;}
</style>
<path d="M199.8,215.4h-2.6V204h3.3c1.2,0,2.1,0.3,2.6,1c0.6,0.7,0.8,1.8,0.8,3.4v2.4c0,1.6-0.3,2.8-1,3.5
	C202.1,215,201.1,215.4,199.8,215.4z"/>
<path d="M203.5,222.6c0.7,0.8,1,2.1,1,4.1v3.8c0,1.6-0.3,2.6-0.9,3.3c-0.6,0.6-1.5,1-2.6,1h-3.9v-13.2h3
	C201.7,221.5,202.8,221.9,203.5,222.6z"/>
<path d="M124.4,180.4v81h126v-81H124.4z M182.5,240.9h-17.9v-43h6.8v36.9h11.1V240.9z M211.3,230.7c0,3.3-0.9,5.9-2.6,7.6
	c-1.7,1.7-4.3,2.6-7.7,2.6h-10.6v-43h10.2c3.5,0,6,0.8,7.6,2.4c1.6,1.6,2.4,4.1,2.4,7.5v1.7c0,2.2-0.4,4-1.1,5.4
	c-0.7,1.4-1.8,2.4-3.3,3v0.1c3.4,1.1,5.1,4.1,5.1,9V230.7z"/>
<path d="M381,215.4h-2.6V204h3.3c1.2,0,2.1,0.3,2.6,1c0.5,0.7,0.8,1.8,0.8,3.4v2.4c0,1.6-0.3,2.8-1,3.5
	C383.4,215,382.3,215.4,381,215.4z"/>
<path d="M384.7,222.6c0.7,0.8,1,2.1,1,4.1v3.8c0,1.6-0.3,2.6-0.9,3.3c-0.6,0.6-1.5,1-2.6,1h-3.9v-13.2h3
	C382.9,221.5,384,221.9,384.7,222.6z"/>
<path d="M354.7,205c-0.5-0.7-1.4-1-2.6-1H349v12.3h2.5c1.4,0,2.4-0.3,3-1c0.7-0.7,1-1.9,1-3.5v-3.3
	C355.5,206.8,355.2,205.7,354.7,205z M354.7,205c-0.5-0.7-1.4-1-2.6-1H349v12.3h2.5c1.4,0,2.4-0.3,3-1c0.7-0.7,1-1.9,1-3.5v-3.3
	C355.5,206.8,355.2,205.7,354.7,205z M303.8,180.4v81h126v-81H303.8z M356.2,240.9c-0.2-0.7-0.4-1.4-0.5-2c-0.1-0.6-0.1-1.7-0.1-3.3
	v-7.9c0-2-0.3-3.3-1-4.1c-0.6-0.8-1.7-1.2-3.3-1.2H349v18.4h-6.8v-43h10c3.5,0,6,0.8,7.6,2.4c1.6,1.6,2.4,4.1,2.4,7.5v2.6
	c0,4.5-1.5,7.3-4.4,8.5v0.1c1.6,0.5,2.8,1.5,3.5,3c0.7,1.5,1,3.5,1,6.1v7.6c0,1.2,0,2.2,0.1,3c0.1,0.8,0.3,1.5,0.6,2.2H356.2z
	 M392.5,230.7c0,3.3-0.9,5.9-2.6,7.6c-1.7,1.7-4.3,2.6-7.7,2.6h-10.6v-43h10.2c3.5,0,6,0.8,7.6,2.4s2.4,4.1,2.4,7.5v1.7
	c0,2.2-0.4,4-1.1,5.4c-0.7,1.4-1.8,2.4-3.3,3v0.1c3.4,1.1,5,4.1,5,9V230.7z M352,204H349v12.3h2.5c1.4,0,2.4-0.3,3-1
	c0.7-0.7,1-1.9,1-3.5v-3.3c0-1.6-0.3-2.7-0.8-3.4C354.1,204.3,353.2,204,352,204z M354.7,205c-0.5-0.7-1.4-1-2.6-1H349v12.3h2.5
	c1.4,0,2.4-0.3,3-1c0.7-0.7,1-1.9,1-3.5v-3.3C355.5,206.8,355.2,205.7,354.7,205z M354.7,205c-0.5-0.7-1.4-1-2.6-1H349v12.3h2.5
	c1.4,0,2.4-0.3,3-1c0.7-0.7,1-1.9,1-3.5v-3.3C355.5,206.8,355.2,205.7,354.7,205z"/>
<path d="M124.4,286.6v81c42,18.8,84,18.8,126,0v-81H124.4z M186.1,352.4h-17.9v-43h6.8v36.9h11.1V352.4z M208.3,315.5h-7.1v36.9
	h-6.8v-36.9h-7.1v-6.2h20.9V315.5z"/>
<path d="M355.9,316.5c0.6,0.7,0.8,1.8,0.8,3.4v3.3c0,1.6-0.3,2.8-1,3.5c-0.7,0.7-1.7,1-3,1h-2.5v-12.3h3.1
	C354.5,315.5,355.4,315.8,355.9,316.5z"/>
<path d="M303.8,286.6v81c42,18.8,84,18.8,126,0v-81H303.8z M357.5,352.4c-0.2-0.7-0.4-1.4-0.5-2c-0.1-0.6-0.1-1.7-0.1-3.3v-7.9
	c0-2-0.3-3.3-0.9-4.1c-0.6-0.8-1.7-1.2-3.3-1.2h-2.3v18.4h-6.8v-43h10c3.5,0,6,0.8,7.6,2.4c1.6,1.6,2.4,4.1,2.4,7.5v2.6
	c0,4.5-1.5,7.3-4.4,8.5v0.1c1.6,0.5,2.8,1.5,3.5,3c0.7,1.5,1,3.5,1,6.1v7.6c0,1.2,0,2.2,0.1,3c0.1,0.8,0.3,1.5,0.6,2.2H357.5z
	 M391.9,315.5h-7.1v36.9h-6.8v-36.9H371v-6.2h20.9V315.5z"/>
<path d="M124.4,451.5v81h126v-81H124.4z M182.6,512h-17.9v-43h6.8v36.9h11.1V512z M206.7,512H200v-32.8h-7.1v-4.8
	c1.9,0,3.5-0.2,4.6-0.5c1.2-0.3,2.1-0.9,2.8-1.6c0.7-0.8,1.3-1.8,1.8-3.3h4.5V512z"/>
<path d="M354.8,476.2c0.5,0.7,0.8,1.8,0.8,3.4v3.3c0,1.6-0.3,2.8-1,3.5c-0.7,0.7-1.7,1.1-3,1.1h-2.5v-12.3h3.1
	C353.4,475.1,354.2,475.5,354.8,476.2z"/>
<path d="M303.8,451.5v81h126v-81H303.8z M356.3,512c-0.2-0.7-0.4-1.4-0.5-2c-0.1-0.6-0.1-1.7-0.1-3.3v-7.9c0-2-0.3-3.3-1-4.1
	c-0.6-0.8-1.7-1.2-3.3-1.2h-2.3V512h-6.8v-43h10c3.5,0,6,0.8,7.6,2.4c1.6,1.6,2.4,4.1,2.4,7.5v2.6c0,4.5-1.5,7.3-4.4,8.5v0.1
	c1.6,0.5,2.8,1.5,3.5,3c0.7,1.5,1,3.5,1,6.1v7.6c0,1.2,0,2.2,0.1,3c0.1,0.8,0.3,1.5,0.6,2.2H356.3z M387.9,512h-6.8v-32.8h-7.1v-4.8
	c1.9,0,3.5-0.2,4.6-0.5c1.2-0.3,2.1-0.9,2.8-1.6c0.7-0.8,1.3-1.8,1.8-3.3h4.6V512z"/>
<path d="M124.4,557.7v81c42,18.8,84,18.8,126,0v-81H124.4z M182.6,623.5h-17.9v-43h6.8v36.9h11.1V623.5z M209.9,617.4v6.1h-19.5
	v-4.7c0-3.1,0.5-5.7,1.5-7.9c1-2.2,2.7-4.6,5.3-7.3c2.5-2.7,4.2-4.9,5.2-6.8c1-1.9,1.4-3.8,1.4-5.9c0-1.8-0.3-3.1-0.9-3.8
	c-0.6-0.7-1.5-1.1-2.6-1.1c-2.3,0-3.5,1.4-3.5,4.2v4.6h-6.4v-4.2c0-3.5,0.9-6.2,2.6-8c1.7-1.9,4.2-2.8,7.5-2.8
	c3.3,0,5.8,0.9,7.5,2.8c1.7,1.9,2.6,4.5,2.6,8c0,2.6-0.6,5.2-1.9,7.7c-1.3,2.5-3.4,5.4-6.5,8.6c-2,2.1-3.4,3.9-4.1,5.2
	c-0.7,1.3-1,2.8-1,4.3v0.9H209.9z"/>
<path d="M354.8,587.7c0.5,0.7,0.8,1.8,0.8,3.4v3.3c0,1.6-0.3,2.8-1,3.5c-0.7,0.7-1.7,1.1-3,1.1h-2.5v-12.3h3.1
	C353.4,586.6,354.2,587,354.8,587.7z"/>
<path d="M303.8,557.7v81c42,18.8,84,18.8,126,0v-81H303.8z M356.3,623.5c-0.2-0.7-0.4-1.4-0.5-2c-0.1-0.6-0.1-1.7-0.1-3.3v-7.9
	c0-2-0.3-3.3-1-4.1c-0.6-0.8-1.7-1.2-3.3-1.2h-2.3v18.4h-6.8v-43h10c3.5,0,6,0.8,7.6,2.4c1.6,1.6,2.4,4.1,2.4,7.5v2.6
	c0,4.5-1.5,7.3-4.4,8.5v0.1c1.6,0.5,2.8,1.5,3.5,3c0.7,1.5,1,3.5,1,6.1v7.6c0,1.2,0,2.2,0.1,3c0.1,0.8,0.3,1.5,0.6,2.2H356.3z
	 M391.1,617.4v6.1h-19.5v-4.7c0-3.1,0.5-5.7,1.5-7.9c1-2.2,2.7-4.6,5.3-7.3c2.5-2.7,4.2-4.9,5.2-6.8c1-1.9,1.4-3.8,1.4-5.9
	c0-1.8-0.3-3.1-0.9-3.8c-0.6-0.7-1.5-1.1-2.6-1.1c-2.3,0-3.5,1.4-3.5,4.2v4.6h-6.4v-4.2c0-3.5,0.9-6.2,2.6-8
	c1.7-1.9,4.2-2.8,7.5-2.8s5.8,0.9,7.5,2.8c1.7,1.9,2.6,4.5,2.6,8c0,2.6-0.6,5.2-1.9,7.7c-1.2,2.5-3.4,5.4-6.5,8.6
	c-2,2.1-3.4,3.9-4.1,5.2c-0.7,1.3-1.1,2.8-1.1,4.3v0.9H391.1z"/>
<g>
	<path d="M637.1,172.1c-27.4,0-49.7,22.2-49.7,49.7c0,27.4,22.2,49.7,49.7,49.7c27.4,0,49.7-22.2,49.7-49.7
		C686.7,194.4,664.5,172.1,637.1,172.1z M646.9,240.6H629v-43h6.8v36.9h11.1V240.6z M637.1,161.7c-33.2,0-60,26.9-60,60
		c0,33.2,26.9,60,60,60c33.2,0,60-26.9,60-60C697.1,188.6,670.2,161.7,637.1,161.7z M637.1,275.1c-29.4,0-53.3-23.8-53.3-53.3
		c0-29.4,23.8-53.2,53.3-53.2c29.4,0,53.3,23.8,53.3,53.2C690.3,251.2,666.5,275.1,637.1,275.1z M637.1,172.1
		c-27.4,0-49.7,22.2-49.7,49.7c0,27.4,22.2,49.7,49.7,49.7c27.4,0,49.7-22.2,49.7-49.7C686.7,194.4,664.5,172.1,637.1,172.1z
		 M646.9,240.6H629v-43h6.8v36.9h11.1V240.6z"/>
	<path d="M637.1,172.1c-27.4,0-49.7,22.2-49.7,49.7c0,27.4,22.2,49.7,49.7,49.7c27.4,0,49.7-22.2,49.7-49.7
		C686.7,194.4,664.5,172.1,637.1,172.1z M646.9,240.6H629v-43h6.8v36.9h11.1V240.6z"/>
</g>
<g>
	<path d="M821.8,204.8c-0.5-0.7-1.4-1-2.6-1h-3.1V216h2.5c1.4,0,2.4-0.3,3-1c0.7-0.7,1-1.9,1-3.5v-3.3
		C822.6,206.6,822.3,205.5,821.8,204.8z M821.8,204.8c-0.5-0.7-1.4-1-2.6-1h-3.1V216h2.5c1.4,0,2.4-0.3,3-1c0.7-0.7,1-1.9,1-3.5
		v-3.3C822.6,206.6,822.3,205.5,821.8,204.8z M821.8,204.8c-0.5-0.7-1.4-1-2.6-1h-3.1V216h2.5c1.4,0,2.4-0.3,3-1
		c0.7-0.7,1-1.9,1-3.5v-3.3C822.6,206.6,822.3,205.5,821.8,204.8z M821.8,204.8c-0.5-0.7-1.4-1-2.6-1h-3.1V216h2.5
		c1.4,0,2.4-0.3,3-1c0.7-0.7,1-1.9,1-3.5v-3.3C822.6,206.6,822.3,205.5,821.8,204.8z M821.8,204.8c-0.5-0.7-1.4-1-2.6-1h-3.1V216
		h2.5c1.4,0,2.4-0.3,3-1c0.7-0.7,1-1.9,1-3.5v-3.3C822.6,206.6,822.3,205.5,821.8,204.8z M821.8,204.8c-0.5-0.7-1.4-1-2.6-1h-3.1
		V216h2.5c1.4,0,2.4-0.3,3-1c0.7-0.7,1-1.9,1-3.5v-3.3C822.6,206.6,822.3,205.5,821.8,204.8z M819.2,172.1
		c-27.4,0-49.7,22.2-49.7,49.7c0,27.4,22.2,49.7,49.7,49.7c27.4,0,49.7-22.2,49.7-49.7C868.9,194.4,846.6,172.1,819.2,172.1z
		 M823.3,240.6c-0.2-0.7-0.4-1.4-0.5-2c-0.1-0.6-0.1-1.7-0.1-3.3v-7.9c0-2-0.3-3.3-0.9-4.1c-0.6-0.8-1.7-1.2-3.3-1.2h-2.3v18.4h-6.8
		v-43h10c3.5,0,6,0.8,7.6,2.4c1.6,1.6,2.4,4.1,2.4,7.5v2.6c0,4.5-1.5,7.3-4.4,8.5v0.1c1.6,0.5,2.8,1.5,3.5,3c0.7,1.5,1,3.5,1,6.1
		v7.6c0,1.2,0,2.2,0.1,3c0.1,0.8,0.3,1.5,0.6,2.2H823.3z M819.2,203.7h-3.1V216h2.5c1.4,0,2.4-0.3,3-1c0.7-0.7,1-1.9,1-3.5v-3.3
		c0-1.6-0.3-2.7-0.8-3.4C821.2,204.1,820.3,203.7,819.2,203.7z M821.8,204.8c-0.5-0.7-1.4-1-2.6-1h-3.1V216h2.5c1.4,0,2.4-0.3,3-1
		c0.7-0.7,1-1.9,1-3.5v-3.3C822.6,206.6,822.3,205.5,821.8,204.8z M821.8,204.8c-0.5-0.7-1.4-1-2.6-1h-3.1V216h2.5
		c1.4,0,2.4-0.3,3-1c0.7-0.7,1-1.9,1-3.5v-3.3C822.6,206.6,822.3,205.5,821.8,204.8z M821.8,204.8c-0.5-0.7-1.4-1-2.6-1h-3.1V216
		h2.5c1.4,0,2.4-0.3,3-1c0.7-0.7,1-1.9,1-3.5v-3.3C822.6,206.6,822.3,205.5,821.8,204.8z M821.8,204.8c-0.5-0.7-1.4-1-2.6-1h-3.1
		V216h2.5c1.4,0,2.4-0.3,3-1c0.7-0.7,1-1.9,1-3.5v-3.3C822.6,206.6,822.3,205.5,821.8,204.8z M821.8,204.8c-0.5-0.7-1.4-1-2.6-1
		h-3.1V216h2.5c1.4,0,2.4-0.3,3-1c0.7-0.7,1-1.9,1-3.5v-3.3C822.6,206.6,822.3,205.5,821.8,204.8z M821.8,204.8
		c-0.5-0.7-1.4-1-2.6-1h-3.1V216h2.5c1.4,0,2.4-0.3,3-1c0.7-0.7,1-1.9,1-3.5v-3.3C822.6,206.6,822.3,205.5,821.8,204.8z
		 M821.8,204.8c-0.5-0.7-1.4-1-2.6-1h-3.1V216h2.5c1.4,0,2.4-0.3,3-1c0.7-0.7,1-1.9,1-3.5v-3.3C822.6,206.6,822.3,205.5,821.8,204.8
		z M821.8,204.8c-0.5-0.7-1.4-1-2.6-1h-3.1V216h2.5c1.4,0,2.4-0.3,3-1c0.7-0.7,1-1.9,1-3.5v-3.3
		C822.6,206.6,822.3,205.5,821.8,204.8z M821.8,204.8c-0.5-0.7-1.4-1-2.6-1h-3.1V216h2.5c1.4,0,2.4-0.3,3-1c0.7-0.7,1-1.9,1-3.5
		v-3.3C822.6,206.6,822.3,205.5,821.8,204.8z M821.8,204.8c-0.5-0.7-1.4-1-2.6-1h-3.1V216h2.5c1.4,0,2.4-0.3,3-1
		c0.7-0.7,1-1.9,1-3.5v-3.3C822.6,206.6,822.3,205.5,821.8,204.8z M821.8,204.8c-0.5-0.7-1.4-1-2.6-1h-3.1V216h2.5
		c1.4,0,2.4-0.3,3-1c0.7-0.7,1-1.9,1-3.5v-3.3C822.6,206.6,822.3,205.5,821.8,204.8z M821.8,204.8c-0.5-0.7-1.4-1-2.6-1h-3.1V216
		h2.5c1.4,0,2.4-0.3,3-1c0.7-0.7,1-1.9,1-3.5v-3.3C822.6,206.6,822.3,205.5,821.8,204.8z M819.2,172.1c-27.4,0-49.7,22.2-49.7,49.7
		c0,27.4,22.2,49.7,49.7,49.7c27.4,0,49.7-22.2,49.7-49.7C868.9,194.4,846.6,172.1,819.2,172.1z M823.3,240.6
		c-0.2-0.7-0.4-1.4-0.5-2c-0.1-0.6-0.1-1.7-0.1-3.3v-7.9c0-2-0.3-3.3-0.9-4.1c-0.6-0.8-1.7-1.2-3.3-1.2h-2.3v18.4h-6.8v-43h10
		c3.5,0,6,0.8,7.6,2.4c1.6,1.6,2.4,4.1,2.4,7.5v2.6c0,4.5-1.5,7.3-4.4,8.5v0.1c1.6,0.5,2.8,1.5,3.5,3c0.7,1.5,1,3.5,1,6.1v7.6
		c0,1.2,0,2.2,0.1,3c0.1,0.8,0.3,1.5,0.6,2.2H823.3z M819.2,203.7h-3.1V216h2.5c1.4,0,2.4-0.3,3-1c0.7-0.7,1-1.9,1-3.5v-3.3
		c0-1.6-0.3-2.7-0.8-3.4C821.2,204.1,820.3,203.7,819.2,203.7z M819.2,172.1c-27.4,0-49.7,22.2-49.7,49.7
		c0,27.4,22.2,49.7,49.7,49.7c27.4,0,49.7-22.2,49.7-49.7C868.9,194.4,846.6,172.1,819.2,172.1z M823.3,240.6
		c-0.2-0.7-0.4-1.4-0.5-2c-0.1-0.6-0.1-1.7-0.1-3.3v-7.9c0-2-0.3-3.3-0.9-4.1c-0.6-0.8-1.7-1.2-3.3-1.2h-2.3v18.4h-6.8v-43h10
		c3.5,0,6,0.8,7.6,2.4c1.6,1.6,2.4,4.1,2.4,7.5v2.6c0,4.5-1.5,7.3-4.4,8.5v0.1c1.6,0.5,2.8,1.5,3.5,3c0.7,1.5,1,3.5,1,6.1v7.6
		c0,1.2,0,2.2,0.1,3c0.1,0.8,0.3,1.5,0.6,2.2H823.3z M819.2,203.7h-3.1V216h2.5c1.4,0,2.4-0.3,3-1c0.7-0.7,1-1.9,1-3.5v-3.3
		c0-1.6-0.3-2.7-0.8-3.4C821.2,204.1,820.3,203.7,819.2,203.7z M819.2,161.7c-33.2,0-60,26.9-60,60c0,33.2,26.9,60,60,60
		c33.2,0,60-26.9,60-60C879.2,188.6,852.4,161.7,819.2,161.7z M819.2,275.1c-29.4,0-53.3-23.8-53.3-53.3c0-29.4,23.8-53.2,53.3-53.2
		c29.4,0,53.3,23.8,53.3,53.2C872.4,251.2,848.6,275.1,819.2,275.1z M819.2,172.1c-27.4,0-49.7,22.2-49.7,49.7
		c0,27.4,22.2,49.7,49.7,49.7c27.4,0,49.7-22.2,49.7-49.7C868.9,194.4,846.6,172.1,819.2,172.1z M823.3,240.6
		c-0.2-0.7-0.4-1.4-0.5-2c-0.1-0.6-0.1-1.7-0.1-3.3v-7.9c0-2-0.3-3.3-0.9-4.1c-0.6-0.8-1.7-1.2-3.3-1.2h-2.3v18.4h-6.8v-43h10
		c3.5,0,6,0.8,7.6,2.4c1.6,1.6,2.4,4.1,2.4,7.5v2.6c0,4.5-1.5,7.3-4.4,8.5v0.1c1.6,0.5,2.8,1.5,3.5,3c0.7,1.5,1,3.5,1,6.1v7.6
		c0,1.2,0,2.2,0.1,3c0.1,0.8,0.3,1.5,0.6,2.2H823.3z M819.2,203.7h-3.1V216h2.5c1.4,0,2.4-0.3,3-1c0.7-0.7,1-1.9,1-3.5v-3.3
		c0-1.6-0.3-2.7-0.8-3.4C821.2,204.1,820.3,203.7,819.2,203.7z M821.8,204.8c-0.5-0.7-1.4-1-2.6-1h-3.1V216h2.5c1.4,0,2.4-0.3,3-1
		c0.7-0.7,1-1.9,1-3.5v-3.3C822.6,206.6,822.3,205.5,821.8,204.8z M821.8,204.8c-0.5-0.7-1.4-1-2.6-1h-3.1V216h2.5
		c1.4,0,2.4-0.3,3-1c0.7-0.7,1-1.9,1-3.5v-3.3C822.6,206.6,822.3,205.5,821.8,204.8z M821.8,204.8c-0.5-0.7-1.4-1-2.6-1h-3.1V216
		h2.5c1.4,0,2.4-0.3,3-1c0.7-0.7,1-1.9,1-3.5v-3.3C822.6,206.6,822.3,205.5,821.8,204.8z M821.8,204.8c-0.5-0.7-1.4-1-2.6-1h-3.1
		V216h2.5c1.4,0,2.4-0.3,3-1c0.7-0.7,1-1.9,1-3.5v-3.3C822.6,206.6,822.3,205.5,821.8,204.8z M821.8,204.8c-0.5-0.7-1.4-1-2.6-1
		h-3.1V216h2.5c1.4,0,2.4-0.3,3-1c0.7-0.7,1-1.9,1-3.5v-3.3C822.6,206.6,822.3,205.5,821.8,204.8z M821.8,204.8
		c-0.5-0.7-1.4-1-2.6-1h-3.1V216h2.5c1.4,0,2.4-0.3,3-1c0.7-0.7,1-1.9,1-3.5v-3.3C822.6,206.6,822.3,205.5,821.8,204.8z"/>
	<path d="M821.8,204.8c0.6,0.7,0.8,1.8,0.8,3.4v3.3c0,1.6-0.3,2.8-1,3.5c-0.7,0.7-1.7,1-3,1h-2.5v-12.3h3.1
		C820.3,203.7,821.2,204.1,821.8,204.8z"/>
	<path d="M819.2,172.1c-27.4,0-49.7,22.2-49.7,49.7c0,27.4,22.2,49.7,49.7,49.7c27.4,0,49.7-22.2,49.7-49.7
		C868.9,194.4,846.6,172.1,819.2,172.1z M823.3,240.6c-0.2-0.7-0.4-1.4-0.5-2c-0.1-0.6-0.1-1.7-0.1-3.3v-7.9c0-2-0.3-3.3-0.9-4.1
		c-0.6-0.8-1.7-1.2-3.3-1.2h-2.3v18.4h-6.8v-43h10c3.5,0,6,0.8,7.6,2.4c1.6,1.6,2.4,4.1,2.4,7.5v2.6c0,4.5-1.5,7.3-4.4,8.5v0.1
		c1.6,0.5,2.8,1.5,3.5,3c0.7,1.5,1,3.5,1,6.1v7.6c0,1.2,0,2.2,0.1,3c0.1,0.8,0.3,1.5,0.6,2.2H823.3z"/>
</g>
<g>
	<path d="M637.1,321.7c-27.4,0-49.7,22.2-49.7,49.7c0,27.4,22.2,49.7,49.7,49.7c27.4,0,49.7-22.2,49.7-49.7
		C686.7,344,664.5,321.7,637.1,321.7z M632.3,390.2h-17.9v-43h6.8v36.9h11.1V390.2z M659.8,380.2c0,3.4-0.8,6.1-2.6,7.9
		c-1.7,1.8-4.2,2.7-7.5,2.7c-3.3,0-5.8-0.9-7.5-2.8c-1.7-1.8-2.6-4.5-2.6-7.9v-3.5h6.4v3.8c0,2.8,1.2,4.2,3.5,4.2
		c1.1,0,2-0.4,2.6-1.1c0.6-0.7,0.9-2,0.9-3.8v-3.5c0-2-0.3-3.4-1-4.2c-0.7-0.8-1.8-1.3-3.4-1.3h-2.3v-6.1h2.5c1.4,0,2.4-0.4,3-1.1
		c0.7-0.7,1-1.9,1-3.5V357c0-1.5-0.3-2.6-0.9-3.3c-0.6-0.7-1.4-1-2.5-1c-2.2,0-3.3,1.3-3.3,4v2.8h-6.4v-2.3c0-3.4,0.8-6.1,2.5-7.9
		c1.7-1.8,4.1-2.8,7.4-2.8c3.2,0,5.7,0.9,7.4,2.7c1.7,1.8,2.5,4.4,2.5,7.9v1.5c0,2.3-0.4,4.2-1.2,5.6c-0.8,1.4-2,2.4-3.6,3v0.1
		c1.8,0.7,3,1.7,3.8,3.2c0.8,1.5,1.2,3.4,1.2,5.7V380.2z M637.1,321.7c-27.4,0-49.7,22.2-49.7,49.7c0,27.4,22.2,49.7,49.7,49.7
		c27.4,0,49.7-22.2,49.7-49.7C686.7,344,664.5,321.7,637.1,321.7z M632.3,390.2h-17.9v-43h6.8v36.9h11.1V390.2z M659.8,380.2
		c0,3.4-0.8,6.1-2.6,7.9c-1.7,1.8-4.2,2.7-7.5,2.7c-3.3,0-5.8-0.9-7.5-2.8c-1.7-1.8-2.6-4.5-2.6-7.9v-3.5h6.4v3.8
		c0,2.8,1.2,4.2,3.5,4.2c1.1,0,2-0.4,2.6-1.1c0.6-0.7,0.9-2,0.9-3.8v-3.5c0-2-0.3-3.4-1-4.2c-0.7-0.8-1.8-1.3-3.4-1.3h-2.3v-6.1h2.5
		c1.4,0,2.4-0.4,3-1.1c0.7-0.7,1-1.9,1-3.5V357c0-1.5-0.3-2.6-0.9-3.3c-0.6-0.7-1.4-1-2.5-1c-2.2,0-3.3,1.3-3.3,4v2.8h-6.4v-2.3
		c0-3.4,0.8-6.1,2.5-7.9c1.7-1.8,4.1-2.8,7.4-2.8c3.2,0,5.7,0.9,7.4,2.7c1.7,1.8,2.5,4.4,2.5,7.9v1.5c0,2.3-0.4,4.2-1.2,5.6
		c-0.8,1.4-2,2.4-3.6,3v0.1c1.8,0.7,3,1.7,3.8,3.2c0.8,1.5,1.2,3.4,1.2,5.7V380.2z M637.1,321.7c-27.4,0-49.7,22.2-49.7,49.7
		c0,27.4,22.2,49.7,49.7,49.7c27.4,0,49.7-22.2,49.7-49.7C686.7,344,664.5,321.7,637.1,321.7z M632.3,390.2h-17.9v-43h6.8v36.9h11.1
		V390.2z M659.8,380.2c0,3.4-0.8,6.1-2.6,7.9c-1.7,1.8-4.2,2.7-7.5,2.7c-3.3,0-5.8-0.9-7.5-2.8c-1.7-1.8-2.6-4.5-2.6-7.9v-3.5h6.4
		v3.8c0,2.8,1.2,4.2,3.5,4.2c1.1,0,2-0.4,2.6-1.1c0.6-0.7,0.9-2,0.9-3.8v-3.5c0-2-0.3-3.4-1-4.2c-0.7-0.8-1.8-1.3-3.4-1.3h-2.3v-6.1
		h2.5c1.4,0,2.4-0.4,3-1.1c0.7-0.7,1-1.9,1-3.5V357c0-1.5-0.3-2.6-0.9-3.3c-0.6-0.7-1.4-1-2.5-1c-2.2,0-3.3,1.3-3.3,4v2.8h-6.4v-2.3
		c0-3.4,0.8-6.1,2.5-7.9c1.7-1.8,4.1-2.8,7.4-2.8c3.2,0,5.7,0.9,7.4,2.7c1.7,1.8,2.5,4.4,2.5,7.9v1.5c0,2.3-0.4,4.2-1.2,5.6
		c-0.8,1.4-2,2.4-3.6,3v0.1c1.8,0.7,3,1.7,3.8,3.2c0.8,1.5,1.2,3.4,1.2,5.7V380.2z M637.1,321.7c-27.4,0-49.7,22.2-49.7,49.7
		c0,27.4,22.2,49.7,49.7,49.7c27.4,0,49.7-22.2,49.7-49.7C686.7,344,664.5,321.7,637.1,321.7z M632.3,390.2h-17.9v-43h6.8v36.9h11.1
		V390.2z M659.8,380.2c0,3.4-0.8,6.1-2.6,7.9c-1.7,1.8-4.2,2.7-7.5,2.7c-3.3,0-5.8-0.9-7.5-2.8c-1.7-1.8-2.6-4.5-2.6-7.9v-3.5h6.4
		v3.8c0,2.8,1.2,4.2,3.5,4.2c1.1,0,2-0.4,2.6-1.1c0.6-0.7,0.9-2,0.9-3.8v-3.5c0-2-0.3-3.4-1-4.2c-0.7-0.8-1.8-1.3-3.4-1.3h-2.3v-6.1
		h2.5c1.4,0,2.4-0.4,3-1.1c0.7-0.7,1-1.9,1-3.5V357c0-1.5-0.3-2.6-0.9-3.3c-0.6-0.7-1.4-1-2.5-1c-2.2,0-3.3,1.3-3.3,4v2.8h-6.4v-2.3
		c0-3.4,0.8-6.1,2.5-7.9c1.7-1.8,4.1-2.8,7.4-2.8c3.2,0,5.7,0.9,7.4,2.7c1.7,1.8,2.5,4.4,2.5,7.9v1.5c0,2.3-0.4,4.2-1.2,5.6
		c-0.8,1.4-2,2.4-3.6,3v0.1c1.8,0.7,3,1.7,3.8,3.2c0.8,1.5,1.2,3.4,1.2,5.7V380.2z M637.1,321.7c-27.4,0-49.7,22.2-49.7,49.7
		c0,27.4,22.2,49.7,49.7,49.7c27.4,0,49.7-22.2,49.7-49.7C686.7,344,664.5,321.7,637.1,321.7z M632.3,390.2h-17.9v-43h6.8v36.9h11.1
		V390.2z M659.8,380.2c0,3.4-0.8,6.1-2.6,7.9c-1.7,1.8-4.2,2.7-7.5,2.7c-3.3,0-5.8-0.9-7.5-2.8c-1.7-1.8-2.6-4.5-2.6-7.9v-3.5h6.4
		v3.8c0,2.8,1.2,4.2,3.5,4.2c1.1,0,2-0.4,2.6-1.1c0.6-0.7,0.9-2,0.9-3.8v-3.5c0-2-0.3-3.4-1-4.2c-0.7-0.8-1.8-1.3-3.4-1.3h-2.3v-6.1
		h2.5c1.4,0,2.4-0.4,3-1.1c0.7-0.7,1-1.9,1-3.5V357c0-1.5-0.3-2.6-0.9-3.3c-0.6-0.7-1.4-1-2.5-1c-2.2,0-3.3,1.3-3.3,4v2.8h-6.4v-2.3
		c0-3.4,0.8-6.1,2.5-7.9c1.7-1.8,4.1-2.8,7.4-2.8c3.2,0,5.7,0.9,7.4,2.7c1.7,1.8,2.5,4.4,2.5,7.9v1.5c0,2.3-0.4,4.2-1.2,5.6
		c-0.8,1.4-2,2.4-3.6,3v0.1c1.8,0.7,3,1.7,3.8,3.2c0.8,1.5,1.2,3.4,1.2,5.7V380.2z M637.1,311.4c-33.2,0-60,26.9-60,60
		c0,33.2,26.9,60,60,60c33.2,0,60-26.9,60-60C697.1,338.3,670.2,311.4,637.1,311.4z M637.1,424.7c-29.4,0-53.3-23.8-53.3-53.3
		c0-29.4,23.8-53.2,53.3-53.2c29.4,0,53.3,23.8,53.3,53.2C690.3,400.8,666.5,424.7,637.1,424.7z M637.1,321.7
		c-27.4,0-49.7,22.2-49.7,49.7c0,27.4,22.2,49.7,49.7,49.7c27.4,0,49.7-22.2,49.7-49.7C686.7,344,664.5,321.7,637.1,321.7z
		 M632.3,390.2h-17.9v-43h6.8v36.9h11.1V390.2z M659.8,380.2c0,3.4-0.8,6.1-2.6,7.9c-1.7,1.8-4.2,2.7-7.5,2.7
		c-3.3,0-5.8-0.9-7.5-2.8c-1.7-1.8-2.6-4.5-2.6-7.9v-3.5h6.4v3.8c0,2.8,1.2,4.2,3.5,4.2c1.1,0,2-0.4,2.6-1.1c0.6-0.7,0.9-2,0.9-3.8
		v-3.5c0-2-0.3-3.4-1-4.2c-0.7-0.8-1.8-1.3-3.4-1.3h-2.3v-6.1h2.5c1.4,0,2.4-0.4,3-1.1c0.7-0.7,1-1.9,1-3.5V357
		c0-1.5-0.3-2.6-0.9-3.3c-0.6-0.7-1.4-1-2.5-1c-2.2,0-3.3,1.3-3.3,4v2.8h-6.4v-2.3c0-3.4,0.8-6.1,2.5-7.9c1.7-1.8,4.1-2.8,7.4-2.8
		c3.2,0,5.7,0.9,7.4,2.7c1.7,1.8,2.5,4.4,2.5,7.9v1.5c0,2.3-0.4,4.2-1.2,5.6c-0.8,1.4-2,2.4-3.6,3v0.1c1.8,0.7,3,1.7,3.8,3.2
		c0.8,1.5,1.2,3.4,1.2,5.7V380.2z M637.1,321.7c-27.4,0-49.7,22.2-49.7,49.7c0,27.4,22.2,49.7,49.7,49.7c27.4,0,49.7-22.2,49.7-49.7
		C686.7,344,664.5,321.7,637.1,321.7z M632.3,390.2h-17.9v-43h6.8v36.9h11.1V390.2z M659.8,380.2c0,3.4-0.8,6.1-2.6,7.9
		c-1.7,1.8-4.2,2.7-7.5,2.7c-3.3,0-5.8-0.9-7.5-2.8c-1.7-1.8-2.6-4.5-2.6-7.9v-3.5h6.4v3.8c0,2.8,1.2,4.2,3.5,4.2
		c1.1,0,2-0.4,2.6-1.1c0.6-0.7,0.9-2,0.9-3.8v-3.5c0-2-0.3-3.4-1-4.2c-0.7-0.8-1.8-1.3-3.4-1.3h-2.3v-6.1h2.5c1.4,0,2.4-0.4,3-1.1
		c0.7-0.7,1-1.9,1-3.5V357c0-1.5-0.3-2.6-0.9-3.3c-0.6-0.7-1.4-1-2.5-1c-2.2,0-3.3,1.3-3.3,4v2.8h-6.4v-2.3c0-3.4,0.8-6.1,2.5-7.9
		c1.7-1.8,4.1-2.8,7.4-2.8c3.2,0,5.7,0.9,7.4,2.7c1.7,1.8,2.5,4.4,2.5,7.9v1.5c0,2.3-0.4,4.2-1.2,5.6c-0.8,1.4-2,2.4-3.6,3v0.1
		c1.8,0.7,3,1.7,3.8,3.2c0.8,1.5,1.2,3.4,1.2,5.7V380.2z M637.1,321.7c-27.4,0-49.7,22.2-49.7,49.7c0,27.4,22.2,49.7,49.7,49.7
		c27.4,0,49.7-22.2,49.7-49.7C686.7,344,664.5,321.7,637.1,321.7z M632.3,390.2h-17.9v-43h6.8v36.9h11.1V390.2z M659.8,380.2
		c0,3.4-0.8,6.1-2.6,7.9c-1.7,1.8-4.2,2.7-7.5,2.7c-3.3,0-5.8-0.9-7.5-2.8c-1.7-1.8-2.6-4.5-2.6-7.9v-3.5h6.4v3.8
		c0,2.8,1.2,4.2,3.5,4.2c1.1,0,2-0.4,2.6-1.1c0.6-0.7,0.9-2,0.9-3.8v-3.5c0-2-0.3-3.4-1-4.2c-0.7-0.8-1.8-1.3-3.4-1.3h-2.3v-6.1h2.5
		c1.4,0,2.4-0.4,3-1.1c0.7-0.7,1-1.9,1-3.5V357c0-1.5-0.3-2.6-0.9-3.3c-0.6-0.7-1.4-1-2.5-1c-2.2,0-3.3,1.3-3.3,4v2.8h-6.4v-2.3
		c0-3.4,0.8-6.1,2.5-7.9c1.7-1.8,4.1-2.8,7.4-2.8c3.2,0,5.7,0.9,7.4,2.7c1.7,1.8,2.5,4.4,2.5,7.9v1.5c0,2.3-0.4,4.2-1.2,5.6
		c-0.8,1.4-2,2.4-3.6,3v0.1c1.8,0.7,3,1.7,3.8,3.2c0.8,1.5,1.2,3.4,1.2,5.7V380.2z"/>
	<path d="M637.1,321.7c-27.4,0-49.7,22.2-49.7,49.7c0,27.4,22.2,49.7,49.7,49.7c27.4,0,49.7-22.2,49.7-49.7
		C686.7,344,664.5,321.7,637.1,321.7z M632.3,390.2h-17.9v-43h6.8v36.9h11.1V390.2z M659.8,380.2c0,3.4-0.8,6.1-2.6,7.9
		c-1.7,1.8-4.2,2.7-7.5,2.7c-3.3,0-5.8-0.9-7.5-2.8c-1.7-1.8-2.6-4.5-2.6-7.9v-3.5h6.4v3.8c0,2.8,1.2,4.2,3.5,4.2
		c1.1,0,2-0.4,2.6-1.1c0.6-0.7,0.9-2,0.9-3.8v-3.5c0-2-0.3-3.4-1-4.2c-0.7-0.8-1.8-1.3-3.4-1.3h-2.3v-6.1h2.5c1.4,0,2.4-0.4,3-1.1
		c0.7-0.7,1-1.9,1-3.5V357c0-1.5-0.3-2.6-0.9-3.3c-0.6-0.7-1.4-1-2.5-1c-2.2,0-3.3,1.3-3.3,4v2.8h-6.4v-2.3c0-3.4,0.8-6.1,2.5-7.9
		c1.7-1.8,4.1-2.8,7.4-2.8c3.2,0,5.7,0.9,7.4,2.7c1.7,1.8,2.5,4.4,2.5,7.9v1.5c0,2.3-0.4,4.2-1.2,5.6c-0.8,1.4-2,2.4-3.6,3v0.1
		c1.8,0.7,3,1.7,3.8,3.2c0.8,1.5,1.2,3.4,1.2,5.7V380.2z"/>
</g>
<g>
	<path d="M807.2,354.4c-0.6-0.7-1.4-1.1-2.6-1.1h-3.1v12.3h2.5c1.4,0,2.4-0.4,3-1.1c0.7-0.7,1-1.9,1-3.5v-3.3
		C808,356.2,807.7,355.1,807.2,354.4z M807.2,354.4c-0.6-0.7-1.4-1.1-2.6-1.1h-3.1v12.3h2.5c1.4,0,2.4-0.4,3-1.1
		c0.7-0.7,1-1.9,1-3.5v-3.3C808,356.2,807.7,355.1,807.2,354.4z M807.2,354.4c-0.6-0.7-1.4-1.1-2.6-1.1h-3.1v12.3h2.5
		c1.4,0,2.4-0.4,3-1.1c0.7-0.7,1-1.9,1-3.5v-3.3C808,356.2,807.7,355.1,807.2,354.4z M807.2,354.4c-0.6-0.7-1.4-1.1-2.6-1.1h-3.1
		v12.3h2.5c1.4,0,2.4-0.4,3-1.1c0.7-0.7,1-1.9,1-3.5v-3.3C808,356.2,807.7,355.1,807.2,354.4z M807.2,354.4
		c-0.6-0.7-1.4-1.1-2.6-1.1h-3.1v12.3h2.5c1.4,0,2.4-0.4,3-1.1c0.7-0.7,1-1.9,1-3.5v-3.3C808,356.2,807.7,355.1,807.2,354.4z
		 M807.2,354.4c-0.6-0.7-1.4-1.1-2.6-1.1h-3.1v12.3h2.5c1.4,0,2.4-0.4,3-1.1c0.7-0.7,1-1.9,1-3.5v-3.3
		C808,356.2,807.7,355.1,807.2,354.4z M819.2,321.7c-27.4,0-49.7,22.2-49.7,49.7c0,27.4,22.2,49.7,49.7,49.7
		c27.4,0,49.7-22.2,49.7-49.7C868.9,344,846.6,321.7,819.2,321.7z M808.7,390.2c-0.2-0.7-0.4-1.4-0.5-2c-0.1-0.6-0.1-1.7-0.1-3.3
		v-7.9c0-2-0.3-3.3-1-4.1c-0.6-0.8-1.7-1.2-3.3-1.2h-2.3v18.4h-6.8v-43h10c3.5,0,6,0.8,7.6,2.4c1.6,1.6,2.4,4.1,2.4,7.5v2.6
		c0,4.5-1.5,7.3-4.4,8.5v0.1c1.6,0.5,2.8,1.5,3.5,3c0.7,1.5,1,3.5,1,6.1v7.6c0,1.2,0,2.2,0.1,3c0.1,0.8,0.3,1.5,0.6,2.2H808.7z
		 M843.8,380.2c0,3.4-0.9,6.1-2.6,7.9c-1.7,1.8-4.2,2.7-7.5,2.7c-3.3,0-5.8-0.9-7.5-2.8c-1.7-1.8-2.6-4.5-2.6-7.9v-3.5h6.4v3.8
		c0,2.8,1.2,4.2,3.5,4.2c1.1,0,2-0.4,2.6-1.1c0.6-0.7,0.9-2,0.9-3.8v-3.5c0-2-0.3-3.4-1-4.2c-0.7-0.8-1.8-1.3-3.4-1.3h-2.3v-6.1h2.5
		c1.4,0,2.4-0.4,3-1.1c0.7-0.7,1-1.9,1-3.5V357c0-1.5-0.3-2.6-0.9-3.3c-0.6-0.7-1.4-1-2.5-1c-2.2,0-3.3,1.3-3.3,4v2.8h-6.4v-2.3
		c0-3.4,0.9-6.1,2.6-7.9c1.7-1.8,4.1-2.8,7.3-2.8c3.2,0,5.7,0.9,7.4,2.7c1.7,1.8,2.5,4.4,2.5,7.9v1.5c0,2.3-0.4,4.2-1.2,5.6
		c-0.8,1.4-2,2.4-3.6,3v0.1c1.8,0.7,3,1.7,3.8,3.2c0.8,1.5,1.2,3.4,1.2,5.7V380.2z M804.6,353.4h-3.1v12.3h2.5c1.4,0,2.4-0.4,3-1.1
		c0.7-0.7,1-1.9,1-3.5v-3.3c0-1.6-0.3-2.7-0.8-3.4C806.6,353.7,805.8,353.4,804.6,353.4z M807.2,354.4c-0.6-0.7-1.4-1.1-2.6-1.1
		h-3.1v12.3h2.5c1.4,0,2.4-0.4,3-1.1c0.7-0.7,1-1.9,1-3.5v-3.3C808,356.2,807.7,355.1,807.2,354.4z M807.2,354.4
		c-0.6-0.7-1.4-1.1-2.6-1.1h-3.1v12.3h2.5c1.4,0,2.4-0.4,3-1.1c0.7-0.7,1-1.9,1-3.5v-3.3C808,356.2,807.7,355.1,807.2,354.4z
		 M807.2,354.4c-0.6-0.7-1.4-1.1-2.6-1.1h-3.1v12.3h2.5c1.4,0,2.4-0.4,3-1.1c0.7-0.7,1-1.9,1-3.5v-3.3
		C808,356.2,807.7,355.1,807.2,354.4z M807.2,354.4c-0.6-0.7-1.4-1.1-2.6-1.1h-3.1v12.3h2.5c1.4,0,2.4-0.4,3-1.1
		c0.7-0.7,1-1.9,1-3.5v-3.3C808,356.2,807.7,355.1,807.2,354.4z M807.2,354.4c-0.6-0.7-1.4-1.1-2.6-1.1h-3.1v12.3h2.5
		c1.4,0,2.4-0.4,3-1.1c0.7-0.7,1-1.9,1-3.5v-3.3C808,356.2,807.7,355.1,807.2,354.4z M807.2,354.4c-0.6-0.7-1.4-1.1-2.6-1.1h-3.1
		v12.3h2.5c1.4,0,2.4-0.4,3-1.1c0.7-0.7,1-1.9,1-3.5v-3.3C808,356.2,807.7,355.1,807.2,354.4z M807.2,354.4
		c-0.6-0.7-1.4-1.1-2.6-1.1h-3.1v12.3h2.5c1.4,0,2.4-0.4,3-1.1c0.7-0.7,1-1.9,1-3.5v-3.3C808,356.2,807.7,355.1,807.2,354.4z
		 M807.2,354.4c-0.6-0.7-1.4-1.1-2.6-1.1h-3.1v12.3h2.5c1.4,0,2.4-0.4,3-1.1c0.7-0.7,1-1.9,1-3.5v-3.3
		C808,356.2,807.7,355.1,807.2,354.4z M807.2,354.4c-0.6-0.7-1.4-1.1-2.6-1.1h-3.1v12.3h2.5c1.4,0,2.4-0.4,3-1.1
		c0.7-0.7,1-1.9,1-3.5v-3.3C808,356.2,807.7,355.1,807.2,354.4z M807.2,354.4c-0.6-0.7-1.4-1.1-2.6-1.1h-3.1v12.3h2.5
		c1.4,0,2.4-0.4,3-1.1c0.7-0.7,1-1.9,1-3.5v-3.3C808,356.2,807.7,355.1,807.2,354.4z M819.2,321.7c-27.4,0-49.7,22.2-49.7,49.7
		c0,27.4,22.2,49.7,49.7,49.7c27.4,0,49.7-22.2,49.7-49.7C868.9,344,846.6,321.7,819.2,321.7z M808.7,390.2c-0.2-0.7-0.4-1.4-0.5-2
		c-0.1-0.6-0.1-1.7-0.1-3.3v-7.9c0-2-0.3-3.3-1-4.1c-0.6-0.8-1.7-1.2-3.3-1.2h-2.3v18.4h-6.8v-43h10c3.5,0,6,0.8,7.6,2.4
		c1.6,1.6,2.4,4.1,2.4,7.5v2.6c0,4.5-1.5,7.3-4.4,8.5v0.1c1.6,0.5,2.8,1.5,3.5,3c0.7,1.5,1,3.5,1,6.1v7.6c0,1.2,0,2.2,0.1,3
		c0.1,0.8,0.3,1.5,0.6,2.2H808.7z M843.8,380.2c0,3.4-0.9,6.1-2.6,7.9c-1.7,1.8-4.2,2.7-7.5,2.7c-3.3,0-5.8-0.9-7.5-2.8
		c-1.7-1.8-2.6-4.5-2.6-7.9v-3.5h6.4v3.8c0,2.8,1.2,4.2,3.5,4.2c1.1,0,2-0.4,2.6-1.1c0.6-0.7,0.9-2,0.9-3.8v-3.5c0-2-0.3-3.4-1-4.2
		c-0.7-0.8-1.8-1.3-3.4-1.3h-2.3v-6.1h2.5c1.4,0,2.4-0.4,3-1.1c0.7-0.7,1-1.9,1-3.5V357c0-1.5-0.3-2.6-0.9-3.3c-0.6-0.7-1.4-1-2.5-1
		c-2.2,0-3.3,1.3-3.3,4v2.8h-6.4v-2.3c0-3.4,0.9-6.1,2.6-7.9c1.7-1.8,4.1-2.8,7.3-2.8c3.2,0,5.7,0.9,7.4,2.7
		c1.7,1.8,2.5,4.4,2.5,7.9v1.5c0,2.3-0.4,4.2-1.2,5.6c-0.8,1.4-2,2.4-3.6,3v0.1c1.8,0.7,3,1.7,3.8,3.2c0.8,1.5,1.2,3.4,1.2,5.7
		V380.2z M804.6,353.4h-3.1v12.3h2.5c1.4,0,2.4-0.4,3-1.1c0.7-0.7,1-1.9,1-3.5v-3.3c0-1.6-0.3-2.7-0.8-3.4
		C806.6,353.7,805.8,353.4,804.6,353.4z M819.2,321.7c-27.4,0-49.7,22.2-49.7,49.7c0,27.4,22.2,49.7,49.7,49.7
		c27.4,0,49.7-22.2,49.7-49.7C868.9,344,846.6,321.7,819.2,321.7z M808.7,390.2c-0.2-0.7-0.4-1.4-0.5-2c-0.1-0.6-0.1-1.7-0.1-3.3
		v-7.9c0-2-0.3-3.3-1-4.1c-0.6-0.8-1.7-1.2-3.3-1.2h-2.3v18.4h-6.8v-43h10c3.5,0,6,0.8,7.6,2.4c1.6,1.6,2.4,4.1,2.4,7.5v2.6
		c0,4.5-1.5,7.3-4.4,8.5v0.1c1.6,0.5,2.8,1.5,3.5,3c0.7,1.5,1,3.5,1,6.1v7.6c0,1.2,0,2.2,0.1,3c0.1,0.8,0.3,1.5,0.6,2.2H808.7z
		 M843.8,380.2c0,3.4-0.9,6.1-2.6,7.9c-1.7,1.8-4.2,2.7-7.5,2.7c-3.3,0-5.8-0.9-7.5-2.8c-1.7-1.8-2.6-4.5-2.6-7.9v-3.5h6.4v3.8
		c0,2.8,1.2,4.2,3.5,4.2c1.1,0,2-0.4,2.6-1.1c0.6-0.7,0.9-2,0.9-3.8v-3.5c0-2-0.3-3.4-1-4.2c-0.7-0.8-1.8-1.3-3.4-1.3h-2.3v-6.1h2.5
		c1.4,0,2.4-0.4,3-1.1c0.7-0.7,1-1.9,1-3.5V357c0-1.5-0.3-2.6-0.9-3.3c-0.6-0.7-1.4-1-2.5-1c-2.2,0-3.3,1.3-3.3,4v2.8h-6.4v-2.3
		c0-3.4,0.9-6.1,2.6-7.9c1.7-1.8,4.1-2.8,7.3-2.8c3.2,0,5.7,0.9,7.4,2.7c1.7,1.8,2.5,4.4,2.5,7.9v1.5c0,2.3-0.4,4.2-1.2,5.6
		c-0.8,1.4-2,2.4-3.6,3v0.1c1.8,0.7,3,1.7,3.8,3.2c0.8,1.5,1.2,3.4,1.2,5.7V380.2z M804.6,353.4h-3.1v12.3h2.5c1.4,0,2.4-0.4,3-1.1
		c0.7-0.7,1-1.9,1-3.5v-3.3c0-1.6-0.3-2.7-0.8-3.4C806.6,353.7,805.8,353.4,804.6,353.4z M819.2,311.4c-33.2,0-60,26.9-60,60
		c0,33.2,26.9,60,60,60c33.2,0,60-26.9,60-60C879.2,338.3,852.4,311.4,819.2,311.4z M819.2,424.7c-29.4,0-53.3-23.8-53.3-53.3
		c0-29.4,23.8-53.2,53.3-53.2c29.4,0,53.3,23.8,53.3,53.2C872.4,400.8,848.6,424.7,819.2,424.7z M819.2,321.7
		c-27.4,0-49.7,22.2-49.7,49.7c0,27.4,22.2,49.7,49.7,49.7c27.4,0,49.7-22.2,49.7-49.7C868.9,344,846.6,321.7,819.2,321.7z
		 M808.7,390.2c-0.2-0.7-0.4-1.4-0.5-2c-0.1-0.6-0.1-1.7-0.1-3.3v-7.9c0-2-0.3-3.3-1-4.1c-0.6-0.8-1.7-1.2-3.3-1.2h-2.3v18.4h-6.8
		v-43h10c3.5,0,6,0.8,7.6,2.4c1.6,1.6,2.4,4.1,2.4,7.5v2.6c0,4.5-1.5,7.3-4.4,8.5v0.1c1.6,0.5,2.8,1.5,3.5,3c0.7,1.5,1,3.5,1,6.1
		v7.6c0,1.2,0,2.2,0.1,3c0.1,0.8,0.3,1.5,0.6,2.2H808.7z M843.8,380.2c0,3.4-0.9,6.1-2.6,7.9c-1.7,1.8-4.2,2.7-7.5,2.7
		c-3.3,0-5.8-0.9-7.5-2.8c-1.7-1.8-2.6-4.5-2.6-7.9v-3.5h6.4v3.8c0,2.8,1.2,4.2,3.5,4.2c1.1,0,2-0.4,2.6-1.1c0.6-0.7,0.9-2,0.9-3.8
		v-3.5c0-2-0.3-3.4-1-4.2c-0.7-0.8-1.8-1.3-3.4-1.3h-2.3v-6.1h2.5c1.4,0,2.4-0.4,3-1.1c0.7-0.7,1-1.9,1-3.5V357
		c0-1.5-0.3-2.6-0.9-3.3c-0.6-0.7-1.4-1-2.5-1c-2.2,0-3.3,1.3-3.3,4v2.8h-6.4v-2.3c0-3.4,0.9-6.1,2.6-7.9c1.7-1.8,4.1-2.8,7.3-2.8
		c3.2,0,5.7,0.9,7.4,2.7c1.7,1.8,2.5,4.4,2.5,7.9v1.5c0,2.3-0.4,4.2-1.2,5.6c-0.8,1.4-2,2.4-3.6,3v0.1c1.8,0.7,3,1.7,3.8,3.2
		c0.8,1.5,1.2,3.4,1.2,5.7V380.2z M804.6,353.4h-3.1v12.3h2.5c1.4,0,2.4-0.4,3-1.1c0.7-0.7,1-1.9,1-3.5v-3.3c0-1.6-0.3-2.7-0.8-3.4
		C806.6,353.7,805.8,353.4,804.6,353.4z M807.2,354.4c-0.6-0.7-1.4-1.1-2.6-1.1h-3.1v12.3h2.5c1.4,0,2.4-0.4,3-1.1
		c0.7-0.7,1-1.9,1-3.5v-3.3C808,356.2,807.7,355.1,807.2,354.4z M807.2,354.4c-0.6-0.7-1.4-1.1-2.6-1.1h-3.1v12.3h2.5
		c1.4,0,2.4-0.4,3-1.1c0.7-0.7,1-1.9,1-3.5v-3.3C808,356.2,807.7,355.1,807.2,354.4z M819.2,321.7c-27.4,0-49.7,22.2-49.7,49.7
		c0,27.4,22.2,49.7,49.7,49.7c27.4,0,49.7-22.2,49.7-49.7C868.9,344,846.6,321.7,819.2,321.7z M808.7,390.2c-0.2-0.7-0.4-1.4-0.5-2
		c-0.1-0.6-0.1-1.7-0.1-3.3v-7.9c0-2-0.3-3.3-1-4.1c-0.6-0.8-1.7-1.2-3.3-1.2h-2.3v18.4h-6.8v-43h10c3.5,0,6,0.8,7.6,2.4
		c1.6,1.6,2.4,4.1,2.4,7.5v2.6c0,4.5-1.5,7.3-4.4,8.5v0.1c1.6,0.5,2.8,1.5,3.5,3c0.7,1.5,1,3.5,1,6.1v7.6c0,1.2,0,2.2,0.1,3
		c0.1,0.8,0.3,1.5,0.6,2.2H808.7z M843.8,380.2c0,3.4-0.9,6.1-2.6,7.9c-1.7,1.8-4.2,2.7-7.5,2.7c-3.3,0-5.8-0.9-7.5-2.8
		c-1.7-1.8-2.6-4.5-2.6-7.9v-3.5h6.4v3.8c0,2.8,1.2,4.2,3.5,4.2c1.1,0,2-0.4,2.6-1.1c0.6-0.7,0.9-2,0.9-3.8v-3.5c0-2-0.3-3.4-1-4.2
		c-0.7-0.8-1.8-1.3-3.4-1.3h-2.3v-6.1h2.5c1.4,0,2.4-0.4,3-1.1c0.7-0.7,1-1.9,1-3.5V357c0-1.5-0.3-2.6-0.9-3.3c-0.6-0.7-1.4-1-2.5-1
		c-2.2,0-3.3,1.3-3.3,4v2.8h-6.4v-2.3c0-3.4,0.9-6.1,2.6-7.9c1.7-1.8,4.1-2.8,7.3-2.8c3.2,0,5.7,0.9,7.4,2.7
		c1.7,1.8,2.5,4.4,2.5,7.9v1.5c0,2.3-0.4,4.2-1.2,5.6c-0.8,1.4-2,2.4-3.6,3v0.1c1.8,0.7,3,1.7,3.8,3.2c0.8,1.5,1.2,3.4,1.2,5.7
		V380.2z M804.6,353.4h-3.1v12.3h2.5c1.4,0,2.4-0.4,3-1.1c0.7-0.7,1-1.9,1-3.5v-3.3c0-1.6-0.3-2.7-0.8-3.4
		C806.6,353.7,805.8,353.4,804.6,353.4z M807.2,354.4c-0.6-0.7-1.4-1.1-2.6-1.1h-3.1v12.3h2.5c1.4,0,2.4-0.4,3-1.1
		c0.7-0.7,1-1.9,1-3.5v-3.3C808,356.2,807.7,355.1,807.2,354.4z M807.2,354.4c-0.6-0.7-1.4-1.1-2.6-1.1h-3.1v12.3h2.5
		c1.4,0,2.4-0.4,3-1.1c0.7-0.7,1-1.9,1-3.5v-3.3C808,356.2,807.7,355.1,807.2,354.4z M819.2,321.7c-27.4,0-49.7,22.2-49.7,49.7
		c0,27.4,22.2,49.7,49.7,49.7c27.4,0,49.7-22.2,49.7-49.7C868.9,344,846.6,321.7,819.2,321.7z M808.7,390.2c-0.2-0.7-0.4-1.4-0.5-2
		c-0.1-0.6-0.1-1.7-0.1-3.3v-7.9c0-2-0.3-3.3-1-4.1c-0.6-0.8-1.7-1.2-3.3-1.2h-2.3v18.4h-6.8v-43h10c3.5,0,6,0.8,7.6,2.4
		c1.6,1.6,2.4,4.1,2.4,7.5v2.6c0,4.5-1.5,7.3-4.4,8.5v0.1c1.6,0.5,2.8,1.5,3.5,3c0.7,1.5,1,3.5,1,6.1v7.6c0,1.2,0,2.2,0.1,3
		c0.1,0.8,0.3,1.5,0.6,2.2H808.7z M843.8,380.2c0,3.4-0.9,6.1-2.6,7.9c-1.7,1.8-4.2,2.7-7.5,2.7c-3.3,0-5.8-0.9-7.5-2.8
		c-1.7-1.8-2.6-4.5-2.6-7.9v-3.5h6.4v3.8c0,2.8,1.2,4.2,3.5,4.2c1.1,0,2-0.4,2.6-1.1c0.6-0.7,0.9-2,0.9-3.8v-3.5c0-2-0.3-3.4-1-4.2
		c-0.7-0.8-1.8-1.3-3.4-1.3h-2.3v-6.1h2.5c1.4,0,2.4-0.4,3-1.1c0.7-0.7,1-1.9,1-3.5V357c0-1.5-0.3-2.6-0.9-3.3c-0.6-0.7-1.4-1-2.5-1
		c-2.2,0-3.3,1.3-3.3,4v2.8h-6.4v-2.3c0-3.4,0.9-6.1,2.6-7.9c1.7-1.8,4.1-2.8,7.3-2.8c3.2,0,5.7,0.9,7.4,2.7
		c1.7,1.8,2.5,4.4,2.5,7.9v1.5c0,2.3-0.4,4.2-1.2,5.6c-0.8,1.4-2,2.4-3.6,3v0.1c1.8,0.7,3,1.7,3.8,3.2c0.8,1.5,1.2,3.4,1.2,5.7
		V380.2z M804.6,353.4h-3.1v12.3h2.5c1.4,0,2.4-0.4,3-1.1c0.7-0.7,1-1.9,1-3.5v-3.3c0-1.6-0.3-2.7-0.8-3.4
		C806.6,353.7,805.8,353.4,804.6,353.4z M807.2,354.4c-0.6-0.7-1.4-1.1-2.6-1.1h-3.1v12.3h2.5c1.4,0,2.4-0.4,3-1.1
		c0.7-0.7,1-1.9,1-3.5v-3.3C808,356.2,807.7,355.1,807.2,354.4z M807.2,354.4c-0.6-0.7-1.4-1.1-2.6-1.1h-3.1v12.3h2.5
		c1.4,0,2.4-0.4,3-1.1c0.7-0.7,1-1.9,1-3.5v-3.3C808,356.2,807.7,355.1,807.2,354.4z M807.2,354.4c-0.6-0.7-1.4-1.1-2.6-1.1h-3.1
		v12.3h2.5c1.4,0,2.4-0.4,3-1.1c0.7-0.7,1-1.9,1-3.5v-3.3C808,356.2,807.7,355.1,807.2,354.4z M807.2,354.4
		c-0.6-0.7-1.4-1.1-2.6-1.1h-3.1v12.3h2.5c1.4,0,2.4-0.4,3-1.1c0.7-0.7,1-1.9,1-3.5v-3.3C808,356.2,807.7,355.1,807.2,354.4z"/>
	<path d="M807.2,354.4c0.5,0.7,0.8,1.8,0.8,3.4v3.3c0,1.6-0.3,2.8-1,3.5c-0.7,0.7-1.7,1.1-3,1.1h-2.5v-12.3h3.1
		C805.8,353.4,806.6,353.7,807.2,354.4z"/>
	<path d="M819.2,321.7c-27.4,0-49.7,22.2-49.7,49.7c0,27.4,22.2,49.7,49.7,49.7c27.4,0,49.7-22.2,49.7-49.7
		C868.9,344,846.6,321.7,819.2,321.7z M808.7,390.2c-0.2-0.7-0.4-1.4-0.5-2c-0.1-0.6-0.1-1.7-0.1-3.3v-7.9c0-2-0.3-3.3-1-4.1
		c-0.6-0.8-1.7-1.2-3.3-1.2h-2.3v18.4h-6.8v-43h10c3.5,0,6,0.8,7.6,2.4c1.6,1.6,2.4,4.1,2.4,7.5v2.6c0,4.5-1.5,7.3-4.4,8.5v0.1
		c1.6,0.5,2.8,1.5,3.5,3c0.7,1.5,1,3.5,1,6.1v7.6c0,1.2,0,2.2,0.1,3c0.1,0.8,0.3,1.5,0.6,2.2H808.7z M843.8,380.2
		c0,3.4-0.9,6.1-2.6,7.9c-1.7,1.8-4.2,2.7-7.5,2.7c-3.3,0-5.8-0.9-7.5-2.8c-1.7-1.8-2.6-4.5-2.6-7.9v-3.5h6.4v3.8
		c0,2.8,1.2,4.2,3.5,4.2c1.1,0,2-0.4,2.6-1.1c0.6-0.7,0.9-2,0.9-3.8v-3.5c0-2-0.3-3.4-1-4.2c-0.7-0.8-1.8-1.3-3.4-1.3h-2.3v-6.1h2.5
		c1.4,0,2.4-0.4,3-1.1c0.7-0.7,1-1.9,1-3.5V357c0-1.5-0.3-2.6-0.9-3.3c-0.6-0.7-1.4-1-2.5-1c-2.2,0-3.3,1.3-3.3,4v2.8h-6.4v-2.3
		c0-3.4,0.9-6.1,2.6-7.9c1.7-1.8,4.1-2.8,7.3-2.8c3.2,0,5.7,0.9,7.4,2.7c1.7,1.8,2.5,4.4,2.5,7.9v1.5c0,2.3-0.4,4.2-1.2,5.6
		c-0.8,1.4-2,2.4-3.6,3v0.1c1.8,0.7,3,1.7,3.8,3.2c0.8,1.5,1.2,3.4,1.2,5.7V380.2z"/>
</g>
<polygon points="1022.3,291.4 989.3,233 1055.3,233 "/>
<polygon points="1051.5,353.3 993.1,386.3 993.1,320.4 "/>
<polygon points="993.1,412.4 1051.5,379.4 1051.5,445.4 "/>
<polygon points="1022.3,149.5 989.3,207.9 1055.3,207.9 "/>
<path d="M1245.9,139.5c-32.3,0-58.5,26.2-58.5,58.5c0,32.3,26.2,58.4,58.5,58.4c32.3,0,58.4-26.2,58.4-58.4
	C1304.4,165.6,1278.2,139.5,1245.9,139.5z M1283.7,227l-8.8,8.8l-29-29l-29,29l-8.8-8.8l29-29l-29-29l8.8-8.8l29,29l29-29l8.8,8.8
	l-29,29L1283.7,227z"/>
<path d="M1407.3,139.5c-33.8-1.1-61.4,26.5-60.4,60.3c1,30.6,25.9,55.5,56.5,56.5c33.8,1.1,61.4-26.5,60.4-60.3
	C1462.8,165.4,1437.9,140.5,1407.3,139.5z M1433.5,231.3h-56.4c-2.9,0-5.2-2.3-5.2-5.2v-56.4c0-2.9,2.3-5.2,5.2-5.2h56.4
	c2.9,0,5.2,2.3,5.2,5.2v56.4C1438.7,229,1436.4,231.3,1433.5,231.3z"/>
<path d="M1426.5,182v31.9c0,2.9-2.4,5.3-5.3,5.3h-31.9c-2.9,0-5.3-2.4-5.3-5.3V182c0-2.9,2.4-5.3,5.3-5.3h31.9
	C1424.2,176.7,1426.5,179.1,1426.5,182z"/>
<path d="M1247.8,299.6c-33.8-1.1-61.4,26.6-60.3,60.4c1,30.6,25.9,55.5,56.5,56.5c33.8,1.1,61.4-26.6,60.3-60.4
	C1303.3,325.5,1278.4,300.6,1247.8,299.6z M1208.7,377.6l35-60.5c1-1.7,3.5-1.7,4.5,0l34.9,60.5c1,1.7-0.3,3.9-2.3,3.9H1211
	C1209,381.5,1207.7,379.4,1208.7,377.6z"/>
<path d="M1261.6,370.4h-31.4c-1.5,0-2.4-1.6-1.7-2.9l15.7-28.1c0.7-1.3,2.7-1.3,3.4,0l15.7,28.1
	C1264.1,368.8,1263.1,370.4,1261.6,370.4z"/>
<path d="M1405.3,299.6c-32.3,0-58.5,26.2-58.5,58.5c0,32.3,26.2,58.5,58.5,58.5c32.3,0,58.5-26.2,58.5-58.5
	C1463.8,325.7,1437.6,299.6,1405.3,299.6z M1405.3,402c-24.3,0-44-19.7-44-44c0-24.3,19.7-44,44-44c24.3,0,44,19.7,44,44
	C1449.3,382.3,1429.6,402,1405.3,402z"/>
<circle cx="1405.3" cy="358" r="32.2"/>
<path d="M1454.5,582.6H1426c-2.9,0-5.2-2.3-5.2-5.2v-25.9c0-2.9,2.3-5.2,5.2-5.2h28.5c1.6,0,3.1,0.7,4.1,2l10.1,12.9
	c1.5,1.9,1.5,4.5,0,6.4l-10.1,12.9C1457.7,581.8,1456.1,582.6,1454.5,582.6z"/>
<path d="M1500,582.6h28.5c2.9,0,5.2-2.3,5.2-5.2v-25.9c0-2.9-2.3-5.2-5.2-5.2H1500c-1.6,0-3.1,0.7-4.1,2l-10.1,12.9
	c-1.5,1.9-1.5,4.5,0,6.4l10.1,12.9C1496.9,581.8,1498.4,582.6,1500,582.6z"/>
<path d="M1496,541v-28.5c0-2.9-2.3-5.2-5.2-5.2h-25.9c-2.9,0-5.2,2.3-5.2,5.2V541c0,1.6,0.7,3.1,2,4.1l12.9,10.1
	c1.9,1.5,4.5,1.5,6.4,0l12.9-10.1C1495.2,544.1,1496,542.6,1496,541z"/>
<path d="M1496,588.9v28.5c0,2.9-2.3,5.2-5.2,5.2h-25.9c-2.9,0-5.2-2.3-5.2-5.2v-28.5c0-1.6,0.7-3.1,2-4.1l12.9-10.1
	c1.9-1.5,4.5-1.5,6.4,0l12.9,10.1C1495.2,585.8,1496,587.3,1496,588.9z"/>
<g>
	<path d="M1611.7,558.1h-28.5c-2.9,0-5.2-2.3-5.2-5.2V527c0-2.9,2.3-5.2,5.2-5.2h28.5c1.6,0,3.1,0.7,4.1,2l10.1,12.9
		c1.5,1.9,1.5,4.5,0,6.4l-10.1,12.9C1614.8,557.3,1613.3,558.1,1611.7,558.1z"/>
	<path d="M1657.1,558.1h28.5c2.9,0,5.2-2.3,5.2-5.2V527c0-2.9-2.3-5.2-5.2-5.2h-28.5c-1.6,0-3.1,0.7-4.1,2l-10.1,12.9
		c-1.5,1.9-1.5,4.5,0,6.4l10.1,12.9C1654,557.3,1655.5,558.1,1657.1,558.1z"/>
	<path d="M1647.9,482.7H1622c-2.9,0-5.2,2.3-5.2,5.2v28.6c0,1.6,0.7,3.1,2,4.1l13,10.1c1.9,1.5,4.5,1.5,6.4,0l12.9-10.1
		c1.3-1,2-2.5,2-4.1v-28.6C1653.1,485.1,1650.7,482.7,1647.9,482.7z M1649.9,516.5c0,0.6-0.3,1.2-0.8,1.6l-12.9,10.1
		c-0.5,0.3-0.9,0.4-1.2,0.4c-0.3,0-0.8-0.1-1.2-0.4l-12.9-10.1c-0.5-0.4-0.8-1-0.8-1.6v-28.6c0-1.1,0.9-2,2-2h25.9c1.1,0,2,0.9,2,2
		V516.5z"/>
	<path d="M1653.1,564.4V593c0,2.9-2.3,5.2-5.2,5.2H1622c-2.9,0-5.2-2.3-5.2-5.2v-28.5c0-1.6,0.7-3.1,2-4.1l12.9-10.1
		c1.9-1.5,4.5-1.5,6.4,0l12.9,10.1C1652.3,561.3,1653.1,562.8,1653.1,564.4z"/>
</g>
<g>
	<path d="M1820,522.9h28.5c2.9,0,5.2,2.3,5.2,5.2v25.9c0,2.9-2.3,5.2-5.2,5.2H1820c-1.6,0-3.1-0.7-4.1-2l-10.1-12.9
		c-1.5-1.9-1.5-4.5,0-6.4l10.1-12.9C1816.9,523.6,1818.4,522.9,1820,522.9z"/>
	<path d="M1774.5,522.9H1746c-2.9,0-5.2,2.3-5.2,5.2v25.9c0,2.9,2.3,5.2,5.2,5.2h28.5c1.6,0,3.1-0.7,4.1-2l10.1-12.9
		c1.5-1.9,1.5-4.5,0-6.4l-10.1-12.9C1777.7,523.6,1776.1,522.9,1774.5,522.9z"/>
	<path d="M1812.9,560.3l-13-10.1c-1.9-1.5-4.5-1.5-6.4,0l-12.9,10.1c-1.3,1-2,2.5-2,4.1V593c0,2.9,2.3,5.2,5.2,5.2h25.9
		c2.9,0,5.2-2.3,5.2-5.2v-28.6C1814.9,562.8,1814.1,561.3,1812.9,560.3z M1811.7,593c0,1.1-0.9,2-2,2h-25.9c-1.1,0-2-0.9-2-2v-28.6
		c0-0.6,0.3-1.2,0.8-1.6l12.9-10.1c0.5-0.3,0.9-0.4,1.2-0.4c0.3,0,0.8,0.1,1.2,0.4l12.9,10.1c0.5,0.4,0.8,1,0.8,1.6V593z"/>
	<path d="M1778.6,516.5v-28.5c0-2.9,2.3-5.2,5.2-5.2h25.9c2.9,0,5.2,2.3,5.2,5.2v28.5c0,1.6-0.7,3.1-2,4.1l-12.9,10.1
		c-1.9,1.5-4.5,1.5-6.4,0l-12.9-10.1C1779.3,519.6,1778.6,518.1,1778.6,516.5z"/>
</g>
<g>
	<path d="M1616.8,658.5V630c0-2.9,2.3-5.2,5.2-5.2h25.9c2.9,0,5.2,2.3,5.2,5.2v28.5c0,1.6-0.7,3.1-2,4.1l-12.9,10.1
		c-1.9,1.5-4.5,1.5-6.4,0l-12.9-10.1C1617.5,661.6,1616.8,660.1,1616.8,658.5z"/>
	<path d="M1616.8,704v28.5c0,2.9,2.3,5.2,5.2,5.2h25.9c2.9,0,5.2-2.3,5.2-5.2V704c0-1.6-0.7-3.1-2-4.1l-12.9-10.1
		c-1.9-1.5-4.5-1.5-6.4,0l-12.9,10.1C1617.5,700.9,1616.8,702.4,1616.8,704z"/>
	<path d="M1686.9,663.6h-28.6c-1.6,0-3.1,0.7-4.1,2l-10.1,13c-1.5,1.9-1.5,4.5,0,6.4l10.1,12.9c1,1.3,2.5,2,4.1,2h28.6
		c2.9,0,5.2-2.3,5.2-5.2v-25.9C1692.1,666,1689.8,663.6,1686.9,663.6z M1688.9,694.7c0,1.1-0.9,2-2,2h-28.6c-0.6,0-1.2-0.3-1.6-0.8
		l-10.1-12.9c-0.3-0.5-0.4-0.9-0.4-1.2c0-0.3,0.1-0.8,0.4-1.2l10.1-12.9c0.4-0.5,1-0.8,1.6-0.8h28.6c1.1,0,2,0.9,2,2V694.7z"/>
	<path d="M1610.4,699.9h-28.5c-2.9,0-5.2-2.3-5.2-5.2v-25.9c0-2.9,2.3-5.2,5.2-5.2h28.5c1.6,0,3.1,0.7,4.1,2l10.1,12.9
		c1.5,1.9,1.5,4.5,0,6.4l-10.1,12.9C1613.5,699.2,1612,699.9,1610.4,699.9z"/>
</g>
<g>
	<path d="M1814.9,704v28.5c0,2.9-2.3,5.2-5.2,5.2h-25.9c-2.9,0-5.2-2.3-5.2-5.2V704c0-1.6,0.7-3.1,2-4.1l12.9-10.1
		c1.9-1.5,4.5-1.5,6.4,0l12.9,10.1C1814.1,700.9,1814.9,702.4,1814.9,704z"/>
	<path d="M1814.9,658.5V630c0-2.9-2.3-5.2-5.2-5.2h-25.9c-2.9,0-5.2,2.3-5.2,5.2v28.5c0,1.6,0.7,3.1,2,4.1l12.9,10.1
		c1.9,1.5,4.5,1.5,6.4,0l12.9-10.1C1814.1,661.6,1814.9,660.1,1814.9,658.5z"/>
	<path d="M1787.5,677.5l-10.1-12.9c-1-1.3-2.5-2-4.1-2h-28.6c-2.9,0-5.2,2.3-5.2,5.2v25.9c0,2.9,2.3,5.2,5.2,5.2h28.6
		c1.6,0,3.1-0.7,4.1-2l10.1-13C1788.9,682,1788.9,679.4,1787.5,677.5z M1784.9,681.9l-10.1,12.9c-0.4,0.5-1,0.8-1.6,0.8h-28.6
		c-1.1,0-2-0.9-2-2v-25.9c0-1.1,0.9-2,2-2h28.6c0.6,0,1.2,0.3,1.6,0.8l10.1,12.9c0.3,0.5,0.4,0.9,0.4,1.2
		C1785.3,681,1785.3,681.5,1784.9,681.9z"/>
	<path d="M1821.3,662.6h28.5c2.9,0,5.2,2.3,5.2,5.2v25.9c0,2.9-2.3,5.2-5.2,5.2h-28.5c-1.6,0-3.1-0.7-4.1-2l-10.1-12.9
		c-1.5-1.9-1.5-4.5,0-6.4l10.1-12.9C1818.1,663.3,1819.7,662.6,1821.3,662.6z"/>
</g>
<g>
	<path d="M780.2,573.6h-27c-4.2,0-7.7,3.4-7.7,7.7v95.9c0,4.2,3.4,7.7,7.7,7.7h27c4.2,0,7.7-3.4,7.7-7.7v-95.9
		C787.9,577,784.4,573.6,780.2,573.6z M768.1,582.6l10,16.3c0.7,1.1-0.1,2.4-1.4,2.4h-20c-1.3,0-2-1.4-1.4-2.4l10-16.3
		C766,581.6,767.4,581.6,768.1,582.6z"/>
	<path d="M711.1,642.7v-27c0-4.2,3.4-7.7,7.7-7.7h95.9c4.2,0,7.7,3.4,7.7,7.7v27c0,4.2-3.4,7.7-7.7,7.7h-95.9
		C714.5,650.4,711.1,647,711.1,642.7z"/>
</g>
<g>
	<path d="M961.7,642.8v-27c0-4.2-3.4-7.7-7.7-7.7h-95.9c-4.2,0-7.7,3.4-7.7,7.7v27c0,4.2,3.4,7.7,7.7,7.7h95.9
		C958.3,650.4,961.7,647,961.7,642.8z M952.8,630.6l-16.3,10c-1.1,0.7-2.4-0.1-2.4-1.4v-20c0-1.3,1.4-2,2.4-1.4l16.3,10
		C953.8,628.5,953.8,630,952.8,630.6z"/>
	<path d="M892.6,573.6h27c4.2,0,7.7,3.4,7.7,7.7v95.9c0,4.2-3.4,7.7-7.7,7.7h-27c-4.2,0-7.7-3.4-7.7-7.7v-95.9
		C884.9,577.1,888.4,573.6,892.6,573.6z"/>
</g>
<g>
	<path d="M1032,684.9h27c4.2,0,7.7-3.4,7.7-7.7v-95.9c0-4.2-3.4-7.7-7.7-7.7h-27c-4.2,0-7.7,3.4-7.7,7.7v95.9
		C1024.4,681.4,1027.8,684.9,1032,684.9z M1044.2,675.9l-10-16.3c-0.7-1.1,0.1-2.4,1.4-2.4h20c1.3,0,2,1.4,1.4,2.4l-10,16.3
		C1046.3,676.9,1044.8,676.9,1044.2,675.9z"/>
	<path d="M1101.2,615.7v27c0,4.2-3.4,7.7-7.7,7.7h-95.9c-4.2,0-7.7-3.4-7.7-7.7v-27c0-4.2,3.4-7.7,7.7-7.7h95.9
		C1097.7,608.1,1101.2,611.5,1101.2,615.7z"/>
</g>
<g>
	<path d="M1129.3,615.7v27c0,4.2,3.4,7.7,7.7,7.7h95.9c4.2,0,7.7-3.4,7.7-7.7v-27c0-4.2-3.4-7.7-7.7-7.7H1137
		C1132.8,608.1,1129.3,611.5,1129.3,615.7z M1138.3,627.9l16.3-10c1.1-0.7,2.4,0.1,2.4,1.4v20c0,1.3-1.4,2-2.4,1.4l-16.3-10
		C1137.3,630,1137.3,628.5,1138.3,627.9z"/>
	<path d="M1198.5,684.9h-27c-4.2,0-7.7-3.4-7.7-7.7v-95.9c0-4.2,3.4-7.7,7.7-7.7h27c4.2,0,7.7,3.4,7.7,7.7v95.9
		C1206.1,681.4,1202.7,684.9,1198.5,684.9z"/>
</g>
<g>
	<polygon points="1579.5,151 1590.9,171.2 1568.1,171.2 	"/>
	<g>
		<path class="st0" d="M1523.9,214.1v-27c0-4.2,3.4-7.7,7.7-7.7h95.9c4.2,0,7.7,3.4,7.7,7.7v27c0,4.2-3.4,7.7-7.7,7.7h-95.9
			C1527.3,221.7,1523.9,218.3,1523.9,214.1z"/>
		<path class="st0" d="M1566,144.9h27c4.2,0,7.7,3.4,7.7,7.7v95.9c0,4.2-3.4,7.7-7.7,7.7h-27c-4.2,0-7.7-3.4-7.7-7.7v-95.9
			C1558.3,148.4,1561.8,144.9,1566,144.9z"/>
	</g>
	<polygon points="1751.8,250.1 1740.4,229.9 1763.2,229.9 	"/>
	<g>
		<path class="st0" d="M1807.4,187.1v27c0,4.2-3.4,7.7-7.7,7.7h-95.9c-4.2,0-7.7-3.4-7.7-7.7v-27c0-4.2,3.4-7.7,7.7-7.7h95.9
			C1804,179.4,1807.4,182.8,1807.4,187.1z"/>
		<path class="st0" d="M1765.3,256.2h-27c-4.2,0-7.7-3.4-7.7-7.7v-95.9c0-4.2,3.4-7.7,7.7-7.7h27c4.2,0,7.7,3.4,7.7,7.7v95.9
			C1773,252.8,1769.5,256.2,1765.3,256.2z"/>
	</g>
	<polygon points="1623.4,323.9 1603.2,335.3 1603.2,312.5 	"/>
	<g>
		<path class="st0" d="M1560.3,268.3h27c4.2,0,7.7,3.4,7.7,7.7v95.9c0,4.2-3.4,7.7-7.7,7.7h-27c-4.2,0-7.7-3.4-7.7-7.7v-95.9
			C1552.7,271.7,1556.1,268.3,1560.3,268.3z"/>
		<path class="st0" d="M1629.5,310.4v27c0,4.2-3.4,7.7-7.7,7.7h-95.9c-4.2,0-7.7-3.4-7.7-7.7v-27c0-4.2,3.4-7.7,7.7-7.7h95.9
			C1626,302.7,1629.5,306.1,1629.5,310.4z"/>
	</g>
	<polygon points="1704.8,323.9 1725,312.5 1725,335.3 	"/>
	<g>
		<path class="st0" d="M1767.8,379.5h-27c-4.2,0-7.7-3.4-7.7-7.7v-95.9c0-4.2,3.4-7.7,7.7-7.7h27c4.2,0,7.7,3.4,7.7,7.7v95.9
			C1775.5,376.1,1772.1,379.5,1767.8,379.5z"/>
		<path class="st0" d="M1698.7,337.4v-27c0-4.2,3.4-7.7,7.7-7.7h95.9c4.2,0,7.7,3.4,7.7,7.7v27c0,4.2-3.4,7.7-7.7,7.7h-95.9
			C1702.1,345.1,1698.7,341.6,1698.7,337.4z"/>
	</g>
</g>
<g>
	<path d="M221.2,1079.2L221.2,1079.2c-12.4,0-22.5-10.1-22.5-22.5v-40.7c0-12.4,10.1-22.5,22.5-22.5h0c12.4,0,22.5,10.1,22.5,22.5
		v40.7C243.7,1069.1,233.6,1079.2,221.2,1079.2z"/>
	<text transform="matrix(1 0 0 1 186.8271 984.2788)" class="st1 st2">option</text>
</g>
<g>
	<path d="M342.8,1079.2L342.8,1079.2c-12.4,0-22.5-10.1-22.5-22.5v-40.7c0-12.4,10.1-22.5,22.5-22.5h0c12.4,0,22.5,10.1,22.5,22.5
		v40.7C365.3,1069.1,355.2,1079.2,342.8,1079.2z"/>
	<text transform="matrix(1 0 0 1 311.9639 984.2788)" class="st1 st2">share</text>
</g>
<path d="M223.7,791.2c-32.3,0-58.6,26.2-58.6,58.6c0,32.3,26.2,58.6,58.6,58.6s58.6-26.2,58.6-58.6
	C282.3,817.4,256.1,791.2,223.7,791.2z M255.6,874.4h-63.8v-11.3h63.8V874.4z M255.6,855.4h-63.8v-11.3h63.8V855.4z M255.6,836.3
	h-63.8v-11.3h63.8V836.3z"/>
<path d="M383.7,791.2c-33.9-1.1-61.5,26.6-60.5,60.4c1,30.7,25.9,55.6,56.6,56.6c33.9,1.1,61.5-26.6,60.5-60.4
	C439.3,817.1,414.3,792.2,383.7,791.2z M357.5,862.5h-12.6V823h57.2v12.5h-7.8v-3.9h-41.1v22.5h4.3V862.5z M419.7,877.6h-57.9v-38.9
	h57.9V877.6z M411.4,846.8h-41.3v22.8h41.3V846.8z"/>
<path d="M636.7,835.9c-28.9,0-52.4,23.4-52.4,52.4c0,28.9,23.4,52.3,52.4,52.3c28.9,0,52.3-23.4,52.3-52.3
	C689,859.4,665.6,835.9,636.7,835.9z M646.9,908.3H629v-43h6.8v36.9h11.1V908.3z"/>
<polygon points="636.7,829.8 611.6,797.8 661.8,797.8 "/>
<path d="M844.6,797.8c-28.9,0-52.3,23.4-52.3,52.3c0,28.9,23.4,52.4,52.3,52.4c28.9,0,52.4-23.4,52.4-52.4
	C897,821.3,873.6,797.8,844.6,797.8z M854.5,870.2h-17.9v-43h6.8V864h11.1V870.2z"/>
<polygon points="844.6,908.6 869.7,940.6 819.5,940.6 "/>
<path d="M1073.8,813.3c-28.9,0-52.4,23.4-52.4,52.3c0,28.9,23.4,52.4,52.4,52.4c28.9,0,52.3-23.4,52.3-52.4
	C1126.2,836.7,1102.7,813.3,1073.8,813.3z M1083.6,885.6h-17.9v-43h6.8v36.9h11.1V885.6z"/>
<polygon points="1015.4,865.6 983.4,890.7 983.4,840.5 "/>
<path d="M1232.8,813.3c-28.9,0-52.3,23.4-52.3,52.3c0,28.9,23.4,52.4,52.3,52.4c28.9,0,52.4-23.4,52.4-52.4
	C1285.1,836.7,1261.7,813.3,1232.8,813.3z M1242.6,885.6h-17.9v-43h6.8v36.9h11.1V885.6z"/>
<polygon points="1291.2,865.6 1323.2,840.5 1323.2,890.7 "/>
<path d="M639.6,1102.8c0.6,0.7,0.8,1.8,0.8,3.4v3.3c0,1.6-0.3,2.8-1,3.5c-0.7,0.7-1.7,1-3,1H634v-12.3h3.1
	C638.2,1101.8,639.1,1102.1,639.6,1102.8z"/>
<path d="M636.7,1066.3c-28.9,0-52.4,23.4-52.4,52.3c0,28.9,23.4,52.4,52.4,52.4c28.9,0,52.3-23.4,52.3-52.4
	C689,1089.8,665.6,1066.3,636.7,1066.3z M641.2,1138.7c-0.2-0.7-0.4-1.4-0.5-2c-0.1-0.6-0.1-1.7-0.1-3.3v-7.9c0-2-0.3-3.3-1-4.1
	c-0.6-0.8-1.7-1.2-3.3-1.2H634v18.4h-6.8v-43h10c3.5,0,6,0.8,7.6,2.4c1.6,1.6,2.4,4.1,2.4,7.5v2.6c0,4.5-1.5,7.3-4.4,8.5v0.1
	c1.6,0.5,2.8,1.5,3.5,3c0.7,1.5,1,3.5,1,6.1v7.6c0,1.2,0,2.2,0.1,3c0.1,0.8,0.3,1.5,0.6,2.2H641.2z"/>
<polygon points="636.7,1060.2 611.6,1028.2 661.8,1028.2 "/>
<path d="M847.2,1064.7c0.5,0.7,0.8,1.8,0.8,3.4v3.3c0,1.6-0.3,2.8-1,3.5c-0.7,0.7-1.7,1.1-3,1.1h-2.5v-12.3h3.1
	C845.8,1063.7,846.7,1064,847.2,1064.7z"/>
<path d="M844.6,1028.2c-28.9,0-52.3,23.4-52.3,52.4c0,28.9,23.4,52.3,52.3,52.3c28.9,0,52.4-23.4,52.4-52.3
	C897,1051.7,873.6,1028.2,844.6,1028.2z M848.7,1100.6c-0.2-0.7-0.4-1.4-0.5-2c-0.1-0.6-0.1-1.7-0.1-3.3v-7.9c0-2-0.3-3.3-1-4.1
	c-0.6-0.8-1.7-1.2-3.3-1.2h-2.3v18.4h-6.8v-43h10c3.5,0,6,0.8,7.6,2.4c1.6,1.6,2.4,4.1,2.4,7.5v2.6c0,4.5-1.5,7.3-4.4,8.5v0.1
	c1.6,0.5,2.8,1.5,3.5,3c0.7,1.5,1,3.5,1,6.1v7.6c0,1.2,0,2.2,0.1,3c0.1,0.8,0.3,1.5,0.6,2.2H848.7z"/>
<polygon points="844.6,1139 869.7,1171 819.5,1171 "/>
<path d="M1074.1,1080.1c0.6,0.7,0.8,1.8,0.8,3.4v3.3c0,1.6-0.3,2.8-1,3.5c-0.7,0.7-1.7,1-3,1h-2.5v-12.3h3.1
	C1072.7,1079.1,1073.5,1079.4,1074.1,1080.1z"/>
<path d="M1073.8,1043.6c-28.9,0-52.4,23.4-52.4,52.4c0,28.9,23.4,52.3,52.4,52.3c28.9,0,52.3-23.4,52.3-52.3
	C1126.2,1067.1,1102.7,1043.6,1073.8,1043.6z M1075.6,1116c-0.2-0.7-0.4-1.4-0.5-2c-0.1-0.6-0.1-1.7-0.1-3.3v-7.9c0-2-0.3-3.3-1-4.1
	c-0.6-0.8-1.7-1.2-3.3-1.2h-2.3v18.4h-6.8v-43h10c3.5,0,6,0.8,7.6,2.4c1.6,1.6,2.4,4.1,2.4,7.5v2.6c0,4.5-1.5,7.3-4.4,8.5v0.1
	c1.6,0.5,2.8,1.5,3.5,3c0.7,1.5,1,3.5,1,6.1v7.6c0,1.2,0,2.2,0.1,3c0.1,0.8,0.3,1.5,0.6,2.2H1075.6z"/>
<polygon points="1015.4,1096 983.4,1121.1 983.4,1070.9 "/>
<path d="M1235.4,1082.8c0.6,0.7,0.8,1.8,0.8,3.4v3.3c0,1.6-0.3,2.8-1,3.5c-0.7,0.7-1.7,1-3,1h-2.5v-12.3h3.1
	C1233.9,1081.8,1234.8,1082.1,1235.4,1082.8z"/>
<path d="M1232.8,1043.6c-28.9,0-52.3,23.4-52.3,52.4c0,28.9,23.4,52.3,52.3,52.3c28.9,0,52.4-23.4,52.4-52.3
	C1285.1,1067.1,1261.7,1043.6,1232.8,1043.6z M1236.9,1118.7c-0.2-0.7-0.4-1.4-0.5-2c-0.1-0.6-0.1-1.7-0.1-3.3v-7.9
	c0-2-0.3-3.3-1-4.1c-0.6-0.8-1.7-1.2-3.3-1.2h-2.3v18.4h-6.8v-43h10c3.5,0,6,0.8,7.6,2.4c1.6,1.6,2.4,4.1,2.4,7.5v2.6
	c0,4.5-1.5,7.3-4.4,8.5v0.1c1.6,0.5,2.8,1.5,3.5,3c0.7,1.5,1,3.5,1,6.1v7.6c0,1.2,0,2.2,0.1,3c0.1,0.8,0.3,1.5,0.6,2.2H1236.9z"/>
<polygon points="1291.2,1096 1323.2,1070.9 1323.2,1121.1 "/>
<g>
	<polygon points="1624.8,853.6 1628.7,881.1 1620.8,881.1 1624.6,853.6 	"/>
	<path d="M1625,813.3c-32.3,0-58.4,26.2-58.4,58.4c0,32.3,26.2,58.5,58.4,58.5c32.3,0,58.5-26.2,58.5-58.5
		C1683.5,839.4,1657.3,813.3,1625,813.3z M1631.3,899.6l-1.6-11.1v0.2h-10l-1.6,10.9h-8.1l9.1-55.7h11.8l9.1,55.7H1631.3z"/>
	<path d="M1783.1,866.5h-3.4v-14.7h4.2c1.5,0,2.7,0.5,3.4,1.4c0.7,0.9,1.1,2.4,1.1,4.4v3.1c0,2.1-0.4,3.6-1.3,4.5
		C1786.2,866.1,1784.9,866.5,1783.1,866.5z"/>
	<path d="M1787.9,876c0.9,1,1.3,2.7,1.3,5.3v4.9c0,2-0.4,3.4-1.1,4.2c-0.7,0.8-1.9,1.2-3.4,1.2h-5v-17.1h3.9
		C1785.6,874.5,1787.1,875,1787.9,876z"/>
	<path d="M1784.5,813.3c-32.3,0-58.5,26.2-58.5,58.5c0,32.3,26.2,58.4,58.5,58.4c32.3,0,58.5-26.2,58.5-58.4
		C1842.9,839.4,1816.8,813.3,1784.5,813.3z M1798,886.3c0,4.3-1.1,7.6-3.4,9.8c-2.3,2.3-5.6,3.4-9.9,3.4H1771v-55.7h13.2
		c4.5,0,7.8,1.1,9.9,3.2c2.1,2.1,3.1,5.3,3.1,9.7v2.2c0,2.9-0.5,5.2-1.4,7c-0.9,1.8-2.3,3.1-4.3,3.9v0.2c4.3,1.5,6.5,5.4,6.5,11.6
		V886.3z"/>
	<path d="M1625.1,973.4c-32.3,0-58.5,26.2-58.5,58.5c0,32.3,26.2,58.5,58.5,58.5c32.3,0,58.4-26.2,58.4-58.5
		C1683.5,999.5,1657.3,973.4,1625.1,973.4z M1629.4,1036v23.7h-8.8V1036l-10.6-32h9.3l6,20.4h0.2l6-20.4h8.5L1629.4,1036z"/>
	<path d="M1784.5,973.4c-32.3,0-58.5,26.2-58.5,58.5c0,32.3,26.2,58.5,58.5,58.5c32.3,0,58.5-26.2,58.5-58.5
		C1842.9,999.5,1816.8,973.4,1784.5,973.4z M1790.5,1059.7l-6.4-19.4h-0.2l-6.5,19.4h-8.3l10.1-28.5l-9.6-27.2h9.2l5.9,18h0.2l6-18
		h8.3l-9.6,27.2l10.1,28.5H1790.5z"/>
</g>
</svg>
