<?xml version="1.0" encoding="UTF-8" standalone="no"?>
<!-- Created with Inkscape (http://www.inkscape.org/) -->

<svg
   width="1125"
   height="2436"
   viewBox="0 0 1125 2436"
   version="1.1"
   id="svg1"
   inkscape:version="1.3 (0e150ed6c4, 2023-07-21)"
   sodipodi:docname="UI Shapes.svg"
   xmlns:inkscape="http://www.inkscape.org/namespaces/inkscape"
   xmlns:sodipodi="http://sodipodi.sourceforge.net/DTD/sodipodi-0.dtd"
   xmlns="http://www.w3.org/2000/svg"
   xmlns:svg="http://www.w3.org/2000/svg">
  <sodipodi:namedview
     id="namedview1"
     pagecolor="#ffffff"
     bordercolor="#000000"
     borderopacity="0.25"
     inkscape:showpageshadow="2"
     inkscape:pageopacity="0.0"
     inkscape:pagecheckerboard="0"
     inkscape:deskcolor="#d1d1d1"
     inkscape:document-units="px"
     inkscape:zoom="0.94861452"
     inkscape:cx="538.15327"
     inkscape:cy="2066.6983"
     inkscape:window-width="1920"
     inkscape:window-height="1094"
     inkscape:window-x="-11"
     inkscape:window-y="-11"
     inkscape:window-maximized="1"
     inkscape:current-layer="g47" />
  <defs
     id="defs1">&#10;			&#10;			&#10;			&#10;			&#10;		&#10;				&#10;				&#10;			&#10;				&#10;				&#10;				&#10;				&#10;				&#10;			&#10;			&#10;			&#10;		&#10;				&#10;				&#10;				&#10;				&#10;				&#10;				&#10;				&#10;			&#10;				&#10;				&#10;				&#10;				&#10;				&#10;				&#10;			&#10;					&#10;					&#10;					&#10;					&#10;					&#10;				&#10;			&#10;			&#10;		&#10;				&#10;				&#10;			&#10;				&#10;				&#10;			</defs>
  <g
     inkscape:label="Ebene 1"
     inkscape:groupmode="layer"
     id="layer1">
    <path
       id="path9"
       style="display:inline;opacity:0.64;stroke-width:0.382168"
       d="m 797.82965,1740.2475 -85.98462,80.6495 H 2.1703327 V 53.149491 L 56.665412,2.0356677 H 422.91457 l 56.27081,52.7793733 h 318.64427 z"
       sodipodi:nodetypes="ccccccccc" />
    <g
       id="g47">
      <path
         id="path47"
         style="opacity:0.71"
         d="m 678.30431,1872.8057 h -33.5 l 33.5,33.5 z"
         sodipodi:nodetypes="cccc" />
      <path
         id="path46"
         style="opacity:0.71"
         d="m 24.015813,2167.4607 -13.5,13.6 v 0.2 l 13.5,13.7 z"
         sodipodi:nodetypes="ccccc" />
      <path
         id="path45"
         style="opacity:0.71"
         d="m 24.015813,2147.7607 -13.5,13.5 v 13.5 l 13.5,-13.6 z"
         sodipodi:nodetypes="ccccc" />
      <path
         id="path44"
         style="opacity:0.71"
         d="m 24.015813,2127.9607 -13.5,13.5 v 13.5 l 13.5,-13.5 z"
         sodipodi:nodetypes="ccccc" />
      <path
         id="path43"
         style="opacity:0.71"
         d="m 24.015813,2108.1607 -13.5,13.6 v 13.4 l 13.5,-13.5 z"
         sodipodi:nodetypes="ccccc" />
      <path
         id="path42"
         style="opacity:0.71"
         d="m 10.515813,2115.4607 13.5,-13.6 -13.5,-13.6 z"
         sodipodi:nodetypes="cccc" />
      <path
         d="m 28.515833,2098.2607 v 116.1 H 600.20435 v 7.7 h -36.8 v 7 h 130.60004 v -129.2 h -7 v 40.4 h -7.7 v -222.655 l -46,-46 H 2.4158334 v 200.455 z m 658.588557,49.1 v 74.8 h -79.90004 v -7.7 h 72.10004 v -67 h 7.8 z"
         id="path41"
         style="opacity:0.71"
         sodipodi:nodetypes="cccccccccccccccccccccccc" />
      <path
         id="path40"
         style="fill:#00fefe"
         class="st2"
         d="m 641.00431,1869.0057 h 33.5 v 33.5 z"
         sodipodi:nodetypes="cccc" />
      <path
         id="path39"
         style="fill:#00fefe"
         class="st2"
         d="m 20.215813,2163.7607 v 27.4 l -13.4999996,-13.7 v -0.2 z"
         sodipodi:nodetypes="ccccc" />
      <path
         id="path38"
         style="fill:#00fefe"
         class="st2"
         d="m 6.7158134,2157.4607 13.4999996,-13.5 v 13.4 l -13.4999996,13.6 z"
         sodipodi:nodetypes="ccccc" />
      <path
         id="path37"
         style="fill:#00fefe"
         class="st2"
         d="m 6.7158134,2137.7607 13.4999996,-13.6 v 13.5 l -13.4999996,13.5 z"
         sodipodi:nodetypes="ccccc" />
      <path
         id="path36"
         style="fill:#00fefe"
         class="st2"
         d="m 6.7158134,2117.9607 13.4999996,-13.6 v 13.5 l -13.4999996,13.5 z"
         sodipodi:nodetypes="ccccc" />
      <path
         id="path35"
         style="fill:#00fefe"
         class="st2"
         d="m 20.215813,2098.0607 -13.4999996,13.6 v -27.2 z"
         sodipodi:nodetypes="cccc" />
      <path
         style="color:#000000;fill:#333333;stroke-linecap:round;stroke-miterlimit:10;-inkscape-stroke:none"
         d="M 674.50433,2209.6607 H 25.715813 v -115.6 l -26.09999964,-26 v -199.055 H 629.10433 l 45.4,45.4 z"
         id="path34"
         sodipodi:nodetypes="cccccccc" />
      <path
         style="color:#000000;fill:#00fefe;stroke-linecap:round;stroke-miterlimit:10;-inkscape-stroke:none"
         d="m -1.3841866,1868.0053 v 200.4702 l 26.0995996,26 v 116.1856 H 675.50433 v -1 -295.6695 l -45.9863,-45.9863 z m 1.99999996,2 H 628.68983 l 44.8145,44.8145 v 293.8413 H 26.715413 v -115.0156 l -26.09959964,-26 z"
         id="path33"
         sodipodi:nodetypes="ccccccccccccccccc" />
      <path
         id="path32"
         style="fill:#00fefe"
         class="st2"
         d="m 683.30431,2096.1607 h 7 v 129.2 h -130.6 v -7 h 123.6 z"
         sodipodi:nodetypes="ccccccc" />
      <path
         id="path31"
         style="fill:#00fefe"
         class="st2"
         d="m 596.40433,2209.6607 h 7 v 9.2 h -7 z"
         sodipodi:nodetypes="ccccc" />
      <path
         id="path30"
         style="fill:#00fefe"
         class="st2"
         d="m 674.50431,2136.6607 h 9.2 v 7 h -9.2 z"
         sodipodi:nodetypes="ccccc" />
    </g>
    <path
       class="st2"
       d="m 422.04644,4.0713355 54.9686,51.5579755 1.26274,1.184385 h 1.81519 315.56633 V 1739.3962 l -84.72186,79.4651 H 4.3406652 V 53.963761 L 57.533545,4.0713355 H 422.04644 M 423.82217,0 H 55.718358 L 0,52.29821 V 1822.9327 H 712.75263 L 800,1741.0987 V 52.742362 H 480.09297 Z"
       id="path1"
       style="display:inline;opacity:0.64;fill:#00fefe;stroke-width:0.382168"
       sodipodi:nodetypes="cccccccccccccccccccc" />
    <path
       id="path8"
       style="opacity:0.64;fill:#00fefe;stroke-width:0.382168"
       class="st2"
       d="M 693.18017,44.673702 H 780.7038 L 737.21815,4.1083481 h -0.74969 z"
       sodipodi:nodetypes="ccccc" />
    <path
       id="path7"
       style="opacity:0.64;fill:#00fefe;stroke-width:0.382168"
       class="st2"
       d="m 673.29202,4.1083481 -43.2488,40.5653539 h 43.01205 L 716.30409,4.1083481 Z"
       sodipodi:nodetypes="ccccc" />
    <path
       id="path6"
       style="opacity:0.64;fill:#00fefe;stroke-width:0.382168"
       class="st2"
       d="M 610.19454,4.1083481 566.86682,44.673702 h 43.01204 L 653.16713,4.1083481 Z"
       sodipodi:nodetypes="ccccc" />
    <path
       id="path5"
       style="opacity:0.64;fill:#00fefe;stroke-width:0.382168"
       class="st2"
       d="M 547.01813,4.1083481 503.76932,44.673702 h 43.01205 L 590.03018,4.1083481 Z"
       sodipodi:nodetypes="ccccc" />
    <path
       id="path4"
       style="opacity:0.64;fill:#00fefe;stroke-width:0.382168"
       class="st2"
       d="M 440.19831,4.1083481 483.60496,44.673702 526.85377,4.1083481 Z"
       sodipodi:nodetypes="cccc" />
    <path
       id="path3"
       style="opacity:0.64;fill:#00fefe;stroke-width:0.382168"
       class="st17"
       d="M 724.90649,1822.9327 800,1752.4984 v 70.4343 z"
       sodipodi:nodetypes="cccc" />
    <path
       id="path2"
       style="opacity:0.64;fill:#00fefe;stroke-width:0.382168"
       class="st17"
       d="M 0,43.711382 46.602961,0 H 0 Z"
       sodipodi:nodetypes="cccc" />
    <g
       id="g366"
       transform="matrix(1,0,0,-1,-851.64345,3040.6523)">&#10;					<g
   class="st11"
   id="g364"
   style="opacity:0.71">&#10;						<path
   d="M 1785.3,1007"
   id="path363" />
&#10;					</g>
&#10;					<g
   id="g365">&#10;						<polygon
   class="st21"
   points="1784.5,1008.8 1959.1,1008.8 1959.1,1030.2 1944.4,1044.8 1784.5,1044.8 "
   id="polygon364"
   style="fill:#333333;stroke:#00fefe;stroke-width:2.6052;stroke-linecap:round;stroke-miterlimit:10" />
&#10;					</g>
&#10;				</g>
    <g
       id="g369"
       transform="matrix(1,0,0,-1,-882.20526,3039.1614)">&#10;					<rect
   x="1694.1"
   y="953.70001"
   class="st14"
   width="91.400002"
   height="91.400002"
   id="rect368"
   style="fill:#333333" />
&#10;					<path
   class="st2"
   d="m 1784.5,954.7 v 89.4 h -89.4 v -89.4 h 89.4 m 2,-2 h -2 -89.4 -2 v 2 89.4 2 h 2 89.4 2 v -2 -89.4 z"
   id="path368"
   style="fill:#00fefe" />
&#10;				</g>
  </g>
</svg>
