<?xml version="1.0" encoding="utf-8"?>
<!-- Generator: Adobe Illustrator 22.1.0, SVG Export Plug-In . SVG Version: 6.00 Build 0)  -->
<svg version="1.1" xmlns="http://www.w3.org/2000/svg" xmlns:xlink="http://www.w3.org/1999/xlink" x="0px" y="0px"
	 viewBox="0 0 2000 2000" style="enable-background:new 0 0 2000 2000;" xml:space="preserve">
<style type="text/css">
	.st0{fill:#1B2638;}
	.st1{fill:#424953;}
	.st2{fill:#FFFFFF;}
</style>
<g id="Layer_2">
	<rect x="-0.5" y="-0.5" class="st0" width="2000" height="2000"/>
</g>
<g id="Layer_1">
	<path class="st1" d="M406.9,236.3H220.3c-11.2,0-20.3,9.1-20.3,20.3v186.6c0,11.2,9.1,20.3,20.3,20.3h186.6
		c11.2,0,20.3-9.1,20.3-20.3V256.6C427.2,245.4,418.1,236.3,406.9,236.3z"/>
	<path class="st1" d="M750.1,236.3H563.5c-11.2,0-20.3,9.1-20.3,20.3v186.6c0,11.2,9.1,20.3,20.3,20.3h186.7
		c11.2,0,20.3-9.1,20.3-20.3V256.6C770.4,245.4,761.3,236.3,750.1,236.3z"/>
	<path class="st1" d="M1093.3,236.3H906.7c-11.2,0-20.3,9.1-20.3,20.3v186.6c0,11.2,9.1,20.3,20.3,20.3h186.6
		c11.2,0,20.3-9.1,20.3-20.3V256.6C1113.6,245.4,1104.5,236.3,1093.3,236.3z"/>
	<path class="st1" d="M1436.5,236.3h-186.6c-11.2,0-20.3,9.1-20.3,20.3v186.6c0,11.2,9.1,20.3,20.3,20.3h186.6
		c11.2,0,20.3-9.1,20.3-20.3V256.6C1456.8,245.4,1447.7,236.3,1436.5,236.3z"/>
	<path class="st1" d="M1779.7,236.3h-186.7c-11.2,0-20.3,9.1-20.3,20.3v186.6c0,11.2,9.1,20.3,20.3,20.3h186.7
		c11.2,0,20.3-9.1,20.3-20.3V256.6C1800,245.4,1790.9,236.3,1779.7,236.3z"/>
	<path class="st1" d="M406.9,561.4H220.3c-11.2,0-20.3,9.1-20.3,20.3v186.6c0,11.2,9.1,20.3,20.3,20.3h186.6
		c11.2,0,20.3-9.1,20.3-20.3V581.6C427.2,570.4,418.1,561.4,406.9,561.4z"/>
	<path class="st1" d="M750.1,561.4H563.5c-11.2,0-20.3,9.1-20.3,20.3v186.6c0,11.2,9.1,20.3,20.3,20.3h186.7
		c11.2,0,20.3-9.1,20.3-20.3V581.6C770.4,570.4,761.3,561.4,750.1,561.4z"/>
	<path class="st1" d="M1093.3,561.4H906.7c-11.2,0-20.3,9.1-20.3,20.3v186.6c0,11.2,9.1,20.3,20.3,20.3h186.6
		c11.2,0,20.3-9.1,20.3-20.3V581.6C1113.6,570.4,1104.5,561.4,1093.3,561.4z"/>
	<path class="st1" d="M1436.5,561.4h-186.6c-11.2,0-20.3,9.1-20.3,20.3v186.6c0,11.2,9.1,20.3,20.3,20.3h186.6
		c11.2,0,20.3-9.1,20.3-20.3V581.6C1456.8,570.4,1447.7,561.4,1436.5,561.4z"/>
	<path class="st1" d="M406.9,886.4H220.3c-11.2,0-20.3,9.1-20.3,20.3v186.6c0,11.2,9.1,20.3,20.3,20.3h186.6
		c11.2,0,20.3-9.1,20.3-20.3V906.7C427.2,895.5,418.1,886.4,406.9,886.4z"/>
	<path class="st1" d="M750.1,886.4H563.5c-11.2,0-20.3,9.1-20.3,20.3v186.6c0,11.2,9.1,20.3,20.3,20.3h186.7
		c11.2,0,20.3-9.1,20.3-20.3V906.7C770.4,895.5,761.3,886.4,750.1,886.4z"/>
	<path class="st1" d="M1093.3,886.4H906.7c-11.2,0-20.3,9.1-20.3,20.3v186.6c0,11.2,9.1,20.3,20.3,20.3h186.6
		c11.2,0,20.3-9.1,20.3-20.3V906.7C1113.6,895.5,1104.5,886.4,1093.3,886.4z"/>
	<path class="st1" d="M1436.5,886.4h-186.6c-11.2,0-20.3,9.1-20.3,20.3v186.6c0,11.2,9.1,20.3,20.3,20.3h186.6
		c11.2,0,20.3-9.1,20.3-20.3V906.7C1456.8,895.5,1447.7,886.4,1436.5,886.4z"/>
	<path class="st1" d="M1779.7,886.4h-186.7c-11.2,0-20.3,9.1-20.3,20.3v186.6c0,11.2,9.1,20.3,20.3,20.3h186.7
		c11.2,0,20.3-9.1,20.3-20.3V906.7C1800,895.5,1790.9,886.4,1779.7,886.4z"/>
	<path class="st1" d="M406.9,1211.5H220.3c-11.2,0-20.3,9.1-20.3,20.3v186.6c0,11.2,9.1,20.3,20.3,20.3h186.6
		c11.2,0,20.3-9.1,20.3-20.3v-186.6C427.2,1220.5,418.1,1211.5,406.9,1211.5z"/>
	<path class="st1" d="M750.1,1211.5H563.5c-11.2,0-20.3,9.1-20.3,20.3v186.6c0,11.2,9.1,20.3,20.3,20.3h186.7
		c11.2,0,20.3-9.1,20.3-20.3v-186.6C770.4,1220.5,761.3,1211.5,750.1,1211.5z"/>
	<path class="st1" d="M1093.3,1211.5H906.7c-11.2,0-20.3,9.1-20.3,20.3v186.6c0,11.2,9.1,20.3,20.3,20.3h186.6
		c11.2,0,20.3-9.1,20.3-20.3v-186.6C1113.6,1220.5,1104.5,1211.5,1093.3,1211.5z"/>
	<path class="st1" d="M1779.7,1211.5h-186.7c-11.2,0-20.3,9.1-20.3,20.3v186.6c0,11.2,9.1,20.3,20.3,20.3h186.7
		c11.2,0,20.3-9.1,20.3-20.3v-186.6C1800,1220.5,1790.9,1211.5,1779.7,1211.5z"/>
	<path class="st1" d="M406.9,1536.5H220.3c-11.2,0-20.3,9.1-20.3,20.3v186.6c0,11.2,9.1,20.3,20.3,20.3h186.6
		c11.2,0,20.3-9.1,20.3-20.3v-186.6C427.2,1545.6,418.1,1536.5,406.9,1536.5z"/>
	<path class="st1" d="M750.1,1536.5H563.5c-11.2,0-20.3,9.1-20.3,20.3v186.6c0,11.2,9.1,20.3,20.3,20.3h186.7
		c11.2,0,20.3-9.1,20.3-20.3v-186.6C770.4,1545.6,761.3,1536.5,750.1,1536.5z"/>
	<path class="st1" d="M1093.3,1536.5H906.7c-11.2,0-20.3,9.1-20.3,20.3v186.6c0,11.2,9.1,20.3,20.3,20.3h186.6
		c11.2,0,20.3-9.1,20.3-20.3v-186.6C1113.6,1545.6,1104.5,1536.5,1093.3,1536.5z"/>
	<path class="st1" d="M1436.5,1536.5h-186.6c-11.2,0-20.3,9.1-20.3,20.3v186.6c0,11.2,9.1,20.3,20.3,20.3h186.6
		c11.2,0,20.3-9.1,20.3-20.3v-186.6C1456.8,1545.6,1447.7,1536.5,1436.5,1536.5z"/>
	<path class="st1" d="M1783.3,1536.5h-193.8c-8.8,0-15.5,7.8-14.3,16.5l27.6,188.8c1.8,12.6,12.6,21.9,25.4,21.9h115.2
		c12.7,0,23.4-9.3,25.3-21.7l28.8-188.9C1798.8,1544.4,1792.1,1536.5,1783.3,1536.5z"/>
	<path class="st1" d="M1779.7,561.4h-37.1l29.2-0.1c0,0,0.5-21.4-31.3-43.2c0,0,9.2,17.8,0.4,43.4h-109.1
		c-8.9-25.6,0.3-43.4,0.3-43.4c-31.8,21.9-31.2,43.2-31.2,43.2l29.2,0.1h-37.1c-11.2,0-20.3,9.1-20.3,20.3v186.6
		c0,11.2,9.1,20.3,20.3,20.3h186.7c11.2,0,20.3-9.1,20.3-20.3V581.6C1800,570.4,1790.9,561.4,1779.7,561.4z"/>
	<path class="st1" d="M1436.5,1211.5h-186.6c-11.2,0-20.3,9.1-20.3,20.3v186.6c0,11.2,9.1,20.3,20.3,20.3h186.6
		c11.2,0,20.3-9.1,20.3-20.3v-186.6C1456.8,1220.5,1447.7,1211.5,1436.5,1211.5z"/>
	<path class="st2" d="M724.6,627.9c-4.3-4.3-11.3-4.3-15.6,0l-2.6,2.6c-0.7,0.7-1.8,0.7-2.5,0l-2.6-2.6c-4.3-4.3-11.3-4.4-15.6,0
		l-3,3c-4.3,4.3-4.3,11.3,0,15.6l21.2,21.2c0.7,0.7,1.8,0.7,2.5,0l21.2-21.2c4.3-4.3,4.3-11.3,0-15.6L724.6,627.9z"/>
	<path class="st2" d="M689.7,331.6h19c4,0,7.2-3.2,7.2-7.2v-19c0-4-3.2-7.2-7.2-7.2h-19c-4,0-7.2,3.2-7.2,7.2v19
		C682.5,328.4,685.7,331.6,689.7,331.6z"/>
	<path class="st2" d="M608.6,331.6h19c4,0,7.2-3.2,7.2-7.2v-19c0-4-3.2-7.2-7.2-7.2h-19c-4,0-7.2,3.2-7.2,7.2v19
		C601.4,328.4,604.6,331.6,608.6,331.6z"/>
	<path class="st2" d="M970.8,1631.8c4,0,7.2-3.2,7.2-7.2v-19c0-4-3.2-7.2-7.2-7.2h-19c-4,0-7.2,3.2-7.2,7.2v19c0,4,3.2,7.2,7.2,7.2
		H970.8z"/>
	<path class="st2" d="M656.8,381.3c-30.3,0-55.5,14.7-61,34h14.7c6-10.8,23.4-20.4,46.3-20.4c22.9,0,40.2,9.6,46.2,20.4h14.7
		C712.3,396,687.1,381.3,656.8,381.3z"/>
	<path class="st2" d="M983.9,1581h7.4c-2.8-9.7-15.3-17-30.5-17s-27.7,7.3-30.5,17h7.4c3-5.4,11.7-10.2,23.1-10.2
		C972.2,1570.7,980.9,1575.5,983.9,1581z"/>
	<path class="st2" d="M656.8,736.1c-22.9,0-40.3-9.6-46.3-20.4h-14.7c5.5,19.4,30.7,34,61,34c30.2,0,55.4-14.7,60.9-34h-14.7
		C697.1,726.5,679.7,736.1,656.8,736.1z"/>
	<path class="st2" d="M617.1,988.3c10.9,0,19.9-8.3,21.1-18.9h-9.3c-1.1,5.6-6,9.8-11.8,9.8c-5.9,0-10.8-4.2-11.8-9.8H596
		C597.1,980,606.1,988.3,617.1,988.3z"/>
	<path class="st2" d="M1000,1723.4c24.1,0,44.4-13.2,50.3-31.2H949.7C955.6,1710.2,975.9,1723.4,1000,1723.4z"/>
	<path class="st2" d="M656.8,1052.7c-22.9,0-40.3-9.6-46.3-20.4h-14.7c5.5,19.4,30.7,34,61,34c30.2,0,55.4-14.7,60.9-34h-14.7
		C697.1,1043,679.7,1052.7,656.8,1052.7z"/>
	<polygon class="st2" points="674.5,1289.1 679.2,1298.1 729.5,1270.1 724.8,1261 	"/>
	<path class="st2" d="M711.5,1306.8h-19c-4,0-7.2,3.2-7.2,7.2v12.5c0,4,3.2,7.2,7.2,7.2h19c4,0,7.2-3.2,7.2-7.2V1314
		C718.8,1310,715.5,1306.8,711.5,1306.8z"/>
	<path class="st2" d="M698.4,979.2c-5.9,0-10.8-4.2-11.8-9.8h-9.3c1.2,10.6,10.1,18.9,21.1,18.9s19.9-8.3,21.1-18.9h-9.3
		C709.1,975,704.2,979.2,698.4,979.2z"/>
	<path class="st2" d="M610.7,667.6l21.2-21.2c4.3-4.3,4.3-11.3,0-15.6l-3-3c-4.3-4.3-11.3-4.3-15.6,0l-2.6,2.6
		c-0.7,0.7-1.8,0.7-2.5,0l-2.6-2.6c-4.3-4.3-11.3-4.3-15.6,0l-3,3c-4.3,4.3-4.3,11.3,0,15.6l21.2,21.2
		C608.9,668.3,610,668.3,610.7,667.6z"/>
	<path class="st2" d="M978,984.7v-19c0-4-3.2-7.2-7.2-7.2h-19c-4,0-7.2,3.2-7.2,7.2v19c0,4,3.2,7.2,7.2,7.2h19
		C974.8,991.9,978,988.7,978,984.7z"/>
	<path class="st2" d="M1069.4,938.2h-54c-1.9,0-3.5,1.6-3.5,3.5v3.3c0,1.9,1.6,3.5,3.5,3.5h54c1.9,0,3.5-1.6,3.5-3.5v-3.3
		C1072.9,939.7,1071.3,938.2,1069.4,938.2z"/>
	<path class="st2" d="M1036.2,1049.3h-72.5c-2.4,0-4.3,1.9-4.3,4.3v5c0,2.4,1.9,4.3,4.3,4.3h72.5c2.4,0,4.3-1.9,4.3-4.3v-5
		C1040.6,1051.2,1038.6,1049.3,1036.2,1049.3z"/>
	<path class="st2" d="M1051.9,958.5h-19c-4,0-7.2,3.2-7.2,7.2v19c0,4,3.2,7.2,7.2,7.2h19c4,0,7.2-3.2,7.2-7.2v-19
		C1059.2,961.7,1055.9,958.5,1051.9,958.5z"/>
	<path class="st2" d="M951.8,656.7h19c4,0,7.2-3.2,7.2-7.2v-19c0-4-3.2-7.2-7.2-7.2h-19c-4,0-7.2,3.2-7.2,7.2v19
		C944.6,653.4,947.8,656.7,951.8,656.7z"/>
	<path class="st2" d="M1032.9,656.7h19c4,0,7.2-3.2,7.2-7.2v-19c0-4-3.2-7.2-7.2-7.2h-19c-4,0-7.2,3.2-7.2,7.2v19
		C1025.7,653.4,1028.9,656.7,1032.9,656.7z"/>
	<path class="st2" d="M1064.9,1610h-35.6c-1.2,0-2.2,1-2.2,2.2v5.9c0,1.2,1,2.2,2.2,2.2h35.6c1.2,0,2.2-1,2.2-2.2v-5.9
		C1067.1,1610.9,1066.1,1610,1064.9,1610z"/>
	<path class="st2" d="M1044,1581.3c-15.1,0-27.7,7.3-30.5,17h7.4c3-5.4,11.7-10.2,23.1-10.2s20.1,4.8,23.1,10.2h7.4
		C1071.7,1588.6,1059.2,1581.3,1044,1581.3z"/>
	<path class="st2" d="M991.8,924.1v-3.3c0-1.9-1.6-3.5-3.5-3.5h-54c-1.9,0-3.5,1.6-3.5,3.5v3.3c0,1.9,1.6,3.5,3.5,3.5h54
		C990.2,927.5,991.8,926,991.8,924.1z"/>
	<path class="st2" d="M970.8,1306.8c4,0,7.2-3.2,7.2-7.2v-19c0-4-3.2-7.2-7.2-7.2h-19c-4,0-7.2,3.2-7.2,7.2v19c0,4,3.2,7.2,7.2,7.2
		H970.8z"/>
	<path class="st2" d="M1049.5,1353.8c1.6-0.3,2.7-1.6,2.8-3.2l0.2-3.3c0.1-2.2-1.8-4-3.9-3.7c-3.4,0.5-8.3,1.9-12.5,5.8
		c-4.2,4-6.6,9.5-7.1,16.4h-56.1c-0.8-5.8-3.1-10.6-6.8-14.1c-4.2-3.9-9.1-5.3-12.5-5.8c-2.2-0.3-4.1,1.5-3.9,3.7l0.2,3.3
		c0.1,1.6,1.3,2.9,2.8,3.2c1.9,0.3,4.4,1.1,6.4,3c2.7,2.5,4,6.4,4,11.7c0,11.6-6.6,14.7-10.6,15.6c-1.6,0.3-2.7,1.7-2.7,3.3
		c0,0,0,2.9,0,5c0,1.2,1,2.1,2.2,2c3.3-0.4,9.3-1.7,14.2-6.6c3.7-3.6,6-8.4,6.8-14.2h56.8c1,4.8,3.1,8.7,6.3,11.9
		c5,4.9,11.1,6.3,14.4,6.6c1.1,0.1,2-0.7,2-1.8c0-2.1,0-5.2,0-5.2c0-1.6-1.1-3-2.7-3.3c-4-0.9-10.6-4-10.6-15.6
		c0-5.3,1.3-9.2,4-11.7C1045.1,1354.9,1047.6,1354.1,1049.5,1353.8z"/>
	<path class="st2" d="M1051.9,1273.3h-19c-4,0-7.2,3.2-7.2,7.2v19c0,4,3.2,7.2,7.2,7.2h19c4,0,7.2-3.2,7.2-7.2v-19
		C1059.2,1276.5,1055.9,1273.3,1051.9,1273.3z"/>
	<path class="st2" d="M314.5,415c-22.9,0-40.3-9.6-46.3-20.4h-14.7c5.5,19.4,30.7,34,61,34c30.2,0,55.4-14.7,60.9-34h-14.7
		C354.7,405.4,337.3,415,314.5,415z"/>
	<path class="st2" d="M326.9,1362.6c-0.6-0.4-1.3-0.7-2-1c0.4-0.6,0.7-1.2,1-1.9c0.9-2.4,1.3-6.3-2.2-11.1c-3.8-5.1-8-6.1-10.8-6
		c-6.5,0.2-11.7,5.8-14,8.7c-0.7,0.9-0.5,2.1,0.4,2.8l2.5,1.7c0.8,0.5,1.9,0.4,2.5-0.4c1.9-2.3,5.4-5.9,8.7-6c0.6,0,2.7-0.1,5.1,3.3
		c2,2.7,1.5,4.1,1.3,4.5c-0.6,1.6-2.6,3-4.8,4.2c-3.2,0.6-6.1,1.7-7.9,2.5c-0.9,0.4-1.4,1.4-1.1,2.3l1.1,3.1c0.3,1,1.3,1.5,2.2,1.3
		c1.8-0.4,4.8-1.3,7.8-2.7c2.6-0.5,5-0.5,6.5,0.4c0.4,0.3,1.7,1.1,1.8,4.5c0.1,3.7-1.5,4.9-2,5.2c-3,2.2-9.3,1.3-12.8,0.4
		c-1-0.2-2,0.3-2.3,1.3l-1,2.9c-0.3,1.1,0.2,2.1,1.3,2.4c2,0.5,5.4,1.2,8.9,1.2c3.4,0,7.1-0.6,9.9-2.7c2.2-1.6,4.8-4.8,4.7-10.9
		C331.8,1366.9,329.1,1364,326.9,1362.6z"/>
	<path class="st2" d="M284.4,1273.3h-19c-4,0-7.2,3.2-7.2,7.2v19c0,4,3.2,7.2,7.2,7.2h19c4,0,7.2-3.2,7.2-7.2v-19
		C291.6,1276.5,288.4,1273.3,284.4,1273.3z"/>
	<polygon class="st2" points="388.4,1663.3 389.6,1649.6 381.3,1645.2 367.2,1656.8 373.7,1664.7 378.4,1660.8 377.1,1674.6 
		385.5,1678.9 399.6,1667.3 393,1659.5 	"/>
	<path class="st2" d="M291.6,974.5v-19c0-4-3.2-7.2-7.2-7.2h-19c-4,0-7.2,3.2-7.2,7.2v19c0,4,3.2,7.2,7.2,7.2h19
		C288.4,981.7,291.6,978.5,291.6,974.5z"/>
	<path class="st2" d="M351.7,1049.3h-72.5c-2.4,0-4.3,1.9-4.3,4.3v5c0,2.4,1.9,4.3,4.3,4.3h72.5c2.4,0,4.3-1.9,4.3-4.3v-5
		C356,1051.2,354,1049.3,351.7,1049.3z"/>
	<path class="st2" d="M656.8,1370.2c-26.2,0-48.1,12.7-52.9,29.5h12.8c5.2-9.4,20.3-17.7,40.2-17.7c19.9,0,34.9,8.3,40.1,17.7h12.8
		C704.9,1382.9,683,1370.2,656.8,1370.2z"/>
	<path class="st2" d="M377.8,1608h-9.2c-1.1,5.6-6,9.8-11.8,9.8c-5.8,0-10.8-4.2-11.8-9.8h-9.3c1.2,10.6,10.1,18.9,21.1,18.9
		C367.6,1626.9,376.7,1618.6,377.8,1608z"/>
	<path class="st2" d="M323.1,1679.2h-19c-4,0-7.2,4.3-7.2,9.5v25.2c0,5.2,3.2,9.5,7.2,9.5h19c4,0,7.2-4.3,7.2-9.5v-25.2
		C330.3,1683.5,327.1,1679.2,323.1,1679.2z"/>
	<path class="st2" d="M274.6,1617.8c-5.9,0-10.8-4.2-11.8-9.8h-9.3c1.2,10.6,10.1,18.9,21.1,18.9s19.9-8.3,21.1-18.9h-9.3
		C285.4,1613.6,280.5,1617.8,274.6,1617.8z"/>
	<polygon class="st2" points="367.1,1680.3 369.9,1667.8 364.9,1664.1 352.7,1671.1 356.1,1677 361.6,1673.9 358.7,1686.4 
		363.7,1690.1 375.9,1683.1 372.5,1677.2 	"/>
	<path class="st2" d="M352.9,670.7h15.4c5,0,9-4.1,9-9.1v-34.2c0-5-4.1-9.1-9-9.1h-15.4c-5,0-9.1,4.1-9.1,9.1v34.2
		C343.8,666.7,347.9,670.7,352.9,670.7z"/>
	<polygon class="st2" points="354,1690.4 356.5,1682.8 351.9,1678.6 342.4,1682.7 345.2,1689 347.7,1687.8 345.2,1695.5 
		349.8,1699.6 359.3,1695.6 356.5,1689.3 	"/>
	<path class="st2" d="M365.5,948.2h-19c-4,0-7.2,3.2-7.2,7.2v19c0,4,3.2,7.2,7.2,7.2h19c4,0,7.2-3.2,7.2-7.2v-19
		C372.7,951.5,369.5,948.2,365.5,948.2z"/>
	<path class="st2" d="M710.3,1611.8h-22.3c-3.1,0-5.6,2.5-5.6,5.6v8.8c0,3.1,2.5,5.6,5.6,5.6h22.3c3.1,0,5.6-2.5,5.6-5.6v-8.8
		C715.9,1614.3,713.4,1611.8,710.3,1611.8z"/>
	<path class="st2" d="M261,670.7h15.4c5,0,9-4.1,9-9.1v-34.2c0-5-4.1-9.1-9-9.1H261c-5,0-9.1,4.1-9.1,9.1v34.2
		C251.9,666.7,256,670.7,261,670.7z"/>
	<path class="st2" d="M698.4,1587.1c-15.1,0-27.7,7.3-30.5,17h7.4c3-5.4,11.7-10.2,23.1-10.2c11.4,0,20.1,4.8,23.1,10.2h7.4
		C726.1,1594.4,713.5,1587.1,698.4,1587.1z"/>
	<path class="st2" d="M628.3,1326.5V1314c0-4-3.2-7.2-7.2-7.2h-19c-4,0-7.2,3.2-7.2,7.2v12.5c0,4,3.2,7.2,7.2,7.2h19
		C625.1,1333.7,628.3,1330.5,628.3,1326.5z"/>
	<polygon class="st2" points="642.1,1289.7 591.4,1261.2 586.7,1270.3 637.3,1298.7 	"/>
	<path class="st2" d="M629.2,1631.8c3.1,0,5.6-2.5,5.6-5.6v-8.8c0-3.1-2.5-5.6-5.6-5.6h-22.3c-3.1,0-5.6,2.5-5.6,5.6v8.8
		c0,3.1,2.5,5.6,5.6,5.6H629.2z"/>
	<path class="st2" d="M656.8,1710.4c24.1,0,44.4-13.2,50.3-31.2H606.4C612.4,1697.2,632.7,1710.4,656.8,1710.4z"/>
	<path class="st2" d="M346.5,331.6h19c4,0,7.2-3.2,7.2-7.2v-19c0-4-3.2-7.2-7.2-7.2h-19c-4,0-7.2,3.2-7.2,7.2v19
		C339.3,328.4,342.5,331.6,346.5,331.6z"/>
	<path class="st2" d="M315.1,756.8c31.1,0,57.3-20.5,65-48.2h-130C257.8,736.3,284,756.8,315.1,756.8z"/>
	<path class="st2" d="M1047.2,719.6c-8.7,0-12.5,4-15.2,6.9c-2.3,2.4-3.5,3.8-8.1,3.8c-4.4,0-5.7-1.3-7.9-3.7c-2.9-2.9-6.7-7-16-7
		c-9.3,0-13.1,4.1-15.9,7c-2.2,2.3-3.4,3.6-7.8,3.6c-4.4,0-5.5-1.3-7.6-3.7c-2.5-2.9-6-6.9-14.3-6.9c-13.1,0-18.5,9.7-19.5,14.7
		l10,2.1c0.3-1.1,1.9-6.6,9.5-6.6c3.7,0,4.6,1.1,6.6,3.4c2.6,3.1,6.2,7.2,15.4,7.2c8.8,0,12.5-3.9,15.2-6.8c2.2-2.4,3.6-3.8,8.5-3.8
		c5,0,6.4,1.5,8.7,3.9c2.8,2.9,6.5,6.8,15.3,6.8c8.9,0,12.7-4,15.5-7c2.2-2.3,3.5-3.7,7.8-3.7c5.1,0,8.1,6.1,8.1,6.2l9.3-4.4
		C1062.5,727.2,1056.5,719.6,1047.2,719.6z"/>
	<path class="st2" d="M265.4,331.6h19c4,0,7.2-3.2,7.2-7.2v-19c0-4-3.2-7.2-7.2-7.2h-19c-4,0-7.2,3.2-7.2,7.2v19
		C258.1,328.4,261.4,331.6,265.4,331.6z"/>
	<path class="st2" d="M638.3,1604.1h7.4c-2.8-9.7-15.4-17-30.5-17s-27.7,7.3-30.5,17h7.4c3-5.4,11.7-10.2,23.1-10.2
		C626.6,1593.9,635.3,1598.7,638.3,1604.1z"/>
	<path class="st2" d="M365.5,1273.3h-19c-4,0-7.2,3.2-7.2,7.2v19c0,4,3.2,7.2,7.2,7.2h19c4,0,7.2-3.2,7.2-7.2v-19
		C372.7,1276.5,369.5,1273.3,365.5,1273.3z"/>
	<path class="st2" d="M1343.2,741.1c-22.9,0-40.3-9.6-46.3-20.4h-14.7c5.5,19.4,30.8,34,61,34s55.4-14.7,61-34h-14.7
		C1383.5,731.5,1366.1,741.1,1343.2,741.1z"/>
	<polygon class="st2" points="1282.9,664.5 1289,672.7 1322.6,647.6 1289.5,614.5 1282.3,621.7 1307,646.4 	"/>
	<path class="st2" d="M1664.4,974.5v-19c0-4-3.2-7.2-7.2-7.2h-19c-4,0-7.2,3.2-7.2,7.2v19c0,4,3.2,7.2,7.2,7.2h19
		C1661.2,981.7,1664.4,978.5,1664.4,974.5z"/>
	<path class="st2" d="M1367.5,373.7h-44.8c-10,0-18.1,8.1-18.1,18.1v26c0,10,8.1,18.1,18.1,18.1h44.8c10,0,18.1-8.1,18.1-18.1v-26
		C1385.6,381.9,1377.5,373.7,1367.5,373.7z"/>
	<path class="st2" d="M1321.2,331.6v-26.2c0-4-3.2-7.2-7.2-7.2h-19c-4,0-7.2,3.2-7.2,7.2v26.2c0,4,3.2,7.2,7.2,7.2h19
		C1318,338.9,1321.2,335.6,1321.2,331.6z"/>
	<path class="st2" d="M1343.2,1044.7c-22.9,0-40.3-9.6-46.3-20.4h-14.7c1.8,6.2,5.5,11.9,10.9,16.8l-12.1,21c-2.2,3.8-0.9,8.8,3,11
		l13.4,7.8c3.9,2.2,8.8,0.9,11.1-3l12.8-22.3c6.8,1.8,14.2,2.7,22,2.7c30.2,0,55.4-14.7,61-34h-14.7
		C1383.5,1035.1,1366.1,1044.7,1343.2,1044.7z"/>
	<path class="st2" d="M1295,981.7h19c4,0,7.2-3.2,7.2-7.2v-19c0-4-3.2-7.2-7.2-7.2h-19c-4,0-7.2,3.2-7.2,7.2v19
		C1287.7,978.5,1291,981.7,1295,981.7z"/>
	<polygon class="st2" points="1707.6,1015.9 1686.9,1036.6 1666.3,1015.9 1657,1025.1 1677.7,1045.8 1657,1066.4 1666.3,1075.6 
		1686.9,1055 1707.6,1075.6 1716.8,1066.4 1696.2,1045.8 1716.8,1025.1 	"/>
	<polygon class="st2" points="1403.5,664.5 1379.4,646.4 1404.1,621.7 1396.9,614.5 1363.8,647.6 1397.4,672.7 	"/>
	<path class="st2" d="M1744.1,1605.7c-3.4-3.8-9.3-4.1-13.1-0.7l-26.9,24.3c-3.8,3.4-4.1,9.3-0.7,13.1l10,11.1
		c3.4,3.8,9.3,4.1,13.1,0.7l26.9-24.3c3.8-3.4,4.1-9.3,0.7-13.1L1744.1,1605.7z"/>
	<polygon class="st2" points="1743.6,1266.6 1727.4,1282.8 1711.2,1266.6 1704,1273.8 1720.2,1290 1704,1306.2 1711.2,1313.4 
		1727.4,1297.3 1743.6,1313.4 1750.8,1306.2 1734.6,1290 1750.8,1273.8 	"/>
	<polygon class="st2" points="1661.6,1313.4 1668.8,1306.2 1652.7,1290 1668.8,1273.8 1661.6,1266.6 1645.4,1282.8 1629.2,1266.6 
		1622,1273.8 1638.2,1290 1622,1306.2 1629.2,1313.4 1645.4,1297.3 	"/>
	<path class="st2" d="M1657.2,298.1h-19c-4,0-7.2,3.2-7.2,7.2v19c0,4,3.2,7.2,7.2,7.2h19c4,0,7.2-3.2,7.2-7.2v-19
		C1664.4,301.4,1661.2,298.1,1657.2,298.1z"/>
	<path class="st2" d="M1686.4,1701.2c-16.5,0-29-6.9-33.3-14.7h-10.6c4,14,22.1,24.5,43.9,24.5c21.7,0,39.9-10.6,43.9-24.5h-10.6
		C1715.4,1694.2,1702.9,1701.2,1686.4,1701.2z"/>
	<path class="st2" d="M1395.1,298.1h-19c-4,0-7.2,3.2-7.2,7.2v26.2c0,4,3.2,7.2,7.2,7.2h19c4,0,7.2-3.2,7.2-7.2v-26.2
		C1402.3,301.4,1399.1,298.1,1395.1,298.1z"/>
	<path class="st2" d="M1657.6,1653.4l10-11.1c3.4-3.8,3.1-9.6-0.7-13.1l-26.9-24.3c-3.8-3.4-9.6-3.1-13.1,0.7l-10,11.1
		c-3.4,3.8-3.1,9.7,0.7,13.1l26.9,24.3C1648.4,1657.5,1654.2,1657.2,1657.6,1653.4z"/>
	<path class="st2" d="M1738.3,298.1h-19c-4,0-7.2,3.2-7.2,7.2v19c0,4,3.2,7.2,7.2,7.2h19c4,0,7.2-3.2,7.2-7.2v-19
		C1745.5,301.4,1742.3,298.1,1738.3,298.1z"/>
	<path class="st2" d="M1042.4,279.6c-15.1,0-27.7,7.3-30.5,17h7.4c3-5.4,11.7-10.2,23.1-10.2c11.4,0,20.1,4.8,23.1,10.2h7.4
		C1070.1,286.9,1057.5,279.6,1042.4,279.6z"/>
	<path class="st2" d="M1051.9,304.8h-19c-4,0-7.2,3.2-7.2,7.2v30.6c0,4,3.2,7.2,7.2,7.2h19c4,0,7.2-3.2,7.2-7.2V312
		C1059.2,308,1055.9,304.8,1051.9,304.8z"/>
	<path class="st2" d="M1738.3,948.2h-19c-4,0-7.2,3.2-7.2,7.2v19c0,4,3.2,7.2,7.2,7.2h19c4,0,7.2-3.2,7.2-7.2v-19
		C1745.5,951.5,1742.3,948.2,1738.3,948.2z"/>
	<path class="st2" d="M1321.2,1624.6v-19c0-4-3.2-7.2-7.2-7.2h-19c-4,0-7.2,3.2-7.2,7.2v19c0,4,3.2,7.2,7.2,7.2h19
		C1318,1631.8,1321.2,1628.6,1321.2,1624.6z"/>
	<path class="st2" d="M951.8,304.8c-4,0-7.2,3.2-7.2,7.2v30.6c0,4,3.2,7.2,7.2,7.2h19c4,0,7.2-3.2,7.2-7.2V312c0-4-3.2-7.2-7.2-7.2
		H951.8z"/>
	<path class="st2" d="M998.2,381.3c-30.3,0-55.5,14.7-61,34h14.7c6-10.8,23.4-20.4,46.3-20.4c22.9,0,40.2,9.6,46.2,20.4h14.7
		C1053.6,396,1028.5,381.3,998.2,381.3z"/>
	<path class="st2" d="M959.2,286.4c11.4,0,20.1,4.8,23.1,10.2h7.4c-2.8-9.7-15.3-17-30.5-17c-15.1,0-27.7,7.3-30.5,17h7.4
		C939,291.2,947.7,286.4,959.2,286.4z"/>
	<path class="st2" d="M1344.9,1679.2c-19.3,0-35.2,10.4-38.2,24c-0.5,2.3,1.3,4.6,3.6,4.6h7c7-5.3,16.7-8.5,27.5-8.5
		c10.8,0,20.6,3.3,27.6,8.5h7c2.4,0,4.2-2.2,3.6-4.6C1380.2,1689.6,1364.2,1679.2,1344.9,1679.2z"/>
	<path class="st2" d="M1376.1,981.7h19c4,0,7.2-3.2,7.2-7.2v-19c0-4-3.2-7.2-7.2-7.2h-19c-4,0-7.2,3.2-7.2,7.2v19
		C1368.9,978.5,1372.1,981.7,1376.1,981.7z"/>
	<path class="st2" d="M1419.1,1276.1h-150.6c-1.9,0-3.4,1.5-3.4,3.4v6.8c0,1.9,1.5,3.4,3.4,3.4h1.7c1.3,0,2.4,1.1,2.4,2.4v31.8
		c0,7.4,6,13.3,13.3,13.3h35c7.4,0,13.3-6,13.3-13.3v-13c0-2.1,1.7-3.8,3.8-3.8h10.8c2.1,0,3.8,1.7,3.8,3.8v12.9
		c0,7.4,6,13.3,13.3,13.3h35c7.4,0,13.3-6,13.3-13.3v-31.7c0-1.3,1.1-2.4,2.4-2.4h2.4c1.9,0,3.4-1.5,3.4-3.4v-6.8
		C1422.5,1277.7,1421,1276.1,1419.1,1276.1z"/>
	<path class="st2" d="M1686.4,1359.5c-24.1,0-44.4,13.2-50.3,31.2h100.7C1730.8,1372.8,1710.6,1359.5,1686.4,1359.5z"/>
	<path class="st2" d="M1343.2,1381.7c-22.9,0-40.3-9.6-46.3-20.4h-14.7c5.5,19.4,30.8,34,61,34s55.4-14.7,61-34h-14.7
		C1383.5,1372,1366.1,1381.7,1343.2,1381.7z"/>
	<path class="st2" d="M1395.1,1598.3h-19c-4,0-7.2,3.2-7.2,7.2v19c0,4,3.2,7.2,7.2,7.2h19c4,0,7.2-3.2,7.2-7.2v-19
		C1402.3,1601.6,1399.1,1598.3,1395.1,1598.3z"/>
	<path class="st2" d="M1718,738.1l-5.7-29.5h-50.2l-6.5,29.5l-5.7-29.5h-28.5c7.7,27.8,33.9,48.2,65,48.2c31.1,0,57.3-20.5,65-48.2
		h-26.9L1718,738.1z"/>
	<path class="st2" d="M1751.5,623.4l-49.3,28.7c7,9.8,21.2,13.3,33.9,7.8c14.5-6.2,21.8-21.9,16.2-34.9
		C1752,624.5,1751.8,623.9,1751.5,623.4z"/>
	<path class="st2" d="M1640.1,660c12.7,5.5,26.9,1.9,33.9-7.8l-49.3-28.7c-0.3,0.5-0.5,1.1-0.8,1.7
		C1618.3,638.1,1625.6,653.7,1640.1,660z"/>
</g>
</svg>
