<?xml version="1.0" encoding="UTF-8" standalone="no"?>
<!-- Generator: Adobe Illustrator 22.1.0, SVG Export Plug-In . SVG Version: 6.00 Build 0)  -->

<svg
   version="1.1"
   id="Layer_1"
   x="0px"
   y="0px"
   viewBox="0 0 5000 4000"
   style="enable-background:new 0 0 5000 4000;"
   xml:space="preserve"
   sodipodi:docname="Borders blue copy.svg"
   inkscape:version="1.3 (0e150ed6c4, 2023-07-21)"
   xmlns:inkscape="http://www.inkscape.org/namespaces/inkscape"
   xmlns:sodipodi="http://sodipodi.sourceforge.net/DTD/sodipodi-0.dtd"
   xmlns="http://www.w3.org/2000/svg"
   xmlns:svg="http://www.w3.org/2000/svg"
   xmlns:i="&amp;ns_ai;"><defs
   id="defs387">&#10;	&#10;	&#10;</defs><sodipodi:namedview
   id="namedview387"
   pagecolor="#ffffff"
   bordercolor="#000000"
   borderopacity="0.25"
   inkscape:showpageshadow="2"
   inkscape:pageopacity="0.0"
   inkscape:pagecheckerboard="0"
   inkscape:deskcolor="#d1d1d1"
   inkscape:zoom="0.57770624"
   inkscape:cx="1200.4371"
   inkscape:cy="1333.7228"
   inkscape:window-width="1920"
   inkscape:window-height="1094"
   inkscape:window-x="-11"
   inkscape:window-y="-11"
   inkscape:window-maximized="1"
   inkscape:current-layer="g387" />&#10;<style
   type="text/css"
   id="style1">&#10;	.st0{fill:#1A1A1A;}&#10;	.st1{opacity:0.64;}&#10;	.st2{fill:#00FEFE;}&#10;	.st3{opacity:0.69;}&#10;	.st4{fill:#333333;stroke:#00FEFE;stroke-width:2;stroke-linecap:round;stroke-miterlimit:10;}&#10;	.st5{fill:none;}&#10;	.st6{fill:#CCCCCC;}&#10;	.st7{font-family:'MyriadPro-Regular';}&#10;	.st8{font-size:16.9322px;}&#10;	.st9{font-size:18.8136px;}&#10;	.st10{fill:#B3B3B3;}&#10;	.st11{opacity:0.71;}&#10;	.st12{font-size:17.1559px;}&#10;	.st13{font-size:28.5932px;}&#10;	.st14{fill:#333333;}&#10;	.st15{fill:#333333;stroke:#00FEFE;stroke-width:2.2537;stroke-linecap:round;stroke-miterlimit:10;}&#10;	.st16{font-size:18.1408px;}&#10;	.st17{opacity:0.64;fill:#00FEFE;}&#10;	.st18{fill:none;stroke:#00FEFE;stroke-miterlimit:10;}&#10;	.st19{fill:#333333;stroke:#00FEFE;stroke-width:1.9293;stroke-linecap:round;stroke-miterlimit:10;}&#10;	.st20{fill:#333333;stroke:#00FEFE;stroke-width:1.5352;stroke-linecap:round;stroke-miterlimit:10;}&#10;	.st21{fill:#333333;stroke:#00FEFE;stroke-width:2.6052;stroke-linecap:round;stroke-miterlimit:10;}&#10;	.st22{fill:#333333;stroke:#00FEFE;stroke-width:2.7672;stroke-linecap:round;stroke-miterlimit:10;}&#10;	.st23{fill:#333333;stroke:#00FEFE;stroke-width:2.6584;stroke-linecap:round;stroke-miterlimit:10;}&#10;</style>&#10;<g
   i:extraneous="self"
   id="g387">&#10;		<rect
   class="st0"
   width="5000"
   height="4000"
   id="rect1"
   x="0"
   y="0" />&#10;		<g
   class="st1"
   id="g2">&#10;			<rect
   x="3681.1001"
   y="2048"
   width="1069"
   height="1909"
   id="rect2" />&#10;			<path
   class="st2"
   d="m 4744.6,2053.5 v 1898 h -1058 v -1898 h 1058 m 11,-11 h -1080 v 1920 h 1080 z"
   id="path2" />&#10;		</g>&#10;		<polygon
   class="st3"
   points="1177.9,670.9 1151.3,697.6 1151.3,740.1 1151.3,742.1 1151.3,859.9 1428.2,859.9 1628.9,859.9 1628.9,826.9 1628.9,740.1 1295.2,740.1 1294.7,670.9 "
   id="polygon2" />&#10;		<g
   id="g4">&#10;			<polygon
   class="st4"
   points="1148.7,694.4 1174.7,668.4 1290.1,668.4 1290.7,737.6 1148.7,737.6 "
   id="polygon3" />&#10;			<rect
   x="1148.7"
   y="737.59998"
   class="st4"
   width="475.70001"
   height="117.8"
   id="rect3" />&#10;			<polygon
   class="st4"
   points="1624.4,855.4 1427.6,855.4 1467.3,824.3 1624.4,824.3 "
   id="polygon4" />&#10;		</g>&#10;		<rect
   x="1158.4"
   y="746.70001"
   class="st5"
   width="453.79999"
   height="109.6"
   id="rect4" />&#10;		<text
   transform="translate(1158.3735,758.7026)"
   id="text8"><tspan
     x="0"
     y="0"
     class="st6 st7 st8"
     id="tspan4">Lorem ipsum dolor sit amet, consectetuer adipiscing elit, sed </tspan><tspan
     x="0"
     y="20.299999"
     class="st6 st7 st8"
     id="tspan5">diam nonummy nibh euismod tincidunt ut laoreet dolore </tspan><tspan
     x="0"
     y="40.599998"
     class="st6 st7 st8"
     id="tspan6">magna aliquam erat volutpat. Ut wisi enim ad minim veniam, </tspan><tspan
     x="0"
     y="61"
     class="st6 st7 st8"
     id="tspan7">quis nostrud exerci tation ullamcorper </tspan><tspan
     x="0"
     y="81.300003"
     class="st6 st7 st8"
     id="tspan8">tation ullamcorper tation ullamcorper </tspan></text>&#10;		<g
   id="g9">&#10;			<text
   transform="translate(1484.1431,844.853)"
   class="st6 st7 st9"
   id="text9">Lorem ipsum</text>&#10;		</g>&#10;		<g
   id="g10">&#10;			<circle
   class="st10"
   cx="1219.7"
   cy="672.09998"
   r="28.5"
   id="circle9" />&#10;			<path
   class="st10"
   d="m 1182.8,734.2 v -9.3 c 0,-11 8.9,-19.9 19.9,-19.9 h 33.9 c 11,0 19.9,8.9 19.9,19.9 v 9.3 z"
   id="path9" />&#10;		</g>&#10;		<g
   id="g16">&#10;			<polygon
   class="st11"
   points="1149.2,578.7 1432.2,578.7 1472.5,546.4 1633.1,546.4 1633.1,378.3 1216.7,378.3 1149.2,445.9 "
   id="polygon10" />&#10;			<polygon
   class="st4"
   points="1468.6,541.9 1428.3,574.2 1146.6,574.2 1146.6,442.8 1213.6,375.8 1628.6,375.8 1628.6,541.9 "
   id="polygon11" />&#10;			<g
   id="g11">&#10;				<circle
   class="st10"
   cx="1206.5"
   cy="464.89999"
   r="26.799999"
   id="circle11" />&#10;				<path
   class="st10"
   d="m 1241.1,569.9 h -69.3 v -55.2 c 0,-10.3 8.4,-18.7 18.7,-18.7 h 31.8 c 10.3,0 18.7,8.4 18.7,18.7 v 55.2 z"
   id="path11" />&#10;			</g>&#10;			<rect
   x="1262.9"
   y="405.20001"
   class="st5"
   width="352.20001"
   height="105.4"
   id="rect11" />&#10;			<text
   transform="translate(1262.9414,417.3853)"
   id="text15"><tspan
     x="0"
     y="0"
     class="st6 st7 st12"
     id="tspan11">Lorem ipsum dolor sit amet, consectetuer adipisc-</tspan><tspan
     x="0"
     y="20.6"
     class="st6 st7 st12"
     id="tspan12">ing elit, sed diam nonummy nibh euismod tincid-</tspan><tspan
     x="0"
     y="41.200001"
     class="st6 st7 st12"
     id="tspan13">unt ut laoreet dolore magna aliquam erat volut-</tspan><tspan
     x="0"
     y="61.799999"
     class="st6 st7 st12"
     id="tspan14">pat. Ut wisi enim ad minim veniam, quis nostrud </tspan><tspan
     x="0"
     y="82.300003"
     class="st6 st7 st12"
     id="tspan15">exerci tation ullamcorper tation  ullamc orper </tspan></text>&#10;			<text
   transform="translate(1262.9404,554.1265)"
   class="st2 st7 st13"
   id="text16">Lorem ipsum</text>&#10;		</g>&#10;		<g
   id="g17">&#10;			<rect
   x="337"
   y="83.599998"
   class="st14"
   width="282.10001"
   height="506.79999"
   id="rect16" />&#10;			<path
   class="st2"
   d="M 618.1,84.6 V 589.4 H 338 V 84.6 h 280.1 m 2,-2 h -2 -280.1 -2 v 2 504.8 2 h 2 280.1 2 v -2 -504.8 z"
   id="path16" />&#10;		</g>&#10;		<g
   id="g30">&#10;			<g
   class="st11"
   id="g22">&#10;				<polygon
   points="799.8,389.3 757,432.1 757,594.4 973.6,594.4 1039.1,528.9 1039.1,87.7 835.2,87.7 799.8,123.1 "
   id="polygon17" />&#10;				<polygon
   points="778.4,403.7 792.6,389.5 778.2,375.1 "
   id="polygon18" />&#10;				<polygon
   points="796,290.5 796,253.9 777.7,272.2 "
   id="polygon19" />&#10;				<polygon
   points="777.9,304.2 796,322.4 796,297.4 777.8,279.1 "
   id="polygon20" />&#10;				<polygon
   points="778,336.2 796,354.2 796,329.2 777.9,311.1 "
   id="polygon21" />&#10;				<polygon
   points="778.2,368.2 796,386.1 796,361.1 778.1,343.1 "
   id="polygon22" />&#10;			</g>&#10;			<polygon
   class="st4"
   points="796.7,385.7 796.7,119.5 831.6,84.6 1034.1,84.6 1034.1,524.5 969.1,589.4 754,589.4 754,428.5 "
   id="polygon23" />&#10;			<g
   id="g28">&#10;				<polygon
   class="st2"
   points="774.3,399.7 774.2,371.1 788.6,385.4 "
   id="polygon24" />&#10;				<polygon
   class="st2"
   points="773.7,268.1 792,249.8 792,286.5 "
   id="polygon25" />&#10;				<polygon
   class="st2"
   points="792,318.3 773.8,300.2 773.7,275.1 792,293.4 "
   id="polygon26" />&#10;				<polygon
   class="st2"
   points="792,350.2 774,332.2 773.9,307.1 792,325.2 "
   id="polygon27" />&#10;				<polygon
   class="st2"
   points="792,382 774.2,364.2 774,339.1 792,357 "
   id="polygon28" />&#10;			</g>&#10;			<line
   class="st4"
   x1="796.70001"
   y1="385.70001"
   x2="796.70001"
   y2="589.40002"
   id="line28" />&#10;			<g
   id="g29">&#10;				<text
   transform="rotate(-90,680.3274,-102.6067)"
   class="st6 st7 st13"
   id="text28">Lorem ipsum</text>&#10;			</g>&#10;		</g>&#10;		<rect
   x="1470.8"
   y="1015.9"
   class="st15"
   width="110.3"
   height="20"
   id="rect30" />&#10;		<rect
   x="1459.8"
   y="1086.9"
   class="st15"
   width="132.3"
   height="33"
   id="rect31" />&#10;		<g
   id="g46">&#10;			<g
   class="st3"
   id="g37">&#10;				<polygon
   points="1159.9,1093.9 1159.9,1127.4 1193.4,1127.4 "
   id="polygon31" />&#10;				<polygon
   points="1349.3,978.1 1362.9,964.5 1362.9,964.3 1349.3,950.6 "
   id="polygon32" />&#10;				<polygon
   points="1349.3,997.8 1362.9,984.3 1362.9,970.8 1349.3,984.4 "
   id="polygon33" />&#10;				<polygon
   points="1349.3,1017.6 1362.9,1004.1 1362.9,990.6 1349.3,1004.1 "
   id="polygon34" />&#10;				<polygon
   points="1349.3,1037.4 1362.9,1023.8 1362.9,1010.4 1349.3,1023.9 "
   id="polygon35" />&#10;				<polygon
   points="1362.9,1057.3 1362.9,1030.1 1349.3,1043.7 "
   id="polygon36" />&#10;				<polygon
   points="1291.9,931.1 1267.9,907.1 1158.7,907.1 1158.7,934 1158.9,934 1158.9,1082.4 1205,1128.4 1370.9,1128.4 1370.9,1073.3 1344.8,1047.3 1344.8,931.1 "
   id="polygon37" />&#10;			</g>&#10;			<g
   id="g45">&#10;				<polygon
   class="st2"
   points="1158.1,1092 1191.6,1125.6 1158.1,1125.6 "
   id="polygon38" />&#10;				<g
   id="g43">&#10;					<polygon
   class="st2"
   points="1347.4,976.2 1347.4,948.8 1361,962.4 1361,962.6 "
   id="polygon39" />&#10;					<polygon
   class="st2"
   points="1361,982.4 1347.4,996 1347.4,982.5 1361,968.9 "
   id="polygon40" />&#10;					<polygon
   class="st2"
   points="1361,1002.2 1347.4,1015.7 1347.4,1002.3 1361,988.7 "
   id="polygon41" />&#10;					<polygon
   class="st2"
   points="1361,1022 1347.4,1035.5 1347.4,1022 1361,1008.5 "
   id="polygon42" />&#10;					<polygon
   class="st2"
   points="1361,1055.4 1347.4,1041.8 1361,1028.3 "
   id="polygon43" />&#10;				</g>&#10;				<polygon
   class="st4"
   points="1265.6,906.3 1290.5,931.2 1157.8,931.2 1157.8,906.3 "
   id="polygon44" />&#10;				<polygon
   class="st4"
   points="1203.5,1125.6 1158.1,1080.1 1158.1,930.3 1341.9,930.3 1341.9,1045.8 1368,1071.9 1368,1125.6 "
   id="polygon45" />&#10;				<text
   transform="translate(1164.0249,924.1233)"
   class="st6 st7 st16"
   id="text45">Lorem ipsum</text>&#10;			</g>&#10;		</g>&#10;		<g
   id="g61">&#10;			<g
   class="st11"
   id="g51">&#10;				<polygon
   points="1858.6,1327.1 1858.6,1360.6 1892.1,1360.6 "
   id="polygon46" />&#10;				<polygon
   points="2048,1211.2 2061.6,1197.7 2061.6,1197.4 2048,1183.8 "
   id="polygon47" />&#10;				<polygon
   points="2048,1231 2061.6,1217.4 2061.6,1204 2048,1217.5 "
   id="polygon48" />&#10;				<polygon
   points="2048,1250.8 2061.6,1237.2 2061.6,1223.8 2048,1237.3 "
   id="polygon49" />&#10;				<polygon
   points="2048,1270.5 2061.6,1257 2061.6,1243.5 2048,1257.1 "
   id="polygon50" />&#10;				<polygon
   points="2061.6,1290.5 2061.6,1263.3 2048,1276.9 "
   id="polygon51" />&#10;				<path
   d="m 2043.5,1280.4 v -116.1 h -106.8 v -7.7 h 36.8 v -7 h -130.6 v 129.2 h 7 v -40.4 h 7.7 v 77.3 l 46,46 h 166 v -55.1 z m -193.6,-49.1 v -74.8 h 79.9 v 7.7 h -72.1 v 67 h -7.8 z"
   id="path51" />&#10;			</g>&#10;			<g
   id="g60">&#10;				<polygon
   class="st2"
   points="1855.8,1324.3 1889.3,1357.8 1855.8,1357.8 "
   id="polygon52" />&#10;				<g
   id="g57">&#10;					<polygon
   class="st2"
   points="2045.2,1208.4 2045.2,1181 2058.8,1194.6 2058.8,1194.9 "
   id="polygon53" />&#10;					<polygon
   class="st2"
   points="2058.8,1214.7 2045.2,1228.2 2045.2,1214.7 2058.8,1201.2 "
   id="polygon54" />&#10;					<polygon
   class="st2"
   points="2058.8,1234.4 2045.2,1248 2045.2,1234.5 2058.8,1221 "
   id="polygon55" />&#10;					<polygon
   class="st2"
   points="2058.8,1254.2 2045.2,1267.8 2045.2,1254.3 2058.8,1240.7 "
   id="polygon56" />&#10;					<polygon
   class="st2"
   points="2058.8,1287.7 2045.2,1274.1 2058.8,1260.5 "
   id="polygon57" />&#10;				</g>&#10;				<polygon
   class="st4"
   points="1901.3,1357.8 1855.8,1312.4 1855.8,1162.5 2039.7,1162.5 2039.7,1278 2065.8,1304.1 2065.8,1357.8 "
   id="polygon58" />&#10;				<polygon
   class="st2"
   points="1840.1,1146.8 1970.7,1146.8 1970.7,1153.8 1847.1,1153.8 1847.1,1276 1840.1,1276 "
   id="polygon59" />&#10;				<rect
   x="1926.9"
   y="1153.3"
   class="st2"
   width="7"
   height="9.1999998"
   id="rect59" />&#10;				<rect
   x="1846.6"
   y="1228.5"
   class="st2"
   width="9.1999998"
   height="7"
   id="rect60" />&#10;			</g>&#10;		</g>&#10;		<g
   id="g76">&#10;			<g
   class="st11"
   id="g66">&#10;				<polygon
   points="1858.6,1460.4 1858.6,1426.9 1892.1,1426.9 "
   id="polygon61" />&#10;				<polygon
   points="2048,1576.2 2061.6,1589.8 2061.6,1590 2048,1603.7 "
   id="polygon62" />&#10;				<polygon
   points="2048,1556.5 2061.6,1570 2061.6,1583.5 2048,1569.9 "
   id="polygon63" />&#10;				<polygon
   points="2048,1536.7 2061.6,1550.2 2061.6,1563.7 2048,1550.2 "
   id="polygon64" />&#10;				<polygon
   points="2048,1516.9 2061.6,1530.5 2061.6,1543.9 2048,1530.4 "
   id="polygon65" />&#10;				<polygon
   points="2061.6,1497 2061.6,1524.2 2048,1510.6 "
   id="polygon66" />&#10;				<path
   d="m 2043.5,1507 v 116.1 h -106.8 v 7.7 h 36.8 v 7 h -130.6 v -129.2 h 7 v 40.4 h 7.7 v -77.3 l 46,-46 h 166 v 55.1 z m -193.6,49.1 v 74.8 h 79.9 v -7.7 h -72.1 v -67 h -7.8 z"
   id="path66" />&#10;			</g>&#10;			<g
   id="g75">&#10;				<polygon
   class="st2"
   points="1855.8,1456.6 1889.3,1423.1 1855.8,1423.1 "
   id="polygon67" />&#10;				<g
   id="g72">&#10;					<polygon
   class="st2"
   points="2045.2,1572.5 2045.2,1599.9 2058.8,1586.2 2058.8,1586 "
   id="polygon68" />&#10;					<polygon
   class="st2"
   points="2058.8,1566.2 2045.2,1552.7 2045.2,1566.1 2058.8,1579.7 "
   id="polygon69" />&#10;					<polygon
   class="st2"
   points="2058.8,1546.5 2045.2,1532.9 2045.2,1546.4 2058.8,1559.9 "
   id="polygon70" />&#10;					<polygon
   class="st2"
   points="2058.8,1526.7 2045.2,1513.1 2045.2,1526.6 2058.8,1540.1 "
   id="polygon71" />&#10;					<polygon
   class="st2"
   points="2058.8,1493.2 2045.2,1506.8 2058.8,1520.4 "
   id="polygon72" />&#10;				</g>&#10;				<polygon
   class="st4"
   points="1901.3,1423.1 1855.8,1468.5 1855.8,1618.4 2039.7,1618.4 2039.7,1502.8 2065.8,1476.8 2065.8,1423.1 "
   id="polygon73" />&#10;				<polygon
   class="st2"
   points="1840.1,1634.1 1970.7,1634.1 1970.7,1627.1 1847.1,1627.1 1847.1,1504.9 1840.1,1504.9 "
   id="polygon74" />&#10;				<rect
   x="1926.9"
   y="1618.4"
   class="st2"
   width="7"
   height="9.1999998"
   id="rect74" />&#10;				<rect
   x="1846.6"
   y="1545.4"
   class="st2"
   width="9.1999998"
   height="7"
   id="rect75" />&#10;			</g>&#10;		</g>&#10;		<g
   id="g91">&#10;			<g
   class="st11"
   id="g81">&#10;				<polygon
   points="1765.8,1460.4 1765.8,1426.9 1732.3,1426.9 "
   id="polygon76" />&#10;				<polygon
   points="1576.4,1576.2 1562.9,1589.8 1562.9,1590 1576.4,1603.7 "
   id="polygon77" />&#10;				<polygon
   points="1576.4,1556.5 1562.9,1570 1562.9,1583.5 1576.4,1569.9 "
   id="polygon78" />&#10;				<polygon
   points="1576.4,1536.7 1562.9,1550.2 1562.9,1563.7 1576.4,1550.2 "
   id="polygon79" />&#10;				<polygon
   points="1576.4,1516.9 1562.9,1530.5 1562.9,1543.9 1576.4,1530.4 "
   id="polygon80" />&#10;				<polygon
   points="1562.9,1497 1562.9,1524.2 1576.4,1510.6 "
   id="polygon81" />&#10;				<path
   d="m 1580.9,1507 v 116.1 h 106.8 v 7.7 h -36.8 v 7 h 130.6 v -129.2 h -7 v 40.4 h -7.7 v -77.3 l -46,-46 h -166 v 55.1 z m 193.7,49.1 v 74.8 h -79.9 v -7.7 h 72.1 v -67 h 7.8 z"
   id="path81" />&#10;			</g>&#10;			<g
   id="g90">&#10;				<polygon
   class="st2"
   points="1762,1456.6 1728.5,1423.1 1762,1423.1 "
   id="polygon82" />&#10;				<g
   id="g87">&#10;					<polygon
   class="st2"
   points="1572.6,1572.5 1572.6,1599.9 1559.1,1586.2 1559.1,1586 "
   id="polygon83" />&#10;					<polygon
   class="st2"
   points="1559.1,1566.2 1572.6,1552.7 1572.6,1566.1 1559.1,1579.7 "
   id="polygon84" />&#10;					<polygon
   class="st2"
   points="1559.1,1546.5 1572.6,1532.9 1572.6,1546.4 1559.1,1559.9 "
   id="polygon85" />&#10;					<polygon
   class="st2"
   points="1559.1,1526.7 1572.6,1513.1 1572.6,1526.6 1559.1,1540.1 "
   id="polygon86" />&#10;					<polygon
   class="st2"
   points="1559.1,1493.2 1572.6,1506.8 1559.1,1520.4 "
   id="polygon87" />&#10;				</g>&#10;				<polygon
   class="st4"
   points="1716.6,1423.1 1762,1468.5 1762,1618.4 1578.1,1618.4 1578.1,1502.8 1552,1476.8 1552,1423.1 "
   id="polygon88" />&#10;				<polygon
   class="st2"
   points="1777.8,1634.1 1647.2,1634.1 1647.2,1627.1 1770.8,1627.1 1770.8,1504.9 1777.8,1504.9 "
   id="polygon89" />&#10;				<rect
   x="1683.9"
   y="1618.4"
   class="st2"
   width="7"
   height="9.1999998"
   id="rect89" />&#10;				<rect
   x="1762"
   y="1545.4"
   class="st2"
   width="9.1999998"
   height="7"
   id="rect90" />&#10;			</g>&#10;		</g>&#10;		<g
   id="g106">&#10;			<g
   class="st11"
   id="g96">&#10;				<polygon
   points="1761.4,1327.1 1761.4,1360.6 1727.8,1360.6 "
   id="polygon91" />&#10;				<polygon
   points="1572,1211.2 1558.4,1197.7 1558.4,1197.4 1572,1183.8 "
   id="polygon92" />&#10;				<polygon
   points="1572,1231 1558.4,1217.4 1558.4,1204 1572,1217.5 "
   id="polygon93" />&#10;				<polygon
   points="1572,1250.8 1558.4,1237.2 1558.4,1223.8 1572,1237.3 "
   id="polygon94" />&#10;				<polygon
   points="1572,1270.5 1558.4,1257 1558.4,1243.5 1572,1257.1 "
   id="polygon95" />&#10;				<polygon
   points="1558.4,1290.5 1558.4,1263.3 1572,1276.9 "
   id="polygon96" />&#10;				<path
   d="m 1576.5,1280.4 v -116.1 h 106.8 v -7.7 h -36.8 v -7 h 130.6 v 129.2 h -7 v -40.4 h -7.7 v 77.3 l -46,46 h -166 v -55.1 z m 193.6,-49.1 v -74.8 h -79.9 v 7.7 h 72.1 v 67 h 7.8 z"
   id="path96" />&#10;			</g>&#10;			<g
   id="g105">&#10;				<polygon
   class="st2"
   points="1757.6,1324.3 1724.1,1357.8 1757.6,1357.8 "
   id="polygon97" />&#10;				<g
   id="g102">&#10;					<polygon
   class="st2"
   points="1568.2,1208.4 1568.2,1181 1554.6,1194.6 1554.6,1194.9 "
   id="polygon98" />&#10;					<polygon
   class="st2"
   points="1554.6,1214.7 1568.2,1228.2 1568.2,1214.7 1554.6,1201.2 "
   id="polygon99" />&#10;					<polygon
   class="st2"
   points="1554.6,1234.4 1568.2,1248 1568.2,1234.5 1554.6,1221 "
   id="polygon100" />&#10;					<polygon
   class="st2"
   points="1554.6,1254.2 1568.2,1267.8 1568.2,1254.3 1554.6,1240.7 "
   id="polygon101" />&#10;					<polygon
   class="st2"
   points="1554.6,1287.7 1568.2,1274.1 1554.6,1260.5 "
   id="polygon102" />&#10;				</g>&#10;				<polygon
   class="st4"
   points="1712.1,1357.8 1757.6,1312.4 1757.6,1162.5 1573.7,1162.5 1573.7,1278 1547.6,1304.1 1547.6,1357.8 "
   id="polygon103" />&#10;				<polygon
   class="st2"
   points="1773.3,1146.8 1642.7,1146.8 1642.7,1153.8 1766.3,1153.8 1766.3,1276 1773.3,1276 "
   id="polygon104" />&#10;				<rect
   x="1679.5"
   y="1153.3"
   class="st2"
   width="7"
   height="9.1999998"
   id="rect104" />&#10;				<rect
   x="1757.6"
   y="1228.5"
   class="st2"
   width="9.1999998"
   height="7"
   id="rect105" />&#10;			</g>&#10;		</g>&#10;		<g
   class="st1"
   id="g107">&#10;			<rect
   x="257.5"
   y="2892.3999"
   width="1069"
   height="1069"
   id="rect106" />&#10;			<path
   class="st2"
   d="m 1321,2897.9 v 1058 H 263 v -1058 h 1058 m 11,-11 H 252 v 1080 h 1080 z"
   id="path106" />&#10;		</g>&#10;		<g
   class="st1"
   id="g108">&#10;			<rect
   x="1545.5"
   y="2908.3999"
   width="1909"
   height="1069"
   id="rect107" />&#10;			<path
   class="st2"
   d="m 3449,2913.9 v 1058 H 1551 v -1058 h 1898 m 11,-11 H 1540 v 1080 h 1920 z"
   id="path107" />&#10;		</g>&#10;		<g
   id="g115">&#10;			<g
   class="st1"
   id="g109">&#10;				<polygon
   points="3897.1,38.4 4605.7,38.4 4605.7,845.9 4748.3,988.5 4748.3,1809.4 4610.2,1947.4 3679.3,1947.4 3679.3,256.3 "
   id="polygon108" />&#10;				<path
   class="st2"
   d="m 4600.2,43.9 v 799.7 4.6 l 3.2,3.2 139.3,139.3 V 1807 l -134.8,134.8 H 3684.7 V 258.6 L 3899.4,43.9 h 700.8 m 11,-11 h -716.4 l -221,221.1 v 1698.9 h 938.7 l 141.3,-141.3 V 986.2 L 4611.3,843.7 V 32.9 Z"
   id="path108" />&#10;			</g>&#10;			<g
   class="st1"
   id="g113">&#10;				<polygon
   class="st2"
   points="4633,303.6 4633,81.8 4742.7,192 4742.7,193.9 "
   id="polygon109" />&#10;				<polygon
   class="st2"
   points="4742.7,354 4633,463.6 4633,354.6 4742.7,245 "
   id="polygon110" />&#10;				<polygon
   class="st2"
   points="4742.7,514 4633,623.7 4633,514.7 4742.7,405 "
   id="polygon111" />&#10;				<polygon
   class="st2"
   points="4742.7,674 4633,783.7 4633,674.7 4742.7,565 "
   id="polygon112" />&#10;				<polygon
   class="st2"
   points="4742.7,944.8 4633,834.7 4742.7,725.1 "
   id="polygon113" />&#10;			</g>&#10;			<polygon
   class="st17"
   points="3673.8,32.9 3673.8,223.2 3864,32.9 "
   id="polygon114" />&#10;			<polygon
   class="st17"
   points="4757.5,1956.6 4639.4,1956.6 4757.5,1838.6 "
   id="polygon115" />&#10;		</g>&#10;		<g
   id="g123">&#10;			<g
   class="st1"
   id="g116">&#10;				<polygon
   points="1683.6,1730.3 2504.4,1730.3 2647,1872.9 3454.5,1872.9 3454.5,2581.4 3236.6,2799.3 1545.5,2799.3 1545.5,1868.4 "
   id="polygon116" />&#10;				<path
   class="st2"
   d="m 2502.2,1735.8 139.3,139.3 3.2,3.2 h 4.6 799.7 v 700.8 l -214.7,214.7 H 1551 v -923.2 l 134.8,-134.8 h 816.4 m 4.5,-11 H 1681.2 L 1540,1866.1 v 938.7 H 3238.9 L 3460,2583.7 v -716.4 h -810.7 z"
   id="path116" />&#10;			</g>&#10;			<g
   class="st1"
   id="g121">&#10;				<polygon
   class="st2"
   points="3189.3,1845.5 3411.1,1845.5 3300.9,1735.9 3299,1735.9 "
   id="polygon117" />&#10;				<polygon
   class="st2"
   points="3138.9,1735.9 3029.3,1845.5 3138.3,1845.5 3247.9,1735.9 "
   id="polygon118" />&#10;				<polygon
   class="st2"
   points="2979,1735.9 2869.2,1845.5 2978.2,1845.5 3087.9,1735.9 "
   id="polygon119" />&#10;				<polygon
   class="st2"
   points="2818.9,1735.9 2709.3,1845.5 2818.3,1845.5 2927.9,1735.9 "
   id="polygon120" />&#10;				<polygon
   class="st2"
   points="2548.2,1735.9 2658.2,1845.5 2767.8,1735.9 "
   id="polygon121" />&#10;			</g>&#10;			<polygon
   class="st17"
   points="3460,2804.8 3269.7,2804.8 3460,2614.5 "
   id="polygon122" />&#10;			<polygon
   class="st17"
   points="1540,1724.8 1540,1842.9 1658.1,1724.8 "
   id="polygon123" />&#10;		</g>&#10;		<g
   id="g131">&#10;			<g
   class="st1"
   id="g124">&#10;				<polygon
   points="420.5,1730.3 1260.4,1730.3 1260.4,2199.2 1350.9,2289.7 1350.9,2712 1263.7,2799.3 281.9,2799.3 281.9,1868.9 "
   id="polygon124" />&#10;				<path
   class="st2"
   d="m 1254.9,1735.8 v 461.1 4.6 l 3.2,3.2 87.3,87.3 v 417.8 l -84.1,84.1 H 287.4 v -922.7 l 135.3,-135.3 h 832.2 m 11,-11.1 H 418.2 l -141.8,141.8 v 938.2 h 989.5 l 90.5,-90.5 v -426.9 l -90.5,-90.5 z"
   id="path124" />&#10;			</g>&#10;			<polygon
   class="st17"
   points="400,1724.8 276.4,1848.4 276.4,1724.8 "
   id="polygon125" />&#10;			<g
   class="st1"
   id="g130">&#10;				<polygon
   class="st2"
   points="1279,1885.9 1279,1758.1 1342.2,1821.6 1342.2,1822.7 "
   id="polygon126" />&#10;				<polygon
   class="st2"
   points="1342.2,1915 1279,1978.1 1279,1915.3 1342.2,1852.1 "
   id="polygon127" />&#10;				<polygon
   class="st2"
   points="1342.2,2007.1 1279,2070.4 1279,2007.6 1342.2,1944.4 "
   id="polygon128" />&#10;				<polygon
   class="st2"
   points="1342.2,2099.4 1279,2162.6 1279,2099.7 1342.2,2036.6 "
   id="polygon129" />&#10;				<polygon
   class="st2"
   points="1342.2,2255.4 1279,2192 1342.2,2128.8 "
   id="polygon130" />&#10;			</g>&#10;			<line
   class="st18"
   x1="349.39999"
   y1="1793.6"
   x2="340.29999"
   y2="1784.5"
   id="line130" />&#10;		</g>&#10;		<g
   id="g145">&#10;			<g
   class="st11"
   id="g137">&#10;				<polygon
   points="190,802.1 358.5,802.1 390.8,834.4 673.9,834.4 673.9,701.6 606.3,634 190,634 "
   id="polygon131" />&#10;				<polygon
   points="233.1,809.5 199.2,809.7 216.1,826.6 "
   id="polygon132" />&#10;				<polygon
   points="355.4,808.9 333.7,830.7 377.2,830.7 "
   id="polygon133" />&#10;				<polygon
   points="325.5,830.7 347.2,808.9 317.4,809.1 295.8,830.7 "
   id="polygon134" />&#10;				<polygon
   points="287.6,830.7 309.2,809.1 279.4,809.3 258,830.7 "
   id="polygon135" />&#10;				<polygon
   points="249.8,830.7 271.1,809.3 241.3,809.5 220.1,830.7 "
   id="polygon136" />&#10;				<polygon
   points="672.9,690.6 672.9,635 617.3,635 "
   id="polygon137" />&#10;			</g>&#10;			<g
   id="g144">&#10;				<polygon
   class="st4"
   points="388.9,831 356.5,798.7 188.6,798.7 188.6,632.6 603.5,632.6 670.5,699.6 670.5,831 "
   id="polygon138" />&#10;				<g
   id="g143">&#10;					<polygon
   class="st2"
   points="196.8,807.3 230.7,807.1 213.7,824.2 "
   id="polygon139" />&#10;					<polygon
   class="st2"
   points="353,806.5 374.8,828.3 331.3,828.3 "
   id="polygon140" />&#10;					<polygon
   class="st2"
   points="293.4,828.3 315,806.7 344.8,806.6 323.1,828.3 "
   id="polygon141" />&#10;					<polygon
   class="st2"
   points="255.6,828.3 277,806.9 306.8,806.7 285.3,828.3 "
   id="polygon142" />&#10;					<polygon
   class="st2"
   points="217.8,828.3 238.9,807.1 268.8,806.9 247.4,828.3 "
   id="polygon143" />&#10;				</g>&#10;				<polygon
   class="st2"
   points="670.5,688.2 614.9,632.6 670.5,632.6 "
   id="polygon144" />&#10;			</g>&#10;		</g>&#10;		<g
   id="g159">&#10;			<g
   class="st11"
   id="g151">&#10;				<polygon
   points="673.9,1027.9 505.4,1027.9 473.1,1060.2 190,1060.2 190,927.4 257.5,859.8 673.9,859.8 "
   id="polygon145" />&#10;				<polygon
   points="630.8,1035.3 664.7,1035.5 647.8,1052.4 "
   id="polygon146" />&#10;				<polygon
   points="508.5,1034.7 530.2,1056.5 486.7,1056.5 "
   id="polygon147" />&#10;				<polygon
   points="538.4,1056.5 516.7,1034.8 546.5,1034.9 568.1,1056.5 "
   id="polygon148" />&#10;				<polygon
   points="576.3,1056.5 554.7,1034.9 584.5,1035.1 605.9,1056.5 "
   id="polygon149" />&#10;				<polygon
   points="614.1,1056.5 592.8,1035.1 622.6,1035.3 643.8,1056.5 "
   id="polygon150" />&#10;				<polygon
   points="191,916.4 191,860.8 246.6,860.8 "
   id="polygon151" />&#10;			</g>&#10;			<g
   id="g158">&#10;				<polygon
   class="st4"
   points="470.2,1056.8 502.5,1024.5 670.5,1024.5 670.5,858.4 255.5,858.4 188.6,925.4 188.6,1056.8 "
   id="polygon152" />&#10;				<g
   id="g157">&#10;					<polygon
   class="st2"
   points="662.3,1033.1 628.4,1032.9 645.4,1050 "
   id="polygon153" />&#10;					<polygon
   class="st2"
   points="506.1,1032.3 484.3,1054.1 527.8,1054.1 "
   id="polygon154" />&#10;					<polygon
   class="st2"
   points="565.7,1054.1 544.1,1032.5 514.3,1032.3 536,1054.1 "
   id="polygon155" />&#10;					<polygon
   class="st2"
   points="603.5,1054.1 582.1,1032.7 552.3,1032.5 573.8,1054.1 "
   id="polygon156" />&#10;					<polygon
   class="st2"
   points="641.3,1054.1 620.1,1032.9 590.3,1032.7 611.7,1054.1 "
   id="polygon157" />&#10;				</g>&#10;				<polygon
   class="st2"
   points="188.6,914 244.2,858.4 188.6,858.4 "
   id="polygon158" />&#10;			</g>&#10;		</g>&#10;		<g
   id="g173">&#10;			<g
   class="st11"
   id="g165">&#10;				<polygon
   points="672.2,1113.2 503.7,1113.2 471.4,1080.9 188.3,1080.9 188.3,1213.7 255.8,1281.2 672.2,1281.2 "
   id="polygon159" />&#10;				<polygon
   points="629.1,1105.7 663,1105.5 646.1,1088.7 "
   id="polygon160" />&#10;				<polygon
   points="506.8,1106.4 528.5,1084.6 485,1084.6 "
   id="polygon161" />&#10;				<polygon
   points="536.7,1084.6 515,1106.3 544.8,1106.2 566.4,1084.6 "
   id="polygon162" />&#10;				<polygon
   points="574.5,1084.6 553,1106.1 582.8,1106 604.2,1084.6 "
   id="polygon163" />&#10;				<polygon
   points="612.4,1084.6 591,1105.9 620.9,1105.8 642,1084.6 "
   id="polygon164" />&#10;				<polygon
   points="189.3,1224.6 189.3,1280.2 244.9,1280.2 "
   id="polygon165" />&#10;			</g>&#10;			<g
   id="g172">&#10;				<polygon
   class="st4"
   points="468.5,1079.4 500.8,1111.8 668.8,1111.8 668.8,1277.8 253.8,1277.8 186.9,1210.8 186.9,1079.4 "
   id="polygon166" />&#10;				<g
   id="g171">&#10;					<polygon
   class="st2"
   points="660.6,1103.1 626.7,1103.3 643.7,1086.2 "
   id="polygon167" />&#10;					<polygon
   class="st2"
   points="504.3,1103.9 482.6,1082.2 526.1,1082.2 "
   id="polygon168" />&#10;					<polygon
   class="st2"
   points="564,1082.2 542.4,1103.7 512.6,1103.9 534.3,1082.2 "
   id="polygon169" />&#10;					<polygon
   class="st2"
   points="601.8,1082.2 580.4,1103.5 550.6,1103.7 572.1,1082.2 "
   id="polygon170" />&#10;					<polygon
   class="st2"
   points="639.6,1082.2 618.4,1103.3 588.6,1103.5 610,1082.2 "
   id="polygon171" />&#10;				</g>&#10;				<polygon
   class="st2"
   points="186.9,1222.2 242.5,1277.8 186.9,1277.8 "
   id="polygon172" />&#10;			</g>&#10;		</g>&#10;		<g
   id="g187">&#10;			<g
   class="st11"
   id="g179">&#10;				<polygon
   points="190.7,1363 359.3,1363 391.6,1330.7 674.7,1330.7 674.7,1463.5 607.1,1531 190.7,1531 "
   id="polygon173" />&#10;				<polygon
   points="233.8,1355.5 199.9,1355.3 216.8,1338.5 "
   id="polygon174" />&#10;				<polygon
   points="356.2,1356.1 334.4,1334.4 377.9,1334.4 "
   id="polygon175" />&#10;				<polygon
   points="326.2,1334.4 347.9,1356.1 318.1,1355.9 296.6,1334.4 "
   id="polygon176" />&#10;				<polygon
   points="288.4,1334.4 309.9,1355.9 280.1,1355.8 258.7,1334.4 "
   id="polygon177" />&#10;				<polygon
   points="250.5,1334.4 271.9,1355.7 242.1,1355.6 220.9,1334.4 "
   id="polygon178" />&#10;				<polygon
   points="673.7,1474.4 673.7,1530 618,1530 "
   id="polygon179" />&#10;			</g>&#10;			<g
   id="g186">&#10;				<polygon
   class="st4"
   points="389.6,1329.2 357.3,1361.6 189.3,1361.6 189.3,1527.6 604.3,1527.6 671.2,1460.6 671.2,1329.2 "
   id="polygon180" />&#10;				<g
   id="g185">&#10;					<polygon
   class="st2"
   points="197.5,1352.9 231.4,1353.1 214.4,1336 "
   id="polygon181" />&#10;					<polygon
   class="st2"
   points="353.8,1353.7 375.5,1332 332,1332 "
   id="polygon182" />&#10;					<polygon
   class="st2"
   points="294.1,1332 315.7,1353.5 345.5,1353.7 323.8,1332 "
   id="polygon183" />&#10;					<polygon
   class="st2"
   points="256.3,1332 277.7,1353.3 307.5,1353.5 286,1332 "
   id="polygon184" />&#10;					<polygon
   class="st2"
   points="218.5,1332 239.7,1353.1 269.5,1353.3 248.1,1332 "
   id="polygon185" />&#10;				</g>&#10;				<polygon
   class="st2"
   points="671.2,1472 615.6,1527.6 671.2,1527.6 "
   id="polygon186" />&#10;			</g>&#10;		</g>&#10;		<g
   id="g202">&#10;			<g
   class="st11"
   id="g193">&#10;				<polygon
   points="1017.9,677.6 814,677.6 814,1118.9 879.5,1184.4 1096.1,1184.4 1096.1,1022 1053.3,979.3 1053.3,713 "
   id="polygon187" />&#10;				<polygon
   points="815,1126.7 815,1183.4 871.6,1183.4 "
   id="polygon188" />&#10;				<polygon
   points="1075.8,837.8 1058.9,821 1058.7,854.9 "
   id="polygon189" />&#10;				<polygon
   points="1079.9,999 1079.9,955.4 1058.1,977.2 "
   id="polygon190" />&#10;				<polygon
   points="1058.2,969 1079.9,947.3 1079.9,917.6 1058.3,939.2 "
   id="polygon191" />&#10;				<polygon
   points="1058.3,931 1079.9,909.4 1079.9,879.8 1058.5,901.1 "
   id="polygon192" />&#10;				<polygon
   points="1058.6,892.9 1079.9,871.6 1079.9,841.9 1058.7,863.1 "
   id="polygon193" />&#10;			</g>&#10;			<g
   id="g201">&#10;				<polygon
   class="st4"
   points="1049.3,976.6 1049.3,710.4 1014.4,675.6 812,675.6 812,1115.4 876.9,1180.3 1092.1,1180.3 1092.1,1019.4 "
   id="polygon194" />&#10;				<polygon
   class="st2"
   points="868.6,1180.3 812,1123.7 812,1180.3 "
   id="polygon195" />&#10;				<g
   id="g200">&#10;					<polygon
   class="st2"
   points="1055.9,817.9 1055.7,851.9 1072.8,834.8 "
   id="polygon196" />&#10;					<polygon
   class="st2"
   points="1055.1,974.2 1076.9,996 1076.9,952.4 "
   id="polygon197" />&#10;					<polygon
   class="st2"
   points="1076.9,914.6 1055.3,936.2 1055.1,965.9 1076.9,944.2 "
   id="polygon198" />&#10;					<polygon
   class="st2"
   points="1076.9,876.7 1055.5,898.1 1055.3,927.9 1076.9,906.4 "
   id="polygon199" />&#10;					<polygon
   class="st2"
   points="1076.9,838.9 1055.7,860.1 1055.5,889.9 1076.9,868.6 "
   id="polygon200" />&#10;				</g>&#10;			</g>&#10;		</g>&#10;		<g
   id="g215">&#10;			<g
   class="st11"
   id="g207">&#10;				<polygon
   points="1343.7,1356.2 1389.3,1356.2 1399.4,1346 1483.5,1346 1511.2,1318.4 1333.3,1318.4 1333.3,1345.7 "
   id="polygon202" />&#10;				<polygon
   points="1454.1,1348.1 1438.3,1348.1 1446.1,1355.9 1446.3,1355.9 "
   id="polygon203" />&#10;				<polygon
   points="1442.5,1355.9 1434.6,1348.1 1426.9,1348.1 1434.7,1355.9 "
   id="polygon204" />&#10;				<polygon
   points="1431,1355.9 1423.2,1348.1 1415.4,1348.1 1423.3,1355.9 "
   id="polygon205" />&#10;				<polygon
   points="1419.6,1355.9 1411.8,1348.1 1404,1348.1 1411.8,1355.9 "
   id="polygon206" />&#10;				<polygon
   points="1400.4,1348.1 1392.5,1355.9 1408.2,1355.9 "
   id="polygon207" />&#10;			</g>&#10;			<g
   id="g214">&#10;				<polygon
   class="st19"
   points="1342.6,1354.3 1387.8,1354.3 1397.9,1344.2 1482,1344.2 1508.7,1317.5 1332.5,1317.5 1332.5,1344.2 "
   id="polygon208" />&#10;				<g
   id="g213">&#10;					<polygon
   class="st2"
   points="1437.2,1347 1453,1347 1445.2,1354.8 1445,1354.8 "
   id="polygon209" />&#10;					<polygon
   class="st2"
   points="1433.6,1354.8 1425.8,1347 1433.6,1347 1441.4,1354.8 "
   id="polygon210" />&#10;					<polygon
   class="st2"
   points="1422.2,1354.8 1414.3,1347 1422.1,1347 1430,1354.8 "
   id="polygon211" />&#10;					<polygon
   class="st2"
   points="1410.8,1354.8 1402.9,1347 1410.7,1347 1418.5,1354.8 "
   id="polygon212" />&#10;					<polygon
   class="st2"
   points="1391.4,1354.8 1399.3,1347 1407.1,1354.8 "
   id="polygon213" />&#10;				</g>&#10;			</g>&#10;		</g>&#10;		<g
   id="g218">&#10;			<g
   class="st11"
   id="g216">&#10;				<polygon
   points="1333.5,1307.6 1333.2,1307.3 1333.2,1280 1511.1,1280 1483.4,1307.6 "
   id="polygon215" />&#10;				<path
   d="M 1333.1,1307.2"
   id="path215" />&#10;			</g>&#10;			<g
   id="g217">&#10;				<polygon
   class="st19"
   points="1332.5,1305.9 1332.5,1279.2 1508.7,1279.2 1482,1305.9 "
   id="polygon216" />&#10;			</g>&#10;		</g>&#10;		<g
   id="g221">&#10;			<g
   class="st11"
   id="g219">&#10;				<polygon
   points="1334,1243.8 1333.7,1244.1 1333.7,1271.5 1511.6,1271.5 1483.9,1243.8 "
   id="polygon218" />&#10;				<path
   d="M 1333.1,1243.5"
   id="path218" />&#10;			</g>&#10;			<g
   id="g220">&#10;				<polygon
   class="st19"
   points="1332.5,1242.6 1332.5,1269.2 1508.7,1269.2 1482,1242.6 "
   id="polygon219" />&#10;			</g>&#10;		</g>&#10;		<g
   id="g224">&#10;			<g
   class="st11"
   id="g222">&#10;				<polygon
   points="1334.2,1235 1333.9,1234.7 1333.9,1207.3 1484.1,1207.3 1484.1,1235 "
   id="polygon221" />&#10;				<path
   d="M 1333.1,1233.9"
   id="path221" />&#10;			</g>&#10;			<g
   id="g223">&#10;				<rect
   x="1332.5"
   y="1205.9"
   class="st19"
   width="149.5"
   height="26.700001"
   id="rect222" />&#10;			</g>&#10;		</g>&#10;		<g
   id="g227">&#10;			<g
   class="st11"
   id="g225">&#10;				<polygon
   points="1334.2,1201.5 1333.9,1201.2 1333.9,1173.9 1408.3,1173.9 1408.3,1201.5 "
   id="polygon224" />&#10;				<path
   d="M 1333.1,1200.4"
   id="path224" />&#10;			</g>&#10;			<g
   id="g226">&#10;				<rect
   x="1332.5"
   y="1172.4"
   class="st19"
   width="73.699997"
   height="26.700001"
   id="rect225" />&#10;			</g>&#10;		</g>&#10;		<g
   id="g231">&#10;			<polygon
   class="st11"
   points="1332.7,1168 1427.1,1168 1427.1,1150.9 1415.7,1139.5 1332.7,1139.5 "
   id="polygon227" />&#10;			<g
   id="g230">&#10;				<g
   class="st11"
   id="g228">&#10;					<path
   d="M 1333.1,1137.9"
   id="path227" />&#10;				</g>&#10;				<g
   id="g229">&#10;					<polygon
   class="st19"
   points="1414.1,1139.2 1332.5,1139.2 1332.5,1165.9 1424.9,1165.9 1424.9,1150 "
   id="polygon228" />&#10;				</g>&#10;			</g>&#10;		</g>&#10;		<g
   id="g247">&#10;			<g
   class="st11"
   id="g238">&#10;				<polygon
   points="1339.3,1445.8 1355,1461.4 1409.2,1461.4 1424.3,1446.4 1483.4,1446.4 1483.4,1403.3 1463.4,1383.3 1339.3,1383.3 "
   id="polygon231" />&#10;				<polygon
   points="1478.6,1448.8 1463.1,1448.8 1470.7,1456.4 1470.9,1456.4 "
   id="polygon232" />&#10;				<polygon
   points="1467.2,1456.4 1459.5,1448.8 1451.9,1448.8 1459.5,1456.4 "
   id="polygon233" />&#10;				<polygon
   points="1456,1456.4 1448.3,1448.8 1440.7,1448.8 1448.4,1456.4 "
   id="polygon234" />&#10;				<polygon
   points="1444.8,1456.4 1437.1,1448.8 1429.5,1448.8 1437.2,1456.4 "
   id="polygon235" />&#10;				<polygon
   points="1425.9,1448.8 1418.3,1456.4 1433.6,1456.4 "
   id="polygon236" />&#10;				<polygon
   points="1482.4,1398.8 1482.4,1384.3 1467.9,1384.3 "
   id="polygon237" />&#10;				<polygon
   points="1340.3,1450.3 1340.3,1460.5 1350.5,1460.5 "
   id="polygon238" />&#10;			</g>&#10;			<g
   id="g246">&#10;				<polygon
   class="st19"
   points="1339.3,1383.3 1339.3,1444.4 1354.4,1459.5 1407.8,1459.5 1422.9,1444.4 1481.4,1444.4 1481.4,1410.7 1481.4,1402.7 1462,1383.3 1454,1383.3 "
   id="polygon239" />&#10;				<g
   id="g244">&#10;					<polygon
   class="st2"
   points="1462.1,1447.8 1477.6,1447.8 1469.9,1455.4 1469.7,1455.4 "
   id="polygon240" />&#10;					<polygon
   class="st2"
   points="1458.5,1455.4 1450.9,1447.8 1458.5,1447.8 1466.2,1455.4 "
   id="polygon241" />&#10;					<polygon
   class="st2"
   points="1447.4,1455.4 1439.7,1447.8 1447.3,1447.8 1455,1455.4 "
   id="polygon242" />&#10;					<polygon
   class="st2"
   points="1436.2,1455.4 1428.5,1447.8 1436.1,1447.8 1443.8,1455.4 "
   id="polygon243" />&#10;					<polygon
   class="st2"
   points="1417.3,1455.4 1425,1447.8 1432.6,1455.4 "
   id="polygon244" />&#10;				</g>&#10;				<polygon
   class="st2"
   points="1481.4,1383.3 1481.4,1397.8 1466.9,1383.3 "
   id="polygon245" />&#10;				<polygon
   class="st2"
   points="1349.5,1459.5 1339.3,1449.3 1339.3,1459.5 "
   id="polygon246" />&#10;			</g>&#10;		</g>&#10;		<g
   id="g261">&#10;			<g
   class="st11"
   id="g253">&#10;				<polygon
   points="948.5,1203.6 920.5,1231.6 920.5,1290.9 1013.6,1290.9 1013.6,1258.1 1001.8,1246.3 1001.8,1203.6 "
   id="polygon247" />&#10;				<polygon
   points="1003.3,1217.6 1009,1211.9 1009,1211.8 1003.3,1206 "
   id="polygon248" />&#10;				<polygon
   points="1003.3,1226 1009,1220.2 1009,1214.6 1003.3,1220.3 "
   id="polygon249" />&#10;				<polygon
   points="1003.3,1234.3 1009,1228.6 1009,1222.9 1003.3,1228.6 "
   id="polygon250" />&#10;				<polygon
   points="1003.3,1242.6 1009,1236.9 1009,1231.2 1003.3,1236.9 "
   id="polygon251" />&#10;				<polygon
   points="1009,1251 1009,1239.6 1003.3,1245.3 "
   id="polygon252" />&#10;				<polygon
   points="945.4,1204.6 921.5,1204.6 921.5,1228.5 "
   id="polygon253" />&#10;			</g>&#10;			<g
   id="g260">&#10;				<polygon
   class="st20"
   points="999.7,1203 999.7,1245.3 1011.5,1257.1 1011.5,1288.8 919.9,1288.8 919.9,1230.6 947.5,1203 "
   id="polygon254" />&#10;				<g
   id="g259">&#10;					<polygon
   class="st2"
   points="1001.9,1216.3 1001.9,1204.7 1007.7,1210.4 1007.7,1210.5 "
   id="polygon255" />&#10;					<polygon
   class="st2"
   points="1007.7,1218.9 1001.9,1224.6 1001.9,1218.9 1007.7,1213.2 "
   id="polygon256" />&#10;					<polygon
   class="st2"
   points="1007.7,1227.2 1001.9,1232.9 1001.9,1227.3 1007.7,1221.6 "
   id="polygon257" />&#10;					<polygon
   class="st2"
   points="1007.7,1235.6 1001.9,1241.3 1001.9,1235.6 1007.7,1229.9 "
   id="polygon258" />&#10;					<polygon
   class="st2"
   points="1007.7,1249.7 1001.9,1243.9 1007.7,1238.2 "
   id="polygon259" />&#10;				</g>&#10;				<polygon
   class="st2"
   points="944.1,1203.3 920.1,1227.2 920.1,1203.3 "
   id="polygon260" />&#10;			</g>&#10;		</g>&#10;		<g
   id="g275">&#10;			<g
   class="st11"
   id="g267">&#10;				<polygon
   points="876.9,1203.6 905,1231.6 905,1290.9 811.8,1290.9 811.8,1258.1 823.6,1246.3 823.6,1203.6 "
   id="polygon261" />&#10;				<polygon
   points="822.2,1217.6 816.4,1211.9 816.4,1211.8 822.2,1206 "
   id="polygon262" />&#10;				<polygon
   points="822.2,1226 816.4,1220.2 816.4,1214.6 822.2,1220.3 "
   id="polygon263" />&#10;				<polygon
   points="822.2,1234.3 816.4,1228.6 816.4,1222.9 822.2,1228.6 "
   id="polygon264" />&#10;				<polygon
   points="822.2,1242.6 816.4,1236.9 816.4,1231.2 822.2,1236.9 "
   id="polygon265" />&#10;				<polygon
   points="816.4,1251 816.4,1239.6 822.2,1245.3 "
   id="polygon266" />&#10;				<polygon
   points="880,1204.6 903.9,1204.6 903.9,1228.5 "
   id="polygon267" />&#10;			</g>&#10;			<g
   id="g274">&#10;				<polygon
   class="st20"
   points="823,1203 823,1245.3 811.3,1257.1 811.3,1288.8 902.9,1288.8 902.9,1230.6 875.3,1203 "
   id="polygon268" />&#10;				<g
   id="g273">&#10;					<polygon
   class="st2"
   points="820.8,1216.3 820.8,1204.7 815.1,1210.4 815.1,1210.5 "
   id="polygon269" />&#10;					<polygon
   class="st2"
   points="815.1,1218.9 820.8,1224.6 820.8,1218.9 815.1,1213.2 "
   id="polygon270" />&#10;					<polygon
   class="st2"
   points="815.1,1227.2 820.8,1232.9 820.8,1227.3 815.1,1221.6 "
   id="polygon271" />&#10;					<polygon
   class="st2"
   points="815.1,1235.6 820.8,1241.3 820.8,1235.6 815.1,1229.9 "
   id="polygon272" />&#10;					<polygon
   class="st2"
   points="815.1,1249.7 820.8,1243.9 815.1,1238.2 "
   id="polygon273" />&#10;				</g>&#10;				<polygon
   class="st2"
   points="878.7,1203.3 902.6,1227.2 902.6,1203.3 "
   id="polygon274" />&#10;			</g>&#10;		</g>&#10;		<g
   id="g282">&#10;			<path
   class="st11"
   d="m 1197.6,1283.8 v 5.6 h 21.3 v 5.5 h -33.4 c -0.6,0 -1,0.4 -1,1 v 65 c 0,0.3 0.1,0.5 0.3,0.7 l 23,23 c 0.2,0.2 0.4,0.3 0.7,0.3 h 65 c 0.6,0 1,-0.4 1,-1 v -33.4 h 5.5 c 0,0 0,0 0,0 v 21.3 h 5.6 v -62.3 l -25.7,-25.7 z m 67.5,16.4 c 0,0 0,0 0,0 l -4.4,4.4 -9.5,-9.5 c -0.2,-0.2 -0.4,-0.3 -0.7,-0.3 h -29.6 v -5.5 h 33.4 z m 14.9,48.2 c 0,0 0,0 0,0 h -5.5 v -29.6 c 0,-0.3 -0.1,-0.5 -0.3,-0.7 l -12.1,-12.1 4.4,-4.4 c 0,0 0,0 0,0 l 13.5,13.5 z"
   id="path275" />&#10;			<g
   id="g281">&#10;				<g
   id="g280">&#10;					<g
   id="g276">&#10;						<polygon
   class="st14"
   points="1205.3,1380.6 1182.3,1357.6 1182.3,1292.6 1247.2,1292.6 1270.3,1315.6 1270.3,1380.6 "
   id="polygon275" />&#10;						<path
   class="st2"
   d="m 1270.3,1381.6 h -65 c -0.3,0 -0.5,-0.1 -0.7,-0.3 l -23,-23 c -0.2,-0.2 -0.3,-0.4 -0.3,-0.7 v -65 c 0,-0.6 0.4,-1 1,-1 h 65 c 0.3,0 0.5,0.1 0.7,0.3 l 23,23 c 0.2,0.2 0.3,0.4 0.3,0.7 v 65 c 0,0.6 -0.5,1 -1,1 z m -64.6,-2 h 63.6 V 1316 l -22.4,-22.4 h -63.6 v 63.6 z"
   id="path276" />&#10;					</g>&#10;					<g
   id="g277">&#10;						<line
   class="st14"
   x1="1270.3"
   y1="1346.2"
   x2="1276.8"
   y2="1346.2"
   id="line276" />&#10;						<path
   class="st2"
   d="m 1276.8,1347.2 h -6.5 c -0.6,0 -1,-0.4 -1,-1 0,-0.6 0.4,-1 1,-1 h 6.5 c 0.6,0 1,0.4 1,1 0,0.6 -0.5,1 -1,1 z"
   id="path277" />&#10;					</g>&#10;					<g
   id="g278">&#10;						<line
   class="st14"
   x1="1216.6"
   y1="1286.1"
   x2="1216.6"
   y2="1292.5"
   id="line277" />&#10;						<path
   class="st2"
   d="m 1216.6,1293.5 c -0.6,0 -1,-0.4 -1,-1 v -6.4 c 0,-0.6 0.4,-1 1,-1 0.6,0 1,0.4 1,1 v 6.4 c 0,0.6 -0.4,1 -1,1 z"
   id="path278" />&#10;					</g>&#10;					<g
   id="g279">&#10;						<line
   class="st14"
   x1="1262.6"
   y1="1297.7"
   x2="1257.5"
   y2="1302.8"
   id="line278" />&#10;						<path
   class="st2"
   d="m 1257.4,1303.8 c -0.3,0 -0.5,-0.1 -0.7,-0.3 -0.4,-0.4 -0.4,-1 0,-1.4 l 5.1,-5.1 c 0.4,-0.4 1,-0.4 1.4,0 0.4,0.4 0.4,1 0,1.4 l -5.1,5.1 c -0.1,0.2 -0.4,0.3 -0.7,0.3 z"
   id="path279" />&#10;					</g>&#10;					<polygon
   class="st2"
   points="1276.8,1368.5 1276.8,1311.8 1251,1286.1 1194.4,1286.1 1194.4,1280.5 1256.7,1280.5 1282.4,1306.2 1282.4,1368.5 "
   id="polygon279" />&#10;				</g>&#10;			</g>&#10;		</g>&#10;		<g
   id="g289">&#10;			<path
   class="st11"
   d="m 1141.7,1283.8 v 5.6 h -21.3 v 5.5 h 33.4 c 0.6,0 1,0.4 1,1 v 65 c 0,0.3 -0.1,0.5 -0.3,0.7 l -23,23 c -0.2,0.2 -0.4,0.3 -0.7,0.3 h -65 c -0.6,0 -1,-0.4 -1,-1 v -33.4 h -5.5 c 0,0 0,0 0,0 v 21.3 h -5.6 v -62.3 l 25.7,-25.7 z m -67.6,16.4 c 0,0 0,0 0,0 l 4.4,4.4 9.5,-9.5 c 0.2,-0.2 0.4,-0.3 0.7,-0.3 h 29.6 v -5.5 H 1085 Z m -14.8,48.2 c 0,0 0,0 0,0 h 5.5 v -29.6 c 0,-0.3 0.1,-0.5 0.3,-0.7 l 12.1,-12.1 -4.4,-4.4 c 0,0 0,0 0,0 l -13.5,13.5 z"
   id="path282" />&#10;			<g
   id="g288">&#10;				<g
   id="g287">&#10;					<g
   id="g283">&#10;						<polygon
   class="st14"
   points="1127.5,1380.6 1150.5,1357.6 1150.5,1292.6 1085.5,1292.6 1062.5,1315.6 1062.5,1380.6 "
   id="polygon282" />&#10;						<path
   class="st2"
   d="m 1062.5,1381.6 h 65 c 0.3,0 0.5,-0.1 0.7,-0.3 l 23,-23 c 0.2,-0.2 0.3,-0.4 0.3,-0.7 v -65 c 0,-0.6 -0.4,-1 -1,-1 h -65 c -0.3,0 -0.5,0.1 -0.7,0.3 l -23,23 c -0.2,0.2 -0.3,0.4 -0.3,0.7 v 65 c 0,0.6 0.5,1 1,1 z m 64.6,-2 h -63.6 V 1316 l 22.4,-22.4 h 63.6 v 63.6 z"
   id="path283" />&#10;					</g>&#10;					<g
   id="g284">&#10;						<line
   class="st14"
   x1="1062.5"
   y1="1346.2"
   x2="1056"
   y2="1346.2"
   id="line283" />&#10;						<path
   class="st2"
   d="m 1056,1347.2 h 6.5 c 0.6,0 1,-0.4 1,-1 0,-0.6 -0.4,-1 -1,-1 h -6.5 c -0.6,0 -1,0.4 -1,1 0,0.6 0.5,1 1,1 z"
   id="path284" />&#10;					</g>&#10;					<g
   id="g285">&#10;						<line
   class="st14"
   x1="1116.2"
   y1="1286.1"
   x2="1116.2"
   y2="1292.5"
   id="line284" />&#10;						<path
   class="st2"
   d="m 1116.2,1293.5 c 0.6,0 1,-0.4 1,-1 v -6.4 c 0,-0.6 -0.4,-1 -1,-1 -0.6,0 -1,0.4 -1,1 v 6.4 c 0,0.6 0.4,1 1,1 z"
   id="path285" />&#10;					</g>&#10;					<g
   id="g286">&#10;						<line
   class="st14"
   x1="1070.2"
   y1="1297.7"
   x2="1075.3"
   y2="1302.8"
   id="line285" />&#10;						<path
   class="st2"
   d="m 1075.3,1303.8 c 0.3,0 0.5,-0.1 0.7,-0.3 0.4,-0.4 0.4,-1 0,-1.4 l -5.1,-5.1 c -0.4,-0.4 -1,-0.4 -1.4,0 -0.4,0.4 -0.4,1 0,1.4 l 5.1,5.1 c 0.2,0.2 0.5,0.3 0.7,0.3 z"
   id="path286" />&#10;					</g>&#10;					<polygon
   class="st2"
   points="1056,1368.5 1056,1311.8 1081.7,1286.1 1138.4,1286.1 1138.4,1280.5 1076.1,1280.5 1050.4,1306.2 1050.4,1368.5 "
   id="polygon286" />&#10;				</g>&#10;			</g>&#10;		</g>&#10;		<g
   id="g296">&#10;			<path
   class="st11"
   d="m 1197.6,1514.3 v -5.6 h 21.3 v -5.5 h -33.4 c -0.6,0 -1,-0.4 -1,-1 v -65 c 0,-0.3 0.1,-0.5 0.3,-0.7 l 23,-23 c 0.2,-0.2 0.4,-0.3 0.7,-0.3 h 65 c 0.6,0 1,0.4 1,1 v 33.4 h 5.5 c 0,0 0,0 0,0 v -21.3 h 5.6 v 62.3 l -25.7,25.7 z m 67.5,-16.4 c 0,0 0,0 0,0 l -4.4,-4.4 -9.5,9.5 c -0.2,0.2 -0.4,0.3 -0.7,0.3 h -29.6 v 5.5 h 33.4 z m 14.9,-48.3 c 0,0 0,0 0,0 h -5.5 v 29.6 c 0,0.3 -0.1,0.5 -0.3,0.7 l -12.1,12.1 4.4,4.4 c 0,0 0,0 0,0 l 13.5,-13.5 z"
   id="path289" />&#10;			<g
   id="g295">&#10;				<g
   id="g294">&#10;					<g
   id="g290">&#10;						<polygon
   class="st14"
   points="1205.3,1411 1182.3,1434 1182.3,1499 1247.2,1499 1270.3,1476 1270.3,1411 "
   id="polygon289" />&#10;						<path
   class="st2"
   d="m 1270.3,1410 h -65 c -0.3,0 -0.5,0.1 -0.7,0.3 l -23,23 c -0.2,0.2 -0.3,0.4 -0.3,0.7 v 65 c 0,0.6 0.4,1 1,1 h 65 c 0.3,0 0.5,-0.1 0.7,-0.3 l 23,-23 c 0.2,-0.2 0.3,-0.4 0.3,-0.7 v -65 c 0,-0.6 -0.5,-1 -1,-1 z m -64.6,2 h 63.6 v 63.6 l -22.4,22.4 h -63.6 v -63.6 z"
   id="path290" />&#10;					</g>&#10;					<g
   id="g291">&#10;						<line
   class="st14"
   x1="1270.3"
   y1="1445.4"
   x2="1276.8"
   y2="1445.4"
   id="line290" />&#10;						<path
   class="st2"
   d="m 1276.8,1444.4 h -6.5 c -0.6,0 -1,0.4 -1,1 0,0.6 0.4,1 1,1 h 6.5 c 0.6,0 1,-0.4 1,-1 0,-0.6 -0.5,-1 -1,-1 z"
   id="path291" />&#10;					</g>&#10;					<g
   id="g292">&#10;						<line
   class="st14"
   x1="1216.6"
   y1="1505.5"
   x2="1216.6"
   y2="1499.1"
   id="line291" />&#10;						<path
   class="st2"
   d="m 1216.6,1498.1 c -0.6,0 -1,0.4 -1,1 v 6.4 c 0,0.6 0.4,1 1,1 0.6,0 1,-0.4 1,-1 v -6.4 c 0,-0.6 -0.4,-1 -1,-1 z"
   id="path292" />&#10;					</g>&#10;					<g
   id="g293">&#10;						<line
   class="st14"
   x1="1262.6"
   y1="1493.9"
   x2="1257.5"
   y2="1488.8"
   id="line292" />&#10;						<path
   class="st2"
   d="m 1257.4,1487.8 c -0.3,0 -0.5,0.1 -0.7,0.3 -0.4,0.4 -0.4,1 0,1.4 l 5.1,5.1 c 0.4,0.4 1,0.4 1.4,0 0.4,-0.4 0.4,-1 0,-1.4 l -5.1,-5.1 c -0.1,-0.2 -0.4,-0.3 -0.7,-0.3 z"
   id="path293" />&#10;					</g>&#10;					<polygon
   class="st2"
   points="1276.8,1423.1 1276.8,1479.8 1251,1505.5 1194.4,1505.5 1194.4,1511.1 1256.7,1511.1 1282.4,1485.4 1282.4,1423.1 "
   id="polygon293" />&#10;				</g>&#10;			</g>&#10;		</g>&#10;		<g
   id="g303">&#10;			<path
   class="st11"
   d="m 1141.7,1514.3 v -5.6 h -21.3 v -5.5 h 33.4 c 0.6,0 1,-0.4 1,-1 v -65 c 0,-0.3 -0.1,-0.5 -0.3,-0.7 l -23,-23 c -0.2,-0.2 -0.4,-0.3 -0.7,-0.3 h -65 c -0.6,0 -1,0.4 -1,1 v 33.4 h -5.5 c 0,0 0,0 0,0 v -21.3 h -5.6 v 62.3 l 25.7,25.7 z m -67.6,-16.4 c 0,0 0,0 0,0 l 4.4,-4.4 9.5,9.5 c 0.2,0.2 0.4,0.3 0.7,0.3 h 29.6 v 5.5 H 1085 Z m -14.8,-48.3 c 0,0 0,0 0,0 h 5.5 v 29.6 c 0,0.3 0.1,0.5 0.3,0.7 l 12.1,12.1 -4.4,4.4 c 0,0 0,0 0,0 l -13.5,-13.5 z"
   id="path296" />&#10;			<g
   id="g302">&#10;				<g
   id="g301">&#10;					<g
   id="g297">&#10;						<polygon
   class="st14"
   points="1127.5,1411 1150.5,1434 1150.5,1499 1085.5,1499 1062.5,1476 1062.5,1411 "
   id="polygon296" />&#10;						<path
   class="st2"
   d="m 1062.5,1410 h 65 c 0.3,0 0.5,0.1 0.7,0.3 l 23,23 c 0.2,0.2 0.3,0.4 0.3,0.7 v 65 c 0,0.6 -0.4,1 -1,1 h -65 c -0.3,0 -0.5,-0.1 -0.7,-0.3 l -23,-23 c -0.2,-0.2 -0.3,-0.4 -0.3,-0.7 v -65 c 0,-0.6 0.5,-1 1,-1 z m 64.6,2 h -63.6 v 63.6 l 22.4,22.4 h 63.6 v -63.6 z"
   id="path297" />&#10;					</g>&#10;					<g
   id="g298">&#10;						<line
   class="st14"
   x1="1062.5"
   y1="1445.4"
   x2="1056"
   y2="1445.4"
   id="line297" />&#10;						<path
   class="st2"
   d="m 1056,1444.4 h 6.5 c 0.6,0 1,0.4 1,1 0,0.6 -0.4,1 -1,1 h -6.5 c -0.6,0 -1,-0.4 -1,-1 0,-0.6 0.5,-1 1,-1 z"
   id="path298" />&#10;					</g>&#10;					<g
   id="g299">&#10;						<line
   class="st14"
   x1="1116.2"
   y1="1505.5"
   x2="1116.2"
   y2="1499.1"
   id="line298" />&#10;						<path
   class="st2"
   d="m 1116.2,1498.1 c 0.6,0 1,0.4 1,1 v 6.4 c 0,0.6 -0.4,1 -1,1 -0.6,0 -1,-0.4 -1,-1 v -6.4 c 0,-0.6 0.4,-1 1,-1 z"
   id="path299" />&#10;					</g>&#10;					<g
   id="g300">&#10;						<line
   class="st14"
   x1="1070.2"
   y1="1493.9"
   x2="1075.3"
   y2="1488.8"
   id="line299" />&#10;						<path
   class="st2"
   d="m 1075.3,1487.8 c 0.3,0 0.5,0.1 0.7,0.3 0.4,0.4 0.4,1 0,1.4 l -5.1,5.1 c -0.4,0.4 -1,0.4 -1.4,0 -0.4,-0.4 -0.4,-1 0,-1.4 l 5.1,-5.1 c 0.2,-0.2 0.5,-0.3 0.7,-0.3 z"
   id="path300" />&#10;					</g>&#10;					<polygon
   class="st2"
   points="1056,1423.1 1056,1479.8 1081.7,1505.5 1138.4,1505.5 1138.4,1511.1 1076.1,1511.1 1050.4,1485.4 1050.4,1423.1 "
   id="polygon300" />&#10;				</g>&#10;			</g>&#10;		</g>&#10;		<g
   id="g306">&#10;			<g
   class="st11"
   id="g304">&#10;				<rect
   x="808.09998"
   y="1307.3"
   width="89.400002"
   height="89.400002"
   id="rect303" />&#10;			</g>&#10;			<g
   id="g305">&#10;				<rect
   x="803.5"
   y="1302.7"
   class="st14"
   width="91.400002"
   height="91.400002"
   id="rect304" />&#10;				<path
   class="st2"
   d="m 893.9,1303.7 v 89.4 h -89.4 v -89.4 h 89.4 m 2,-2 h -2 -89.4 -2 v 2 89.4 2 h 2 89.4 2 v -2 -89.4 z"
   id="path304" />&#10;			</g>&#10;		</g>&#10;		<g
   id="g309">&#10;			<g
   class="st11"
   id="g307">&#10;				<polygon
   points="833.5,1509.7 810.5,1486.6 810.5,1421.7 875.5,1421.7 898.5,1444.7 898.5,1509.7 "
   id="polygon306" />&#10;			</g>&#10;			<g
   id="g308">&#10;				<polygon
   class="st14"
   points="806,1417.1 872.4,1417.1 896,1440.8 896,1507.1 829.6,1507.1 806,1483.5 "
   id="polygon307" />&#10;				<path
   class="st2"
   d="m 871.9,1418.1 23,23 v 65 h -65 l -23,-23 v -65 h 65 m 0.9,-2 h -0.8 -65 -2 v 2 65 0.8 l 0.6,0.6 23,23 0.6,0.6 h 0.8 65 2 v -2 -65 -0.8 l -0.6,-0.6 -23,-23 z"
   id="path307" />&#10;			</g>&#10;		</g>&#10;		<g
   id="g312">&#10;			<g
   class="st11"
   id="g310">&#10;				<polygon
   points="1009.8,1509.7 1032.8,1486.6 1032.8,1421.7 967.8,1421.7 944.8,1444.7 944.8,1509.7 "
   id="polygon309" />&#10;			</g>&#10;			<g
   id="g311">&#10;				<polygon
   class="st14"
   points="963.9,1417.1 1030.3,1417.1 1030.3,1483.5 1006.7,1507.1 940.3,1507.1 940.3,1440.8 "
   id="polygon310" />&#10;				<path
   class="st2"
   d="m 1029.3,1418.1 v 65 l -23,23 h -65 v -65 l 23,-23 h 65 m 2,-2 h -2 -65 -0.8 l -0.6,0.6 -23,23 -0.6,0.6 v 0.8 65 2 h 2 65 0.8 l 0.6,-0.6 23,-23 0.6,-0.6 v -0.8 -65 z"
   id="path310" />&#10;			</g>&#10;		</g>&#10;		<g
   id="g320">&#10;			<g
   id="g316">&#10;				<polygon
   class="st11"
   points="2156.4,956.4 2333.5,956.4 2333.5,933.1 2318.1,917.8 2156.4,917.8 "
   id="polygon312" />&#10;				<g
   id="g315">&#10;					<g
   class="st11"
   id="g313">&#10;						<path
   d="M 2156.8,915.7"
   id="path312" />&#10;					</g>&#10;					<g
   id="g314">&#10;						<polygon
   class="st21"
   points="2315.9,917.4 2156,917.4 2156,953.4 2330.5,953.4 2330.5,932 "
   id="polygon313" />&#10;					</g>&#10;				</g>&#10;			</g>&#10;			<g
   id="g319">&#10;				<g
   class="st11"
   id="g317">&#10;					<polygon
   points="2094.2,956.4 2071.2,933.3 2071.2,868.4 2136.2,868.4 2159.2,891.4 2159.2,956.4 "
   id="polygon316" />&#10;				</g>&#10;				<g
   id="g318">&#10;					<polygon
   class="st14"
   points="2066.7,863.8 2133.1,863.8 2156.7,887.5 2156.7,953.8 2090.3,953.8 2066.7,930.2 "
   id="polygon317" />&#10;					<path
   class="st2"
   d="m 2132.7,864.8 23,23 v 65 h -65 l -23,-23 v -65 h 65 m 0.8,-2 h -0.8 -65 -2 v 2 65 0.8 l 0.6,0.6 23,23 0.6,0.6 h 0.8 65 2 v -2 -65 -0.8 l -0.6,-0.6 -23,-23 z"
   id="path317" />&#10;				</g>&#10;			</g>&#10;		</g>&#10;		<g
   id="g328">&#10;			<g
   id="g324">&#10;				<polygon
   class="st11"
   points="2156.4,1034.1 2333.5,1034.1 2333.5,1057.3 2318.1,1072.7 2156.4,1072.7 "
   id="polygon320" />&#10;				<g
   id="g323">&#10;					<g
   class="st11"
   id="g321">&#10;						<path
   d="M 2156.8,1032"
   id="path320" />&#10;					</g>&#10;					<g
   id="g322">&#10;						<polygon
   class="st21"
   points="2315.9,1069.8 2156,1069.8 2156,1033.8 2330.5,1033.8 2330.5,1055.1 "
   id="polygon321" />&#10;					</g>&#10;				</g>&#10;			</g>&#10;			<g
   id="g327">&#10;				<g
   class="st11"
   id="g325">&#10;					<polygon
   points="2094.2,1072.7 2071.2,1049.7 2071.2,984.7 2136.2,984.7 2159.2,1007.7 2159.2,1072.7 "
   id="polygon324" />&#10;				</g>&#10;				<g
   id="g326">&#10;					<polygon
   class="st14"
   points="2066.7,980.2 2133.1,980.2 2156.7,1003.8 2156.7,1070.2 2090.3,1070.2 2066.7,1046.6 "
   id="polygon325" />&#10;					<path
   class="st2"
   d="m 2132.7,981.2 23,23 v 65 h -65 l -23,-23 v -65 h 65 m 0.8,-2 h -0.8 -65 -2 v 2 65 0.8 l 0.6,0.6 23,23 0.6,0.6 h 0.8 65 2 v -2 -65 -0.8 l -0.6,-0.6 -23,-23 z"
   id="path325" />&#10;				</g>&#10;			</g>&#10;		</g>&#10;		<g
   id="g335">&#10;			<g
   id="g331">&#10;				<g
   class="st11"
   id="g329">&#10;					<polygon
   points="2155.1,730.7 2154.6,730.3 2154.6,691 2328.6,691 2328.6,730.7 "
   id="polygon328" />&#10;					<path
   d="M 2152.8,729.6"
   id="path328" />&#10;				</g>&#10;				<g
   id="g330">&#10;					<rect
   x="2152.6001"
   y="689"
   class="st22"
   width="172.89999"
   height="38.200001"
   id="rect329" />&#10;				</g>&#10;			</g>&#10;			<g
   id="g334">&#10;				<g
   class="st11"
   id="g332">&#10;					<polygon
   points="2090.7,730.7 2067.7,707.7 2067.7,642.7 2132.7,642.7 2155.7,665.7 2155.7,730.7 "
   id="polygon331" />&#10;				</g>&#10;				<g
   id="g333">&#10;					<polygon
   class="st14"
   points="2063.2,638.2 2129.6,638.2 2153.2,661.8 2153.2,728.2 2086.8,728.2 2063.2,704.6 "
   id="polygon332" />&#10;					<path
   class="st2"
   d="m 2129.1,639.2 23,23 v 65 h -65 l -23,-23 v -65 h 65 m 0.9,-2 h -0.8 -65 -2 v 2 65 0.8 l 0.6,0.6 23,23 0.6,0.6 h 0.8 65 2 v -2 -65 -0.8 l -0.6,-0.6 -23,-23 z"
   id="path332" />&#10;				</g>&#10;			</g>&#10;		</g>&#10;		<g
   id="g342">&#10;			<g
   id="g338">&#10;				<g
   class="st11"
   id="g336">&#10;					<polygon
   points="2151.1,586.7 2150.7,587.1 2150.7,624.8 2355.7,624.8 2317.6,586.7 "
   id="polygon335" />&#10;					<path
   d="M 2149.2,596.8"
   id="path335" />&#10;				</g>&#10;				<g
   id="g337">&#10;					<polygon
   class="st23"
   points="2149,585 2149,621.8 2351.7,621.8 2314.9,585 "
   id="polygon336" />&#10;				</g>&#10;			</g>&#10;			<g
   id="g341">&#10;				<g
   class="st11"
   id="g339">&#10;					<polygon
   points="2087.2,624.8 2064.2,601.8 2064.2,536.8 2129.1,536.8 2152.2,559.9 2152.2,624.8 "
   id="polygon338" />&#10;				</g>&#10;				<g
   id="g340">&#10;					<polygon
   class="st14"
   points="2059.6,532.3 2126,532.3 2149.6,555.9 2149.6,622.3 2083.3,622.3 2059.6,598.7 "
   id="polygon339" />&#10;					<path
   class="st2"
   d="m 2125.6,533.3 23,23 v 65 h -65 l -23,-23 v -65 h 65 m 0.8,-2 h -0.8 -65 -2 v 2 65 0.8 l 0.6,0.6 23,23 0.6,0.6 h 0.8 65 2 v -2 -65 -0.8 l -0.6,-0.6 -23,-23 z"
   id="path339" />&#10;				</g>&#10;			</g>&#10;		</g>&#10;		<g
   id="g349">&#10;			<g
   id="g345">&#10;				<g
   class="st11"
   id="g343">&#10;					<polygon
   points="2151.1,849.4 2150.7,849 2150.7,811.3 2355.7,811.3 2317.6,849.4 "
   id="polygon342" />&#10;					<path
   d="M 2149.2,821.4"
   id="path342" />&#10;				</g>&#10;				<g
   id="g344">&#10;					<polygon
   class="st23"
   points="2149,846.3 2149,809.6 2351.7,809.6 2314.9,846.3 "
   id="polygon343" />&#10;				</g>&#10;			</g>&#10;			<g
   id="g348">&#10;				<g
   class="st11"
   id="g346">&#10;					<polygon
   points="2087.2,849.4 2064.2,826.4 2064.2,761.4 2129.1,761.4 2152.2,784.5 2152.2,849.4 "
   id="polygon345" />&#10;				</g>&#10;				<g
   id="g347">&#10;					<polygon
   class="st14"
   points="2059.6,756.9 2126,756.9 2149.6,780.5 2149.6,846.9 2083.3,846.9 2059.6,823.3 "
   id="polygon346" />&#10;					<path
   class="st2"
   d="m 2125.6,757.9 23,23 v 65 h -65 l -23,-23 v -65 h 65 m 0.8,-2 h -0.8 -65 -2 v 2 65 0.8 l 0.6,0.6 23,23 0.6,0.6 h 0.8 65 2 v -2 -65 -0.8 l -0.6,-0.6 -23,-23 z"
   id="path346" />&#10;				</g>&#10;			</g>&#10;		</g>&#10;		<g
   id="g356">&#10;			<g
   id="g352">&#10;				<g
   class="st11"
   id="g350">&#10;					<polygon
   points="1784.6,561.8 1784.2,562.2 1784.2,599.9 1989.2,599.9 1951.1,561.8 "
   id="polygon349" />&#10;					<path
   d="M 1782.7,571.9"
   id="path349" />&#10;				</g>&#10;				<g
   id="g351">&#10;					<polygon
   class="st23"
   points="1782.5,560.1 1782.5,596.8 1985.2,596.8 1948.4,560.1 "
   id="polygon350" />&#10;				</g>&#10;			</g>&#10;			<g
   id="g355">&#10;				<g
   class="st11"
   id="g353">&#10;					<rect
   x="1694.8"
   y="510.5"
   width="89.400002"
   height="89.400002"
   id="rect352" />&#10;				</g>&#10;				<g
   id="g354">&#10;					<rect
   x="1690.2"
   y="505.89999"
   class="st14"
   width="91.400002"
   height="91.400002"
   id="rect353" />&#10;					<path
   class="st2"
   d="m 1780.6,506.9 v 89.4 h -89.4 v -89.4 h 89.4 m 2,-2 h -2 -89.4 -2 v 2 89.4 2 h 2 89.4 2 v -2 -89.4 z"
   id="path353" />&#10;				</g>&#10;			</g>&#10;		</g>&#10;		<g
   id="g363">&#10;			<g
   id="g359">&#10;				<g
   class="st11"
   id="g357">&#10;					<polygon
   points="1788.6,705.7 1788.1,705.3 1788.1,666 1962.1,666 1962.1,705.7 "
   id="polygon356" />&#10;					<path
   d="M 1786.3,704.6"
   id="path356" />&#10;				</g>&#10;				<g
   id="g358">&#10;					<rect
   x="1786.1"
   y="664"
   class="st22"
   width="172.89999"
   height="38.200001"
   id="rect357" />&#10;				</g>&#10;			</g>&#10;			<g
   id="g362">&#10;				<g
   class="st11"
   id="g360">&#10;					<rect
   x="1698.7"
   y="616.29999"
   width="89.400002"
   height="89.400002"
   id="rect359" />&#10;				</g>&#10;				<g
   id="g361">&#10;					<rect
   x="1694.1"
   y="611.70001"
   class="st14"
   width="91.400002"
   height="91.400002"
   id="rect360" />&#10;					<path
   class="st2"
   d="m 1784.5,612.7 v 89.4 h -89.4 v -89.4 h 89.4 m 2,-2 h -2 -89.4 -2 v 2 89.4 2 h 2 89.4 2 v -2 -89.4 z"
   id="path360" />&#10;				</g>&#10;			</g>&#10;		</g>&#10;		<g
   id="g371">&#10;			<g
   id="g367">&#10;				<polygon
   class="st11"
   points="1784.9,1009.1 1962,1009.1 1962,1032.3 1946.6,1047.7 1784.9,1047.7 "
   id="polygon363" />&#10;				<g
   id="g366">&#10;					<g
   class="st11"
   id="g364">&#10;						<path
   d="M 1785.3,1007"
   id="path363" />&#10;					</g>&#10;					<g
   id="g365">&#10;						<polygon
   class="st21"
   points="1944.4,1044.8 1784.5,1044.8 1784.5,1008.8 1959.1,1008.8 1959.1,1030.2 "
   id="polygon364" />&#10;					</g>&#10;				</g>&#10;			</g>&#10;			<g
   id="g370">&#10;				<g
   class="st11"
   id="g368">&#10;					<rect
   x="1698.7"
   y="958.29999"
   width="89.400002"
   height="89.400002"
   id="rect367" />&#10;				</g>&#10;				<g
   id="g369">&#10;					<rect
   x="1694.1"
   y="953.70001"
   class="st14"
   width="91.400002"
   height="91.400002"
   id="rect368" />&#10;					<path
   class="st2"
   d="m 1784.5,954.7 v 89.4 h -89.4 v -89.4 h 89.4 m 2,-2 h -2 -89.4 -2 v 2 89.4 2 h 2 89.4 2 v -2 -89.4 z"
   id="path368" />&#10;				</g>&#10;			</g>&#10;		</g>&#10;		<g
   id="g379">&#10;			<g
   id="g375">&#10;				<polygon
   class="st11"
   points="1784.9,931.4 1962,931.4 1962,908.2 1946.6,892.8 1784.9,892.8 "
   id="polygon371" />&#10;				<g
   id="g374">&#10;					<g
   class="st11"
   id="g372">&#10;						<path
   d="M 1785.3,890.7"
   id="path371" />&#10;					</g>&#10;					<g
   id="g373">&#10;						<polygon
   class="st21"
   points="1944.4,892.5 1784.5,892.5 1784.5,928.5 1959.1,928.5 1959.1,907.1 "
   id="polygon372" />&#10;					</g>&#10;				</g>&#10;			</g>&#10;			<g
   id="g378">&#10;				<g
   class="st11"
   id="g376">&#10;					<rect
   x="1698.7"
   y="842"
   width="89.400002"
   height="89.400002"
   id="rect375" />&#10;				</g>&#10;				<g
   id="g377">&#10;					<rect
   x="1694.1"
   y="837.40002"
   class="st14"
   width="91.400002"
   height="91.400002"
   id="rect376" />&#10;					<path
   class="st2"
   d="m 1784.5,838.4 v 89.4 h -89.4 v -89.4 h 89.4 m 2,-2 h -2 -89.4 -2 v 2 89.4 2 h 2 89.4 2 v -2 -89.4 z"
   id="path376" />&#10;				</g>&#10;			</g>&#10;		</g>&#10;		<g
   id="g386">&#10;			<g
   id="g382">&#10;				<g
   class="st11"
   id="g380">&#10;					<polygon
   points="1786.6,824.5 1786.2,824.1 1786.2,786.3 1991.2,786.3 1953.1,824.5 "
   id="polygon379" />&#10;					<path
   d="M 1784.8,796.5"
   id="path379" />&#10;				</g>&#10;				<g
   id="g381">&#10;					<polygon
   class="st23"
   points="1784.5,821.4 1784.5,784.6 1987.2,784.6 1950.4,821.4 "
   id="polygon380" />&#10;				</g>&#10;			</g>&#10;			<g
   id="g385">&#10;				<g
   class="st11"
   id="g383">&#10;					<rect
   x="1698.7"
   y="735.09998"
   width="89.400002"
   height="89.400002"
   id="rect382" />&#10;				</g>&#10;				<g
   id="g384">&#10;					<rect
   x="1694.1"
   y="730.5"
   class="st14"
   width="91.400002"
   height="91.400002"
   id="rect383" />&#10;					<path
   class="st2"
   d="m 1784.5,731.5 v 89.4 h -89.4 v -89.4 h 89.4 m 2,-2 h -2 -89.4 -2 v 2 89.4 2 h 2 89.4 2 v -2 -89.4 z"
   id="path383" />&#10;				</g>&#10;			</g>&#10;		</g>&#10;	</g>&#10;&#10;</svg>
